<svg width="44" height="43" viewBox="0 0 44 43" fill="none" xmlns="http://www.w3.org/2000/svg">
<g clip-path="url(#clip0)">
<path d="M19.9766 33.4923H20.7515C22.1292 33.4066 23.3347 32.8927 24.2819 31.8648L24.7124 31.4365C24.9707 31.1795 25.0568 30.9225 25.1429 30.6656C25.4013 30.7512 25.7457 30.7512 26.004 30.6656L26.3484 30.5799C27.5539 30.4086 28.6733 29.7233 29.4482 28.8668L30.051 28.1815C31.1703 26.9823 31.687 25.4405 31.5148 23.813L31.4286 22.9564C31.4286 22.6994 31.3425 22.4425 31.2564 22.2711C32.2897 22.0998 33.1508 21.5859 33.8396 20.9006L34.2701 20.3867C35.4756 19.0162 36.0784 17.2174 35.82 15.4186L35.7339 14.7333C35.6478 14.1337 35.3034 13.6198 34.8729 13.2771C34.3562 12.9345 33.7535 12.8488 33.2369 12.9345L32.7202 13.0202C33.2369 12.1636 33.4952 11.2213 33.4091 10.1935L32.9785 5.31099V5.22533V5.13968C32.9785 5.13968 32.9785 5.05402 32.8924 5.05402C32.8924 5.05402 32.8924 4.96836 32.8063 4.96836L32.7202 4.8827C32.7202 4.8827 32.7202 4.8827 32.6341 4.79705C32.6341 4.79705 32.548 4.79705 32.548 4.71139C32.548 4.71139 32.548 4.71139 32.4619 4.71139H32.3758H32.2897H27.3817C26.3484 4.71139 25.4012 5.05402 24.5402 5.65362L24.6263 5.13968C24.7124 4.54007 24.5402 3.94047 24.1958 3.51219C23.8513 3.0839 23.2486 2.82693 22.6459 2.74127H21.957C20.1488 2.65561 18.3406 3.42653 17.1351 4.71139L16.7046 5.22533C16.0157 5.99625 15.5852 6.93848 15.4991 7.88071C15.2408 7.79505 14.9825 7.7094 14.7241 7.7094H13.8631C12.2271 7.7094 10.7633 8.309 9.64391 9.5082L9.29949 10.2791C8.43843 11.1357 7.9218 12.3349 7.83569 13.5341V13.8767C7.83569 14.2194 7.83569 14.4763 7.9218 14.7333C7.66348 14.819 7.40516 14.9903 7.14685 15.2472L6.71632 15.6755C5.76916 16.7034 5.33863 17.9883 5.42473 19.2731V20.0441C5.42473 20.9863 5.94137 21.8429 6.54411 22.3568C5.25252 23.0421 4.39146 24.4982 4.47757 26.0401L4.56368 27.8389C4.56368 28.7811 4.9942 29.552 5.68305 30.1516C6.28579 30.7512 7.14685 31.0082 8.0079 31.0082C8.09401 31.0082 8.09401 31.0082 8.18011 31.0082C8.35233 31.0082 8.52454 31.0082 8.69675 30.9225C8.61064 31.9504 8.95507 33.064 9.73002 33.8349C10.3328 34.4345 11.1938 34.6915 12.0549 34.6915C12.141 34.6915 12.141 34.6915 12.2271 34.6915L14.0353 34.6058C15.5852 34.5202 16.9629 33.5779 17.5656 32.2074C18.1684 33.1496 19.0294 33.4923 19.9766 33.4923ZM9.55781 29.2951C9.21338 29.7233 8.69675 29.9803 8.09401 29.9803C7.49127 29.9803 6.97464 29.809 6.54411 29.4664C6.11358 29.1237 5.85526 28.6098 5.85526 28.0102L5.76916 26.2114C5.76916 25.4405 6.02747 24.7552 6.458 24.2413C6.97464 23.7273 7.66348 23.3847 8.35233 23.3847H8.69675L9.81612 23.299C10.1605 23.299 10.4189 22.9564 10.4189 22.6138C10.4189 22.2711 10.0744 22.0142 9.73002 22.0142L8.52454 22.0998C7.40516 22.1855 6.54411 21.3289 6.54411 20.2154V19.4445C6.458 18.4166 6.88853 17.4743 7.57737 16.7034L8.0079 16.2751C8.26622 16.0182 8.61064 15.9325 8.95506 16.1038L9.21338 16.2751C11.4521 17.4743 13.0881 19.6158 13.5187 22.1855V22.4425C13.6048 22.7851 13.8631 23.0421 14.2936 22.9564C14.638 22.8708 14.8103 22.6138 14.8103 22.3568V22.2711V22.0142C14.3797 19.2731 12.6576 16.7891 10.2466 15.4186C10.1605 15.3329 9.98833 15.2472 9.90223 15.2472L9.64391 15.0759L9.55781 14.9903C9.29949 14.819 9.12728 14.562 9.12728 14.2194V13.8767C9.21338 12.9345 9.64391 12.0779 10.2466 11.3927L10.8494 10.7074C11.7104 9.76517 12.8298 9.25123 14.1214 9.33689H14.9825C15.413 9.33689 15.7574 9.67952 15.7574 10.1078C15.7574 10.6217 16.0157 11.1357 16.3602 11.4783C16.3602 11.4783 16.3602 11.4783 16.4463 11.564L20.0627 14.9046C20.321 15.1616 20.7515 15.1616 21.0099 14.9046C21.2682 14.6476 21.2682 14.2194 21.0099 13.9624L17.3073 10.6217C17.1351 10.4504 17.049 10.2791 17.049 10.1078L16.9629 8.73729C16.9629 7.88071 17.2212 7.02414 17.824 6.42454L18.2545 5.91059C19.2016 4.8827 20.6654 4.2831 22.1292 4.2831H22.8181C23.0764 4.2831 23.2486 4.36876 23.4208 4.54007C23.593 4.71139 23.593 4.96836 23.593 5.13968L23.0764 8.56597V8.65163L22.8181 10.3648C22.732 10.7074 22.9903 11.05 23.3347 11.05C23.6791 11.1357 24.0236 10.8787 24.0236 10.5361L24.2819 8.73729C24.6263 7.19545 26.004 5.99625 27.64 5.99625H31.0842L9.55781 29.2951ZM16.5324 29.2951L16.6185 30.4086V30.4943V30.7512C16.7046 32.2931 15.4991 33.5779 13.9492 33.5779L12.141 33.6636C11.6243 33.6636 11.0216 33.4923 10.5911 33.1496C9.73002 32.3787 9.64391 31.0082 10.4189 30.1516L32.0314 6.85282L32.2897 10.2791C32.4619 11.9066 31.3425 13.3628 29.7926 13.7054L28.0705 14.1337C27.7261 14.2194 27.4678 14.562 27.5539 14.9046C27.64 15.2472 27.9844 15.5042 28.3288 15.4186L30.051 14.9903L33.5813 14.1337C33.8396 14.048 34.0118 14.1337 34.184 14.2194C34.3562 14.3907 34.5285 14.562 34.5285 14.7333L34.6146 15.4186C34.7868 16.8747 34.3562 18.3309 33.323 19.3588L32.8924 19.8727C32.2897 20.4723 31.5148 20.9006 30.6537 20.9006L29.276 20.9863C29.1038 20.9863 28.8455 20.9006 28.6733 20.815L25.0568 17.4743C24.7985 17.2174 24.368 17.2174 24.1097 17.4743C23.8513 17.7313 23.8513 18.1596 24.1097 18.4166L27.8122 21.7572C28.2427 22.0998 28.7594 22.3568 29.3621 22.2711C29.7926 22.2711 30.1371 22.5281 30.2232 22.9564L30.3093 23.813C30.4815 25.0122 30.051 26.2114 29.1899 27.1536L28.5872 27.8389C27.9844 28.5241 27.1234 28.9524 26.1762 29.1237L25.8318 29.2951C25.4874 29.3807 25.1429 29.2094 24.9707 28.9524L24.7124 28.6098C23.1625 26.1257 20.4071 24.4982 17.4795 24.3269H17.2212C16.8768 24.3269 16.5324 24.5839 16.5324 24.9265C16.5324 25.2692 16.7907 25.5261 17.1351 25.5261H17.3934C19.8905 25.6974 22.2153 27.068 23.593 29.2094C23.593 29.2094 23.593 29.2094 23.593 29.2951L23.7652 29.552C23.9375 29.8947 23.9375 30.2373 23.6791 30.4943L23.2486 30.9225C22.5598 31.6935 21.6126 32.1217 20.6654 32.1217H19.8905C18.8572 32.1217 17.9101 31.3508 17.824 30.3229L17.7378 29.1237C17.7378 28.7811 17.3934 28.4385 17.049 28.5241C16.7907 28.6098 16.5324 28.8668 16.5324 29.2951ZM38.8337 5.13968C37.8866 3.42653 36.9394 1.79904 37.0255 1.19944C37.0255 1.19944 37.0255 1.19944 37.0255 1.11378C37.0255 1.02812 37.0255 1.02812 37.0255 1.02812V0.942465C37.0255 0.942465 37.0255 0.856808 36.9394 0.856808L36.8533 0.77115C36.8533 0.77115 36.8533 0.77115 36.8533 0.685493C36.8533 0.685493 36.8533 0.685493 36.7672 0.685493L36.6811 0.599835C36.6811 0.599835 36.595 0.599835 36.595 0.514178C36.595 0.514178 36.595 0.514178 36.5089 0.514178C36.5089 0.514178 36.5089 0.514178 36.4228 0.514178C36.3367 0.514178 36.3367 0.514178 36.3367 0.514178H36.2506C36.2506 0.514178 36.1645 0.514178 36.1645 0.599835L36.0784 0.685493C36.0784 0.685493 36.0784 0.685493 35.9922 0.685493C35.6478 0.942465 33.6674 0.685493 32.0314 0.514178C25.8318 -0.171081 14.3797 -1.62726 5.59694 7.96637C0.258393 13.7911 -0.344347 19.8727 0.172287 23.8986C0.775027 29.1237 3.3582 33.1496 5.33863 34.9484L5.51084 35.1198C7.66348 37.0899 14.1214 43.0002 22.4737 43.0002C22.732 43.0002 22.9903 43.0002 23.1625 43.0002C28.3288 42.7433 33.2369 40.1735 37.7144 35.2911C48.9942 23.0421 42.3641 11.3927 38.8337 5.13968ZM1.46387 23.7273C1.03334 19.9584 1.54998 14.2194 6.54411 8.82294C12.2271 2.65561 18.9433 1.28509 24.6263 1.28509C27.2956 1.28509 29.7926 1.62772 31.7731 1.8847C33.4091 2.05601 34.6146 2.22733 35.4756 2.14167C35.4756 2.99824 35.7339 4.19745 36.0784 5.82494C37.3699 11.9923 39.6087 22.3568 31.2564 31.4365C26.1762 36.9186 20.5793 37.9464 16.7046 37.7751C12.0549 37.6038 8.0079 35.7194 6.02747 34.0062C4.04704 32.2931 1.98051 28.3528 1.46387 23.7273ZM36.7672 34.4345C32.548 39.06 27.8983 41.4584 23.0764 41.7154C18.5128 41.8867 14.4658 40.0879 11.4521 38.2034C13.002 38.7174 14.8103 38.9743 16.7046 39.06C16.8768 39.06 17.1351 39.06 17.3934 39.06C21.4404 39.06 27.1234 37.7751 32.2897 32.2931C41.0725 22.6994 38.6615 11.564 37.3699 5.56796C37.3699 5.39665 37.2838 5.22533 37.2838 5.05402C37.456 5.31099 37.5421 5.56796 37.7144 5.82494C41.3308 12.1636 47.4443 22.8708 36.7672 34.4345Z" fill="white"/>
</g>
<defs>
<clipPath id="clip0">
<rect width="44" height="43" fill="white"/>
</clipPath>
</defs>
</svg>
