<svg width="46" height="43" viewBox="0 0 46 43" fill="none" xmlns="http://www.w3.org/2000/svg">
<path d="M28.8612 16.9906L46 6.603L41.9579 0L24.8999 10.3876L23.9297 8.85768C23.4447 8.05243 22.6362 7.48876 21.747 7.24719C20.7768 7.00562 19.8876 7.16667 18.9983 7.64981L16.8155 8.9382C16.4113 8.29401 15.6837 7.81086 14.9561 7.56929C14.1477 7.40824 13.2584 7.48876 12.6116 7.97191L11.0756 8.9382C10.348 9.34082 9.86295 10.0655 9.62042 10.8708C9.53957 11.0318 9.53957 11.2734 9.53957 11.4345C8.56945 11.0318 7.51848 11.0318 6.62921 11.5955L5.09318 12.5618C3.63799 13.4476 3.15293 15.2996 3.96137 16.8296L1.77859 18.118C0.970155 18.6011 0.40425 19.4064 0.161719 20.2921C-0.0808116 21.2584 0.0808756 22.1442 0.565937 23.03L6.46752 32.6124C6.95258 33.4176 7.76102 33.9813 8.65029 34.2228C9.53957 34.4644 10.5905 34.3034 11.399 33.8202L13.5818 32.5318C13.986 33.176 14.7136 33.6592 15.4412 33.9007C15.6837 33.9813 15.9262 33.9813 16.1687 33.9813C16.3304 33.9813 16.4113 33.9813 16.573 33.9813V37.927C16.573 38.4101 16.1687 38.8127 15.6837 38.8127H15.2795C14.7944 38.8127 14.3902 38.4101 14.3902 37.927V37.2022C14.3902 36.0749 13.4201 35.1086 12.2883 35.1086C11.1564 35.1086 10.1863 36.0749 10.1863 37.2022V40.9064C10.1863 41.3895 9.7821 41.7921 9.29704 41.7921H8.81198C8.32692 41.7921 7.9227 41.3895 7.9227 40.9064V35.6723C7.9227 35.3502 7.68017 35.1086 7.3568 35.1086C7.03342 35.1086 6.79089 35.3502 6.79089 35.6723V40.9064C6.79089 42.0337 7.76102 43 8.89283 43H9.37789C10.5097 43 11.4798 42.0337 11.4798 40.9064V37.2022C11.4798 36.7191 11.884 36.3165 12.3691 36.3165C12.8542 36.3165 13.2584 36.7191 13.2584 37.2022V37.927C13.2584 39.0543 14.2285 40.0206 15.3603 40.0206H15.7645C16.8963 40.0206 17.8665 39.0543 17.8665 37.927V33.5787H17.9473L19.4833 32.6124C20.2109 32.2097 20.696 31.485 20.9385 30.6798C21.0194 30.5187 21.0194 30.2772 21.0194 30.1161C21.9895 30.5187 23.1213 30.4382 23.9297 29.9551L25.4658 28.9888C26.9209 28.103 27.406 26.2509 26.5976 24.721L28.7803 23.4326C29.5888 22.9494 30.1547 22.1442 30.3972 21.2584C30.6397 20.2921 30.4781 19.4064 29.993 18.5206L28.8612 16.9906ZM25.4658 11.4345L41.5536 1.61049L44.3832 6.20037L28.2953 15.9438L25.4658 11.4345ZM24.1723 21.339C24.0106 21.339 23.8489 21.339 23.768 21.4195C23.6064 21.5 23.5255 21.5805 23.5255 21.7416C23.5255 21.9026 23.5255 22.0637 23.6064 22.1442L25.4658 25.2041C26.0317 26.1704 25.7083 27.4588 24.819 28.0225L23.2021 28.9888C22.7171 29.3109 22.1512 29.3914 21.6661 29.2303C21.1002 29.0693 20.696 28.7472 20.3726 28.264C20.2109 28.0225 19.8876 27.9419 19.645 28.103C19.4833 28.1835 19.4025 28.264 19.4025 28.4251C19.4025 28.5861 19.4025 28.7472 19.4833 28.8277C19.8067 29.3109 19.8876 29.794 19.7259 30.3577C19.5642 30.9213 19.2408 31.324 18.8366 31.6461L17.2197 32.6124L17.1389 32.6929H17.058C16.9772 32.6929 16.8963 32.7734 16.8155 32.7734C16.4113 32.9345 16.0879 32.9345 15.6837 32.8539C15.1178 32.6929 14.7136 32.3708 14.3902 31.9682L9.45873 23.9157C9.37789 23.7547 9.29704 23.6742 9.13536 23.6742C8.97367 23.6742 8.81198 23.6742 8.73114 23.7547C8.56945 23.8352 8.48861 23.9157 8.48861 24.0768C8.48861 24.2378 8.48861 24.3989 8.56945 24.4794L13.0158 31.7266L10.7522 33.015C10.1863 33.3371 9.53957 33.4981 8.81198 33.3371C8.16523 33.176 7.59933 32.7734 7.27595 32.2097L1.45522 22.5468C0.727624 21.339 1.13184 19.809 2.26365 19.0843L4.44643 17.7959L5.90161 20.1311C5.98246 20.2921 6.0633 20.3727 6.22499 20.3727C6.38667 20.3727 6.54836 20.3727 6.62921 20.2921C6.79089 20.2116 6.87174 20.1311 6.87174 19.97C6.87174 19.809 6.87174 19.6479 6.79089 19.5674L4.85065 16.427C4.52727 15.9438 4.44643 15.3801 4.60812 14.897C4.7698 14.3333 5.09318 13.9307 5.4974 13.6086L7.03342 12.6423C7.51848 12.4007 8.08439 12.2397 8.56945 12.4007C9.13536 12.5618 9.53957 12.8839 9.86295 13.2865L16.8963 24.8015C16.9772 24.9625 17.058 25.0431 17.2197 25.0431C17.3814 25.0431 17.5431 25.0431 17.6239 24.9625C17.8665 24.8015 17.9473 24.4794 17.7856 24.2378L10.7522 12.7228C10.4289 12.2397 10.348 11.676 10.5097 11.1929C10.6714 10.6292 10.9948 10.2266 11.399 9.90449L12.935 8.9382C13.4201 8.69663 13.986 8.53558 14.471 8.69663C15.0369 8.85768 15.4412 9.17978 15.7645 9.5824L20.7768 17.7154C20.9385 17.9569 21.2619 18.0375 21.5044 17.8764C21.747 17.7154 21.8278 17.3933 21.6661 17.1517L17.2197 9.82397L19.4025 8.53558C19.8067 8.29401 20.2109 8.13296 20.696 8.13296C21.5853 8.13296 22.3937 8.61611 22.8788 9.34082L28.7803 18.9232C29.1846 19.5674 29.2654 20.2921 29.0229 20.9363C28.8612 21.5 28.457 22.0637 27.8911 22.3858L25.87 23.8352L24.4956 21.5805C24.4956 21.4195 24.334 21.339 24.1723 21.339Z" fill="white"/>
</svg>
