<svg width="116" height="44" viewBox="0 0 116 44" fill="none" xmlns="http://www.w3.org/2000/svg">
<path d="M3.72012 42.095H3.07012V37.3759H0.650122V42.095H0.00012207V36.8049H3.72012V42.095Z" fill="white"/>
<path d="M4.64011 40.0911C4.62873 39.719 4.70077 39.3494 4.85011 39.0137C4.97323 38.7196 5.17524 38.4719 5.43011 38.3026C5.68797 38.1297 5.98641 38.0399 6.29011 38.044C6.51752 38.0367 6.74366 38.0831 6.95268 38.1798C7.1617 38.2766 7.34854 38.4215 7.50011 38.6043C7.8429 39.0219 8.02212 39.5664 8.00011 40.1234C8.00844 40.4941 7.94012 40.8621 7.80011 41.2009C7.67083 41.494 7.46602 41.7408 7.21011 41.912C6.94682 42.0793 6.64576 42.165 6.34011 42.1598C6.11391 42.1693 5.88861 42.1238 5.68089 42.0269C5.47318 41.9299 5.28836 41.7838 5.14011 41.5995C4.8176 41.193 4.65285 40.6682 4.68011 40.1342L4.64011 40.0911ZM5.26011 40.1773C5.2369 40.5619 5.33951 40.9432 5.55011 41.2547C5.63462 41.383 5.74742 41.4866 5.87835 41.5562C6.00928 41.6258 6.15422 41.6592 6.30011 41.6534C6.4474 41.6591 6.59374 41.6257 6.72625 41.5562C6.85877 41.4867 6.97341 41.3831 7.06011 41.2547C7.25133 40.9338 7.34886 40.5585 7.34011 40.1773C7.36164 39.7929 7.25919 39.4123 7.05011 39.0999C6.96341 38.9715 6.84877 38.868 6.71625 38.7985C6.58374 38.729 6.4374 38.6956 6.29011 38.7012C6.14603 38.6982 6.0034 38.7329 5.8745 38.8023C5.74561 38.8717 5.63429 38.9739 5.55011 39.0999C5.3487 39.4162 5.24703 39.794 5.26011 40.1773Z" fill="white"/>
<path d="M11.9201 41.621C12.1308 41.6237 12.3358 41.5475 12.5001 41.4055C12.5802 41.3404 12.6465 41.2578 12.6948 41.1631C12.743 41.0684 12.7721 40.9637 12.7801 40.856H13.3701C13.3579 41.0885 13.2851 41.3126 13.1601 41.5025C13.021 41.7106 12.8352 41.8774 12.6201 41.9873C12.4035 42.1072 12.1636 42.1699 11.9201 42.1705C11.697 42.1826 11.4741 42.1404 11.2682 42.0472C11.0622 41.9539 10.8783 41.812 10.7301 41.6318C10.4209 41.2184 10.2642 40.6966 10.2901 40.1665V40.0588C10.2779 39.6877 10.3464 39.3188 10.4901 38.9813C10.6119 38.6958 10.806 38.453 11.0501 38.281C11.3124 38.111 11.6141 38.025 11.9201 38.0332C12.2877 38.0286 12.6438 38.1706 12.9201 38.4318C13.0573 38.5694 13.1663 38.7363 13.2404 38.9218C13.3144 39.1073 13.3518 39.3074 13.3501 39.5093H12.7601C12.7481 39.2713 12.6514 39.0475 12.4901 38.8844C12.4126 38.802 12.3203 38.7375 12.2188 38.6949C12.1174 38.6523 12.0089 38.6324 11.9001 38.6365C11.7583 38.627 11.6165 38.6554 11.4873 38.7194C11.3582 38.7833 11.2458 38.8807 11.1601 39.0029C10.9638 39.3205 10.8723 39.6999 10.9001 40.0803V40.2096C10.8682 40.5904 10.9601 40.9712 11.1601 41.287C11.2509 41.4065 11.368 41.4997 11.5007 41.558C11.6335 41.6163 11.7776 41.638 11.9201 41.621Z" fill="white"/>
<path d="M16.7901 38.7119H15.5601V42.095H14.9401V38.7119H13.7401V38.1624H16.7401L16.7901 38.7119Z" fill="white"/>
<path d="M19.5901 42.095C19.547 41.9629 19.5201 41.8252 19.5101 41.6856C19.3823 41.8347 19.2279 41.9546 19.056 42.0379C18.8842 42.1212 18.6985 42.1663 18.5101 42.1704C18.1866 42.1849 17.8695 42.0698 17.6201 41.8472C17.5052 41.7301 17.4154 41.5874 17.3568 41.4291C17.2982 41.2708 17.2722 41.1007 17.2808 40.9305C17.2894 40.7603 17.3322 40.5942 17.4063 40.4436C17.4805 40.2931 17.5841 40.1617 17.7101 40.0587C18.0716 39.805 18.4996 39.684 18.9301 39.7139H19.5401V39.4015C19.5442 39.2983 19.5285 39.1953 19.4941 39.099C19.4597 39.0026 19.4073 38.9149 19.3401 38.8412C19.2612 38.7668 19.1691 38.7103 19.0695 38.6752C18.9698 38.64 18.8646 38.6268 18.7601 38.6365C18.5594 38.626 18.3616 38.6907 18.2001 38.8196C18.1325 38.8654 18.0768 38.929 18.0383 39.0044C17.9998 39.0798 17.9798 39.1646 17.9801 39.2506H17.3501C17.3529 39.0461 17.4199 38.8486 17.5401 38.6904C17.6603 38.5074 17.8177 38.3563 18.0001 38.2486C18.2301 38.1395 18.4789 38.0844 18.7301 38.087C19.0917 38.0633 19.4485 38.1863 19.7301 38.4318C19.8505 38.5504 19.9457 38.6955 20.0096 38.8572C20.0734 39.0189 20.1043 39.1935 20.1001 39.3691V41.1792C20.0884 41.4731 20.1327 41.7664 20.2301 42.0411L19.5901 42.095ZM18.5901 41.5886C18.7865 41.5872 18.9793 41.5315 19.1501 41.427C19.3118 41.3246 19.4435 41.1752 19.5301 40.996V40.188H19.0001C18.2301 40.188 17.8501 40.4358 17.8501 40.9098C17.8438 41.0037 17.8586 41.0979 17.8935 41.1842C17.9283 41.2705 17.9821 41.3464 18.0501 41.4055C18.1928 41.5332 18.3748 41.5986 18.5601 41.5886H18.5901Z" fill="white"/>
<path d="M24.1801 40.1773C24.2057 40.6907 24.072 41.1986 23.8001 41.6211C23.6865 41.7923 23.5363 41.9315 23.3623 42.0271C23.1883 42.1227 22.9955 42.1719 22.8001 42.1706C22.6052 42.1807 22.4106 42.1456 22.2294 42.0675C22.0482 41.9894 21.8848 41.8702 21.7501 41.7181V43.6143H21.1001V38.1626H21.6701V38.6043C21.7963 38.434 21.9582 38.2983 22.1424 38.2084C22.3267 38.1185 22.5281 38.077 22.7301 38.0871C22.9243 38.0863 23.116 38.1346 23.2897 38.2282C23.4634 38.3217 23.6142 38.458 23.7301 38.6258C24.0085 39.0613 24.1424 39.5851 24.1101 40.1127L24.1801 40.1773ZM23.5601 40.1019C23.5814 39.7222 23.4903 39.345 23.3001 39.0245C23.2176 38.8999 23.1078 38.7993 22.9804 38.7316C22.853 38.6639 22.7121 38.6313 22.5701 38.6366C22.3945 38.6312 22.2212 38.6801 22.0706 38.7775C21.9199 38.8749 21.7983 39.0166 21.7201 39.1861V41.0608C21.8005 41.23 21.9242 41.3707 22.0767 41.4662C22.2292 41.5617 22.4039 41.608 22.5801 41.5995C22.7181 41.6044 22.8551 41.5725 22.9789 41.5068C23.1028 41.441 23.2097 41.3433 23.2901 41.2224C23.4876 40.889 23.5821 40.4968 23.5601 40.1019Z" fill="white"/>
<path d="M27.3401 38.1624H28.0001V42.095H27.3801V39.2291L25.7001 42.095H25.0001V38.1624H25.6301V41.0392L27.3401 38.1624Z" fill="white"/>
<path d="M32.0001 42.095H31.3801V40.4143H29.6501V42.095H29.0001V38.1624H29.6301V39.8648H31.3101V38.1624H32.0001V42.095Z" fill="white"/>
<path d="M35.9401 42.095H35.3101V40.4143H33.6301V42.095H33.0001V38.1624H33.6201V39.8648H35.3001V38.1624H35.9301L35.9401 42.095Z" fill="white"/>
<path d="M36.7701 40.0911C36.7588 39.719 36.8308 39.3494 36.9801 39.0136C37.107 38.7188 37.3123 38.4713 37.5701 38.3025C37.8956 38.0918 38.278 38.0068 38.6543 38.0617C39.0306 38.1165 39.3783 38.3079 39.6401 38.6042C39.9589 39.0173 40.1229 39.5437 40.1001 40.0803C40.1104 40.4523 40.0384 40.8216 39.8901 41.1577C39.7645 41.4501 39.5631 41.697 39.3101 41.8688C39.0463 42.0346 38.7456 42.1203 38.4401 42.1166C38.2125 42.1262 37.9857 42.0809 37.7763 41.984C37.567 41.887 37.3804 41.7409 37.2301 41.5564C36.9138 41.1461 36.7499 40.624 36.7701 40.0911ZM37.4001 40.1773C37.374 40.5606 37.4731 40.9417 37.6801 41.2547C37.7668 41.3831 37.8815 41.4866 38.014 41.5561C38.1465 41.6256 38.2928 41.659 38.4401 41.6533C38.586 41.6591 38.731 41.6257 38.8619 41.5561C38.9928 41.4866 39.1056 41.383 39.1901 41.2547C39.3855 40.9358 39.4834 40.5591 39.4701 40.1773C39.4946 39.7941 39.3957 39.4136 39.1901 39.0998C39.1028 38.9721 38.9881 38.8691 38.8557 38.7997C38.7233 38.7302 38.5773 38.6964 38.4301 38.7012C38.2844 38.6964 38.1398 38.7302 38.009 38.7997C37.8782 38.8692 37.7653 38.9723 37.6801 39.0998C37.4823 39.4175 37.3841 39.7951 37.4001 40.1773Z" fill="white"/>
<path d="M43.0001 41.2116L44.2401 38.1624H45.0001V42.095H44.3801V39.2399L43.2001 42.095H42.7701L41.5601 39.1752V42.095H40.9401V38.1624H41.7501L43.0001 41.2116Z" fill="white"/>
<path d="M47.2001 41.1146L48.0501 38.1624H48.7201L47.2501 42.7092C47.0201 43.3556 46.6601 43.6896 46.1701 43.6896H46.0501H45.8201V43.0971H46.0001C46.1733 43.1096 46.3455 43.0604 46.4901 42.957C46.6364 42.8277 46.7385 42.6495 46.7801 42.4506L46.9201 42.0519L45.6201 38.1624H46.3001L47.2001 41.1146Z" fill="white"/>
<path d="M52.4501 41.621C52.6631 41.6187 52.8698 41.5432 53.0401 41.4056C53.117 41.3381 53.1805 41.2547 53.2269 41.1603C53.2733 41.0659 53.3016 40.9625 53.3101 40.8561H53.9001C53.8879 41.0885 53.8151 41.3126 53.6901 41.5025C53.5526 41.7081 53.3707 41.8745 53.1601 41.9874C52.9396 42.1062 52.6967 42.1689 52.4501 42.1705C52.2284 42.1833 52.0068 42.1415 51.8023 42.0481C51.5979 41.9548 51.4158 41.8124 51.2701 41.6318C50.9557 41.2215 50.7984 40.6975 50.8301 40.1665V40.0587C50.8148 39.6886 50.8799 39.3196 51.0201 38.9813C51.1419 38.6957 51.336 38.453 51.5801 38.281C51.8434 38.1136 52.1445 38.0279 52.4501 38.0332C52.8177 38.0286 53.1738 38.1706 53.4501 38.4318C53.5893 38.5677 53.6997 38.7342 53.7739 38.9201C53.8481 39.106 53.8843 39.3069 53.8801 39.5093H53.2901C53.2824 39.3912 53.2528 39.276 53.203 39.1705C53.1532 39.065 53.0842 38.9713 53.0001 38.8951C52.9226 38.8127 52.8303 38.7482 52.7289 38.7056C52.6274 38.663 52.5189 38.6432 52.4101 38.6473C52.2685 38.6396 52.1273 38.6689 51.9984 38.7327C51.8696 38.7965 51.757 38.8929 51.6701 39.0136C51.478 39.3332 51.3868 39.7111 51.4101 40.0911V40.2204C51.3838 40.6006 51.4753 40.9795 51.6701 41.2978C51.7639 41.4187 51.8848 41.5118 52.0212 41.5684C52.1577 41.6249 52.3053 41.6431 52.4501 41.621Z" fill="white"/>
<path d="M56.1201 42.1705C55.8953 42.1798 55.6711 42.1375 55.4625 42.0465C55.2539 41.9555 55.0657 41.8178 54.9101 41.6426C54.7518 41.4531 54.6296 41.2319 54.5507 40.9916C54.4718 40.7512 54.4376 40.4965 54.4501 40.2419V40.1126C54.4425 39.742 54.5108 39.3741 54.6501 39.0352C54.7823 38.7475 54.9823 38.5023 55.2301 38.3241C55.4702 38.1517 55.7516 38.0581 56.0401 38.0548C56.2487 38.0424 56.4572 38.0816 56.6496 38.1693C56.842 38.2571 57.0132 38.3911 57.1501 38.5611C57.4336 38.9822 57.5715 39.4966 57.5401 40.0157V40.2958H55.0701C55.0663 40.64 55.1802 40.9737 55.3901 41.2331C55.4859 41.3475 55.6032 41.4384 55.7343 41.4997C55.8654 41.561 56.0072 41.5914 56.1501 41.5887C56.3451 41.5974 56.5386 41.549 56.7101 41.4486C56.8691 41.3495 57.0084 41.2178 57.1201 41.0607L57.5001 41.384C57.356 41.6357 57.1521 41.8413 56.9095 41.9796C56.6669 42.1179 56.3943 42.1838 56.1201 42.1705ZM56.0001 38.6473C55.882 38.6447 55.7646 38.6693 55.656 38.7194C55.5473 38.7696 55.4499 38.8442 55.3701 38.9382C55.1855 39.1718 55.0735 39.462 55.0501 39.7678H56.8801C56.8829 39.4775 56.7908 39.1953 56.6201 38.9706C56.5477 38.8679 56.4538 38.7851 56.3461 38.7289C56.2383 38.6728 56.1198 38.6448 56.0001 38.6473Z" fill="white"/>
<path d="M60.3701 41.2116L61.6101 38.1624H62.3901V42.095H61.7701V39.2399L60.5901 42.095H60.1501L59.0001 39.1752V42.095H58.3701V38.1624H59.1801L60.3701 41.2116Z" fill="white"/>
<path d="M64.9101 42.1705C64.6852 42.1804 64.4608 42.1385 64.2522 42.0474C64.0435 41.9564 63.8553 41.8183 63.7001 41.6425C63.54 41.454 63.416 41.2331 63.3354 40.9928C63.2547 40.7524 63.2189 40.4972 63.2301 40.2419V40.1126C63.2203 39.7406 63.2923 39.3714 63.4401 39.0352C63.5679 38.7596 63.7611 38.5254 64.0001 38.3564C64.2402 38.184 64.5216 38.0904 64.8101 38.087C65.0186 38.0755 65.2269 38.115 65.4192 38.2027C65.6114 38.2904 65.7827 38.424 65.9201 38.5934C66.2036 39.0144 66.3415 39.5289 66.3101 40.0479V40.3281H63.8601C63.8535 40.6709 63.9638 41.0044 64.1701 41.2654C64.267 41.3812 64.386 41.4729 64.5189 41.5343C64.6518 41.5957 64.7956 41.6252 64.9401 41.621C65.1351 41.6297 65.3286 41.5813 65.5001 41.4809C65.658 41.3844 65.7945 41.2521 65.9001 41.093L66.2901 41.4163C66.1423 41.662 65.9368 41.8612 65.6944 41.9937C65.4521 42.1261 65.1815 42.1871 64.9101 42.1705ZM64.8301 38.6473C64.7119 38.6446 64.5946 38.6692 64.486 38.7194C64.3773 38.7696 64.2799 38.8442 64.2001 38.9382C64.0155 39.1718 63.9035 39.462 63.8801 39.7678H65.7101C65.708 39.4783 65.6166 39.1978 65.4501 38.9705C65.3777 38.8678 65.2838 38.785 65.1761 38.7289C65.0683 38.6727 64.9498 38.6448 64.8301 38.6473Z" fill="white"/>
<path d="M69.4201 38.1625H70.0001V42.0951H69.3801V39.2292L67.6901 42.0951H67.0701V38.1625H67.6901V41.0392L69.4201 38.1625ZM69.5901 36.7296C69.593 36.8627 69.5696 36.995 69.5213 37.1176C69.473 37.2402 69.401 37.3504 69.3101 37.4407C69.1054 37.6233 68.8458 37.7191 68.5801 37.71C68.3115 37.7188 68.0488 37.6232 67.8401 37.4407C67.7492 37.3504 67.6773 37.2402 67.629 37.1176C67.5807 36.995 67.5572 36.8627 67.5601 36.7296H68.0701C68.0656 36.8753 68.112 37.0176 68.2001 37.1282C68.251 37.1786 68.3111 37.217 68.3765 37.2411C68.4419 37.2653 68.5112 37.2745 68.5801 37.2683C68.6473 37.2724 68.7146 37.2621 68.7781 37.2381C68.8416 37.214 68.9001 37.1767 68.9501 37.1282C68.9961 37.075 69.0314 37.0121 69.0538 36.9435C69.0761 36.8749 69.0851 36.8021 69.0801 36.7296H69.5901Z" fill="white"/>
<path d="M74.0001 42.095H73.4001V40.4143H71.7301V42.095H71.1001V38.1624H71.7301V39.8648H73.4001V38.1624H74.0001V42.095Z" fill="white"/>
<path d="M74.8601 40.0911C74.8455 39.7174 74.9213 39.3461 75.0801 39.0137C75.2033 38.7196 75.4053 38.4719 75.6601 38.3025C75.9856 38.0918 76.368 38.0068 76.7443 38.0617C77.1206 38.1165 77.4683 38.3079 77.7301 38.6042C78.0489 39.0173 78.2129 39.5437 78.1901 40.0803C78.2004 40.4523 78.1284 40.8216 77.9801 41.1577C77.8545 41.4501 77.6531 41.697 77.4001 41.8688C77.1368 42.0362 76.8358 42.1219 76.5301 42.1166C76.3038 42.1269 76.0783 42.0819 75.8705 41.9848C75.6627 41.8878 75.4779 41.7413 75.3301 41.5564C75.0049 41.1509 74.8367 40.6264 74.8601 40.0911ZM75.4901 40.1773C75.4697 40.56 75.5682 40.9391 75.7701 41.2547C75.8568 41.3831 75.9715 41.4866 76.104 41.5561C76.2365 41.6256 76.3828 41.659 76.5301 41.6533C76.6762 41.6601 76.8214 41.6272 76.9525 41.5575C77.0836 41.4878 77.1963 41.3837 77.2801 41.2547C77.4755 40.9358 77.5734 40.5591 77.5601 40.1773C77.5846 39.7941 77.4857 39.4136 77.2801 39.0998C77.1934 38.9714 77.0788 38.8679 76.9463 38.7984C76.8138 38.7289 76.6674 38.6955 76.5201 38.7012C76.3756 38.6953 76.2321 38.7287 76.1027 38.7983C75.9734 38.868 75.8624 38.9717 75.7801 39.0998C75.5787 39.4162 75.4771 39.7939 75.4901 40.1773Z" fill="white"/>
<path d="M81.0701 41.2116L82.3201 38.1624H83.1001V42.095H82.4701V39.2399L81.2901 42.095H80.8601L79.6501 39.1752V42.095H79.0001V38.1624H79.8101L81.0701 41.2116Z" fill="white"/>
<path d="M85.2901 41.1146L86.1401 38.1624H86.8102L85.3401 42.7092C85.2854 42.9779 85.1499 43.2197 84.9546 43.3969C84.7593 43.5742 84.5152 43.6771 84.2601 43.6897H84.1401H83.9101V43.0971H84.0801C84.2533 43.1097 84.4255 43.0604 84.5701 42.957C84.7164 42.8277 84.8185 42.6495 84.8601 42.4506L85.0001 42.0197L83.7001 38.1301H84.3801L85.2901 41.1146Z" fill="white"/>
<path d="M92.1601 40.1773C92.1857 40.6907 92.052 41.1986 91.7801 41.6211C91.6664 41.7923 91.5163 41.9315 91.3423 42.0271C91.1682 42.1227 90.9755 42.1719 90.7801 42.1706C90.5935 42.1731 90.4085 42.1342 90.2364 42.0564C90.0644 41.9785 89.9091 41.8634 89.7801 41.7181V43.6143H89.1601V38.1626H89.7301V38.6043C89.8563 38.434 90.0182 38.2983 90.2024 38.2084C90.3867 38.1185 90.5881 38.077 90.7901 38.0871C90.9842 38.0871 91.1756 38.1358 91.3491 38.2293C91.5227 38.3228 91.6737 38.4586 91.7901 38.6258C92.0685 39.0613 92.2024 39.5851 92.1701 40.1127L92.1601 40.1773ZM91.5401 40.1019C91.5613 39.7222 91.4703 39.345 91.2801 39.0245C91.1976 38.8999 91.0878 38.7993 90.9604 38.7316C90.833 38.6639 90.6921 38.6313 90.5501 38.6366C90.3745 38.6312 90.2012 38.6801 90.0506 38.7775C89.8999 38.8749 89.7783 39.0166 89.7001 39.1861V41.0608C89.7805 41.23 89.9042 41.3707 90.0567 41.4662C90.2092 41.5617 90.3839 41.608 90.5601 41.5995C90.6981 41.6044 90.8351 41.5725 90.9589 41.5068C91.0828 41.441 91.1896 41.3433 91.2701 41.2224C91.4676 40.889 91.5621 40.4968 91.5401 40.1019Z" fill="white"/>
<path d="M94.4701 42.1705C94.2453 42.1798 94.0211 42.1375 93.8125 42.0465C93.6039 41.9555 93.4157 41.8178 93.2601 41.6426C93.1018 41.4531 92.9796 41.2319 92.9007 40.9916C92.8218 40.7512 92.7876 40.4965 92.8001 40.2419V40.1126C92.7903 39.7407 92.8623 39.3715 93.0101 39.0352C93.1358 38.7429 93.3372 38.4959 93.5901 38.3241C93.8258 38.1502 94.1045 38.0564 94.3901 38.0548C94.5987 38.0424 94.8072 38.0816 94.9996 38.1693C95.192 38.2571 95.3632 38.3911 95.5001 38.5611C95.7871 38.9807 95.9287 39.4953 95.9001 40.0157V40.2958H93.4201C93.4163 40.64 93.5302 40.9737 93.7401 41.2331C93.837 41.3489 93.956 41.4406 94.0889 41.502C94.2218 41.5633 94.3656 41.5929 94.5101 41.5887C94.705 41.5963 94.8983 41.548 95.0701 41.4486C95.2241 41.3464 95.3596 41.215 95.4701 41.0607L95.8501 41.384C95.706 41.6357 95.5021 41.8413 95.2595 41.9796C95.0169 42.1179 94.7443 42.1838 94.4701 42.1705ZM94.3901 38.6473C94.272 38.6447 94.1546 38.6693 94.046 38.7194C93.9373 38.7696 93.8399 38.8442 93.7601 38.9382C93.5755 39.1718 93.4635 39.462 93.4401 39.7678H95.2701C95.2709 39.4796 95.183 39.1992 95.0201 38.9706C94.9456 38.8677 94.8499 38.7849 94.7406 38.7288C94.6312 38.6727 94.5112 38.6448 94.3901 38.6473Z" fill="white"/>
<path d="M96.6701 38.1624H97.3001V41.5456H99.0001V38.1624H99.6301V41.5456H100L99.9402 43.2695H99.3801V42.0951H96.6701V38.1624Z" fill="white"/>
<path d="M102.23 42.1705C102.005 42.1805 101.781 42.1385 101.572 42.0475C101.363 41.9564 101.175 41.8184 101.02 41.6426C100.86 41.454 100.736 41.2331 100.655 40.9928C100.575 40.7524 100.539 40.4972 100.55 40.2419V40.1126C100.54 39.7406 100.612 39.3715 100.76 39.0352C100.889 38.7451 101.09 38.499 101.34 38.3241C101.58 38.1517 101.862 38.0581 102.15 38.0547C102.358 38.0447 102.566 38.085 102.758 38.1726C102.95 38.2602 103.122 38.393 103.26 38.5611C103.544 38.9821 103.682 39.4966 103.65 40.0156V40.2958H101.18C101.173 40.6386 101.284 40.9721 101.49 41.2331C101.587 41.3489 101.706 41.4406 101.839 41.502C101.972 41.5633 102.116 41.5929 102.26 41.5887C102.455 41.5974 102.649 41.549 102.82 41.4486C102.976 41.3491 103.112 41.2173 103.22 41.0607L103.6 41.384C103.459 41.6364 103.257 41.8429 103.016 41.9814C102.775 42.12 102.503 42.1853 102.23 42.1705ZM102.15 38.6473C102.032 38.6447 101.915 38.6692 101.806 38.7194C101.697 38.7696 101.6 38.8442 101.52 38.9382C101.332 39.1694 101.219 39.4609 101.2 39.7678H103C102.998 39.4783 102.907 39.1978 102.74 38.9705C102.671 38.8722 102.582 38.7921 102.48 38.7361C102.377 38.6801 102.265 38.6498 102.15 38.6473Z" fill="white"/>
<path d="M107.36 42.095H106.74V38.7227H105.06V42.095H104.43V38.1624H107.36V42.095Z" fill="white"/>
<path d="M111.08 38.7119H109.85V42.095H109.23V38.7119H108V38.1624H111L111.08 38.7119Z" fill="white"/>
<path d="M112.92 41.1146L113.77 38.1624H114.43L113 42.7092C112.77 43.3556 112.41 43.6896 111.91 43.6896H111.79H111.56V43.0971H111.73C111.903 43.1113 112.076 43.0619 112.22 42.957C112.367 42.8262 112.472 42.6491 112.52 42.4506L112.66 42.0519L111.35 38.1624H112L112.92 41.1146Z" fill="white"/>
<path d="M114.76 0.668032C114.562 0.455184 114.326 0.286623 114.067 0.171997C113.808 0.0573711 113.53 -0.00106754 113.25 2.63969e-05C112.971 -0.0014238 112.695 0.0568935 112.438 0.17158C112.18 0.286267 111.947 0.455029 111.75 0.668032C111.55 0.880362 111.391 1.13364 111.283 1.41302C111.175 1.69239 111.119 1.99224 111.12 2.29495C111.118 2.59793 111.172 2.89832 111.28 3.17795C111.389 3.45759 111.549 3.71066 111.75 3.92187C111.945 4.1383 112.178 4.31003 112.436 4.42669C112.693 4.54335 112.971 4.60253 113.25 4.60065C113.531 4.60274 113.81 4.54371 114.069 4.42707C114.329 4.31044 114.564 4.13861 114.76 3.92187C114.957 3.70973 115.114 3.4578 115.22 3.18049C115.327 2.90318 115.382 2.60592 115.382 2.30572C115.382 2.00553 115.327 1.70827 115.22 1.43096C115.114 1.15365 114.957 0.901721 114.76 0.689581V0.668032ZM114.46 3.59864C114.302 3.76913 114.114 3.90438 113.907 3.99665C113.701 4.08892 113.479 4.13641 113.255 4.13641C113.031 4.13641 112.81 4.08892 112.603 3.99665C112.396 3.90438 112.208 3.76913 112.05 3.59864C111.892 3.42814 111.766 3.22574 111.681 3.00297C111.595 2.78021 111.551 2.54145 111.551 2.30034C111.551 2.05922 111.595 1.82046 111.681 1.5977C111.766 1.37494 111.892 1.17253 112.05 1.00204C112.208 0.831008 112.396 0.695294 112.603 0.602689C112.809 0.510083 113.031 0.462411 113.255 0.462411C113.479 0.462411 113.701 0.510083 113.908 0.602689C114.114 0.695294 114.302 0.831008 114.46 1.00204C114.619 1.17223 114.745 1.37454 114.831 1.59735C114.917 1.82015 114.961 2.05905 114.961 2.30034C114.961 2.54162 114.917 2.78052 114.831 3.00333C114.745 3.22613 114.619 3.42844 114.46 3.59864ZM113.75 2.52121C113.829 2.48275 113.901 2.42783 113.96 2.3596C114.083 2.22019 114.151 2.03481 114.15 1.84243C114.151 1.6974 114.113 1.55525 114.04 1.43301C113.971 1.30673 113.866 1.2083 113.74 1.15288C113.586 1.095 113.423 1.0694 113.26 1.07746H112.2V3.57709H112.77V2.58586H113.05C113.077 2.58005 113.104 2.58005 113.13 2.58586C113.169 2.61558 113.203 2.65198 113.23 2.6936L113.42 2.99528L113.74 3.53399H114.43L113.93 2.67205C113.876 2.59843 113.815 2.52995 113.75 2.46734V2.52121ZM113.53 1.96095C113.522 1.97729 113.51 1.99152 113.497 2.00268C113.483 2.01383 113.467 2.02165 113.45 2.02559C113.371 2.04331 113.289 2.04331 113.21 2.02559H112.77V1.59462H113.27C113.353 1.58711 113.437 1.60582 113.51 1.64849C113.52 1.67219 113.525 1.6979 113.525 1.72391C113.525 1.74992 113.52 1.77563 113.51 1.79933C113.526 1.83261 113.533 1.86987 113.53 1.90708V1.96095Z" fill="white"/>
<path d="M113.84 7.54195C113.71 7.39911 113.554 7.28628 113.382 7.21034C113.21 7.1344 113.026 7.09693 112.84 7.10021C111.798 7.08982 110.8 6.64138 110.06 5.85039C109.696 5.45896 109.406 4.99383 109.209 4.48168C109.012 3.96954 108.91 3.42045 108.91 2.86592C108.91 2.66535 108.872 2.46688 108.8 2.28196C108.728 2.09703 108.623 1.92932 108.49 1.78849C108.359 1.64714 108.203 1.5353 108.031 1.45946C107.86 1.38362 107.676 1.34531 107.49 1.34675H6.74012C6.55458 1.34531 6.37063 1.38362 6.19896 1.45946C6.02729 1.5353 5.87132 1.64714 5.74012 1.78849C5.60892 1.92985 5.50512 2.0979 5.43473 2.28286C5.36435 2.46783 5.32879 2.66602 5.33012 2.86592C5.33227 3.42399 5.23174 3.97698 5.03435 4.49294C4.83697 5.0089 4.54663 5.47759 4.18012 5.87194C3.81731 6.2662 3.38591 6.57952 2.91061 6.79398C2.4353 7.00843 1.92542 7.11982 1.41012 7.12176C1.22598 7.11748 1.04286 7.15239 0.871261 7.2245C0.699663 7.2966 0.542956 7.40448 0.410121 7.54195C0.27801 7.68258 0.173603 7.85049 0.103152 8.03562C0.0327021 8.22075 -0.00234131 8.4193 0.000121349 8.61938V22.8737C0.0105741 23.2681 0.164046 23.6424 0.427629 23.9163C0.691212 24.1903 1.04392 24.342 1.41012 24.339C1.92575 24.3386 2.43629 24.4489 2.9119 24.6635C3.38751 24.8781 3.81865 25.1927 4.18012 25.5888C4.54605 25.9797 4.83685 26.4445 5.0359 26.9566C5.23494 27.4688 5.33832 28.0181 5.34012 28.5733C5.34012 28.9734 5.48762 29.357 5.75017 29.6399C6.01272 29.9228 6.36882 30.0817 6.74012 30.0817H107.51C107.696 30.0856 107.881 30.0484 108.053 29.9725C108.225 29.8965 108.38 29.7833 108.51 29.64C108.645 29.5006 108.751 29.3332 108.823 29.1479C108.896 28.9627 108.932 28.7635 108.93 28.5625C108.933 27.4404 109.348 26.3651 110.084 25.5716C110.821 24.7781 111.819 24.3311 112.86 24.3283C113.234 24.3288 113.594 24.17 113.86 23.8865C114.121 23.5983 114.268 23.212 114.27 22.8091V8.61938C114.268 8.41814 114.229 8.21939 114.155 8.03451C114.081 7.84963 113.974 7.68224 113.84 7.54195ZM113.84 22.7983C113.839 23.081 113.735 23.3518 113.55 23.5525C113.365 23.745 113.118 23.8531 112.86 23.8542C111.705 23.857 110.597 24.3529 109.78 25.2332C108.963 26.1136 108.503 27.3068 108.5 28.5518C108.496 28.8307 108.392 29.0972 108.21 29.2952C108.026 29.4916 107.779 29.6037 107.52 29.6076H6.74012C6.4749 29.6076 6.22055 29.4941 6.03301 29.2921C5.84548 29.09 5.74012 28.816 5.74012 28.5302C5.73749 27.2871 5.27866 26.0955 4.46373 25.2155C3.64881 24.3354 2.54392 23.8383 1.39012 23.8326C1.12919 23.8343 0.877988 23.7261 0.690121 23.531C0.509036 23.3285 0.408554 23.0579 0.410121 22.7768V8.61938C0.411147 8.34197 0.511441 8.07568 0.690121 7.87595C0.783067 7.7709 0.894754 7.68717 1.01848 7.62977C1.1422 7.57238 1.27542 7.54251 1.41012 7.54195C2.55853 7.54834 3.66248 7.06405 4.48012 6.19517C4.88486 5.76159 5.20625 5.24626 5.4259 4.67868C5.64554 4.1111 5.75911 3.50241 5.76012 2.88747C5.76638 2.61231 5.87014 2.35016 6.05012 2.15482C6.2355 1.9623 6.48265 1.85424 6.74012 1.85314H107.51C107.775 1.85314 108.03 1.96665 108.217 2.16871C108.405 2.37077 108.51 2.64481 108.51 2.93057C108.534 4.15684 109 5.32487 109.811 6.1861C110.621 7.04734 111.712 7.53379 112.85 7.54195C113.115 7.54195 113.37 7.65547 113.557 7.85752C113.745 8.05958 113.85 8.33363 113.85 8.61938L113.84 22.7983ZM112.84 8.26383C112.182 8.26368 111.531 8.1237 110.924 7.85192C110.316 7.58014 109.764 7.1819 109.3 6.68001C108.832 6.18057 108.461 5.58654 108.207 4.93201C107.953 4.27748 107.822 3.57535 107.82 2.86592C107.82 2.77448 107.786 2.68678 107.726 2.62213C107.666 2.55747 107.585 2.52114 107.5 2.52114H6.74012C6.65525 2.52114 6.57386 2.55747 6.51385 2.62213C6.45384 2.68678 6.42012 2.77448 6.42012 2.86592C6.4292 3.57446 6.30844 4.27797 6.06478 4.93616C5.82111 5.59434 5.45932 6.19426 5.00012 6.70156C4.52983 7.20992 3.96999 7.6119 3.3535 7.88388C2.737 8.15586 2.07627 8.29237 1.41012 8.28538C1.32696 8.28533 1.24704 8.32017 1.18731 8.38252C1.12758 8.44487 1.09272 8.52982 1.09012 8.61938V22.8199C1.09012 22.9113 1.12384 22.999 1.18385 23.0637C1.24386 23.1283 1.32525 23.1646 1.41012 23.1646C2.07839 23.1619 2.74039 23.3035 3.35701 23.581C3.97362 23.8586 4.53233 24.2666 5.00012 24.7808C5.46595 25.2811 5.83557 25.8755 6.08782 26.53C6.34007 27.1845 6.46998 27.8862 6.47012 28.5949C6.47012 28.6863 6.50384 28.774 6.56385 28.8387C6.62386 28.9033 6.70525 28.9396 6.79012 28.9396H107.51C107.595 28.9396 107.676 28.9033 107.736 28.8387C107.796 28.774 107.83 28.6863 107.83 28.5949C107.843 27.1705 108.374 25.8084 109.309 24.8011C110.244 23.7938 111.508 23.2218 112.83 23.2077C112.915 23.2077 112.996 23.1714 113.056 23.1067C113.116 23.0421 113.15 22.9544 113.15 22.863V8.61938C113.146 8.53418 113.113 8.45357 113.058 8.39225C113.003 8.33093 112.929 8.293 112.85 8.28538L112.84 8.26383Z" fill="white"/>
<path d="M22.7101 20.4711C22.5671 20.7692 22.3962 21.0508 22.2001 21.3115C22.0417 21.553 21.8371 21.7551 21.6001 21.9041C21.2824 22.041 20.9422 22.1069 20.6001 22.0981C20.0701 22.0981 19.1901 22.0981 18.4701 22.0981C18.1085 22.0915 17.7477 22.0591 17.3901 22.0011L17.1001 21.9472C16.9413 21.872 16.8079 21.7457 16.7184 21.5856C16.6289 21.4255 16.5875 21.2394 16.6001 21.0529C16.6001 19.9755 16.6001 17.4436 16.6001 16.3661C16.6001 16.2907 16.6701 16.1722 16.7101 16.1722H17.0001C17.0001 16.1722 17.0001 16.1722 17.0501 16.1722H18.9601C19.5001 16.1722 20.0101 16.1722 20.2901 16.2261C20.4885 16.2286 20.6784 16.3135 20.8201 16.4631C20.9244 16.5981 20.9996 16.7563 21.0401 16.9264C21.1175 17.2152 21.171 17.5109 21.2001 17.8099V17.8961C21.2677 17.936 21.3431 17.9581 21.4201 17.9607C21.4945 17.9463 21.5657 17.917 21.6301 17.8745C21.6301 17.2819 21.5801 16.6032 21.5801 15.7197C21.5871 14.9983 21.6405 14.2782 21.7401 13.5648C21.6232 13.4873 21.4872 13.4498 21.3501 13.4571C21.3501 13.6187 21.2801 13.7911 21.2401 13.9419C21.2057 14.0956 21.1622 14.2467 21.1101 14.3944C21.0705 14.5735 20.9916 14.7398 20.8801 14.8793C20.7415 15.0273 20.5553 15.1122 20.3601 15.1163C20.0401 15.1163 19.5501 15.1702 19.0401 15.1702C18.2401 15.1702 17.3001 15.1702 16.7201 15.1702C16.6601 15.1702 16.6101 15.0732 16.6101 15.0086C16.6101 13.9311 16.6101 11.3453 16.6101 10.0309C16.6101 9.69685 16.9301 9.51369 17.2001 9.49214H18.8001H20.5101C20.7806 9.49214 21.0438 9.58666 21.2601 9.7615C21.4259 9.93541 21.5436 10.1555 21.6001 10.3972C21.6001 10.5696 21.6901 10.7635 21.7301 10.9898C21.7701 11.216 21.8101 11.4962 21.8401 11.8302C21.9423 11.8541 22.048 11.8541 22.1501 11.8302C22.2149 10.7442 22.3485 9.66421 22.5501 8.59788C22.5501 8.59788 22.4801 8.51168 22.4601 8.49013C22.0001 8.55478 20.8701 8.57633 20.0401 8.57633H15.7301C14.7301 8.57633 13.7301 8.51168 13.1701 8.49013C13.1588 8.58311 13.1588 8.67729 13.1701 8.77027C13.1373 8.85658 13.1373 8.95331 13.1701 9.03962L13.8201 9.15814C13.9856 9.18655 14.1493 9.22613 14.3101 9.27666C14.4152 9.29289 14.5159 9.33298 14.6056 9.39427C14.6952 9.45556 14.7717 9.53666 14.8301 9.63221C14.936 9.89052 14.9938 10.1687 15.0001 10.4511C15.0001 10.6665 15.0001 11.3022 15.0001 12.1534C15.0001 13.0046 15.0001 14.082 15.0001 15.1486C15.0001 17.8207 15.0001 20.428 15.0001 20.8806C15.0022 21.1952 14.9336 21.5057 14.8001 21.7856C14.7417 21.8887 14.6632 21.9768 14.5699 22.0438C14.4766 22.1108 14.3709 22.1551 14.2601 22.1735C13.8093 22.2831 13.3513 22.3551 12.8901 22.389H12.6201C12.595 22.5023 12.595 22.6204 12.6201 22.7337C12.6057 22.8229 12.6057 22.914 12.6201 23.0031C13.4401 23.0031 14.4301 22.9384 15.7101 22.9384C17.9701 22.9384 19.5401 23.0354 21.3701 23.0354C22.4601 23.0354 22.5901 22.9169 22.7201 22.6583C23.1308 21.6185 23.4392 20.5352 23.6401 19.426C23.5344 19.3319 23.4119 19.2622 23.2801 19.2213C23.1117 19.649 22.9214 20.0662 22.7101 20.4711ZM38.4001 19.3075C38.1519 19.7712 37.8816 20.2208 37.5901 20.6543C37.3621 21.0058 37.0932 21.3244 36.7901 21.6024C36.5013 21.8792 36.1601 22.085 35.7901 22.2058C35.342 22.3467 34.877 22.4157 34.4101 22.4105C33.7774 22.4165 33.1473 22.3221 32.5401 22.1304C29.7801 21.3439 28.4101 18.5964 28.4101 15.4288C28.4101 12.2611 29.4901 10.1601 31.4101 9.31975C32.0792 8.99525 32.8064 8.8334 33.5401 8.84569C34.0289 8.84475 34.517 8.88437 35.0001 8.9642C35.4232 9.03538 35.8343 9.17334 36.2201 9.37363C36.5962 9.53873 36.9073 9.83965 37.1001 10.2248C37.3459 10.8473 37.4913 11.5105 37.5301 12.1857C37.5858 12.2022 37.6445 12.2022 37.7001 12.1857H37.9701C38.0439 10.9884 38.1875 9.7973 38.4001 8.61943C36.9762 8.37484 35.5406 8.21656 34.1001 8.14536C33.1414 8.13408 32.1859 8.26459 31.2601 8.53323C30.793 8.69554 30.341 8.90476 29.9101 9.15814C28.8595 9.7745 27.9873 10.6918 27.3901 11.8086C26.7892 12.9904 26.4794 14.3183 26.4901 15.6658C26.4397 16.7229 26.5912 17.7799 26.9353 18.7714C27.2793 19.7629 27.8085 20.6678 28.4901 21.43C29.4698 22.3916 30.6906 23.0211 32.0001 23.2401C33.7154 23.5258 35.4689 23.3745 37.1201 22.7984C37.9082 21.9085 38.4756 20.8191 38.7701 19.6307C38.7401 19.5122 38.5501 19.3937 38.4001 19.3075ZM54.9201 22.5398C54.9275 22.5043 54.9275 22.4675 54.9201 22.4321C54.3894 22.4313 53.8683 22.2789 53.4101 21.9903C53.1886 21.7863 53.0111 21.5326 52.8901 21.2469C52.7901 21.0314 52.6801 20.7836 52.5601 20.4711C51.8001 18.521 49.3801 11.0975 48.9501 9.7615C48.8083 9.36457 48.6914 8.95782 48.6001 8.54401C48.5301 8.54401 48.3101 8.54401 47.8801 8.54401H47.2001C47.1731 8.70798 47.1363 8.86992 47.0901 9.02885C47.0201 9.27666 46.9401 9.54601 46.8501 9.8046C46.5701 10.6881 45.7601 13.1231 44.9101 15.5581C44.3101 17.2927 43.7001 19.0274 43.2401 20.2126C43.0402 20.8623 42.6971 21.4501 42.2401 21.9257C41.7637 22.2482 41.2128 22.42 40.6501 22.4213C40.6121 22.5276 40.595 22.6414 40.6001 22.7553C40.5879 22.8518 40.5879 22.9497 40.6001 23.0462C41.0301 23.0462 41.6801 22.9708 42.8101 22.9708C43.9401 22.9708 45.1401 23.0462 45.6001 23.0462C45.6729 22.8478 45.6937 22.6316 45.6601 22.4213L45.1801 22.3459L44.7001 22.2381C44.5377 22.2021 44.3821 22.1365 44.2401 22.0442C44.1126 21.9908 44.0077 21.8891 43.945 21.7581C43.8824 21.6271 43.8664 21.4759 43.9001 21.3331C44.2074 20.0362 44.6018 18.765 45.0801 17.5298C45.0801 17.4543 45.2101 17.3035 45.2901 17.3035H49.3001C49.4201 17.3035 49.4901 17.4436 49.5101 17.4867C49.7101 18.0577 49.9901 18.8873 50.2501 19.6415C50.5101 20.3957 50.6801 21.0422 50.8001 21.5162C50.8446 21.6336 50.8446 21.7652 50.8001 21.8826C50.7305 21.9799 50.646 22.0637 50.5501 22.1304C50.3741 22.1959 50.1935 22.2464 50.0101 22.2812C49.8201 22.2812 49.6001 22.3566 49.3701 22.389C49.3437 22.4838 49.3437 22.585 49.3701 22.6799C49.3562 22.7871 49.3562 22.8959 49.3701 23.0031C49.8801 23.0031 51.1501 22.9384 52.1701 22.9384C53.1901 22.9384 54.2601 22.9923 54.8301 23.0139C54.8875 22.8558 54.918 22.6879 54.9201 22.5182V22.5398ZM49.0701 16.1614H48.4601H45.7201C45.6601 16.1614 45.6401 16.086 45.6401 15.9998C45.9501 14.9224 46.6401 12.8968 47.0601 11.5824L47.3201 10.7958C47.3201 10.7758 47.3275 10.7566 47.3406 10.7425C47.3538 10.7284 47.3716 10.7204 47.3901 10.7204C47.4087 10.7204 47.4265 10.7284 47.4396 10.7425C47.4528 10.7566 47.4601 10.7758 47.4601 10.7958C47.5201 10.9574 47.5901 11.1837 47.6701 11.4207V11.5285L48.1901 13.1769C48.4901 14.1466 48.8101 15.1702 49.0201 15.9028C49.0245 15.9241 49.0245 15.9462 49.0201 15.9675C49.0433 15.9924 49.06 16.0234 49.0688 16.0574C49.0775 16.0914 49.078 16.1272 49.0701 16.1614ZM68.8101 22.4105L68.1701 22.3243L67.7301 22.2273C67.4997 22.1847 67.2926 22.05 67.1501 21.8502C67.0046 21.5593 66.9322 21.2325 66.9401 20.9021C66.9401 20.622 66.9401 19.6523 66.9401 18.5964C66.9401 17.5405 66.9401 16.5924 66.9401 15.9783C66.9401 14.8039 66.9401 13.6295 66.9401 12.6382C66.9401 11.647 66.9401 10.7204 66.9401 10.3325C66.9351 10.0618 67.0047 9.79562 67.1401 9.56756C67.2897 9.38402 67.4891 9.25586 67.7101 9.20124C67.8901 9.20124 68.5301 9.08272 68.7101 9.03962C68.8901 8.99653 68.7801 8.81336 68.7701 8.68407C68.7601 8.55478 68.7701 8.47936 68.6901 8.47936C68.1601 8.47936 67.0801 8.54401 66.4601 8.54401H63.4601C60.5801 8.54401 58.9001 10.0093 58.7901 12.1534C58.7853 12.2143 58.7853 12.2756 58.7901 12.3366C58.7608 13.2411 59.0461 14.1249 59.5901 14.8146C59.9643 15.2727 60.4244 15.6399 60.9401 15.8921C61.3446 16.0519 61.7697 16.1428 62.2001 16.1614H62.0701C61.2635 16.3427 60.5233 16.7732 59.9401 17.4005C58.5896 18.9028 57.4295 20.591 56.4901 22.4213C56.1315 23.093 55.7306 23.7373 55.2901 24.3499C55.0402 24.7881 54.688 25.1481 54.2686 25.3938C53.8492 25.6396 53.3774 25.7626 52.9001 25.7505C53.6101 26.634 55.5901 26.4724 56.4601 26.0091C56.8763 25.7708 57.2409 25.4404 57.5301 25.0394C57.7701 24.7377 58.6201 23.2186 58.6201 23.2186C60.0401 20.6112 62.3001 16.4847 64.2801 16.5062H65.0801C65.1401 16.5062 65.1601 16.5062 65.1601 16.5816C65.1601 17.853 65.1601 20.191 65.1601 21.0098C65.1601 21.527 65.0601 21.7856 64.8801 21.958C64.7529 22.0862 64.5984 22.1788 64.4301 22.2273C64.1011 22.3107 63.7669 22.3684 63.4301 22.3997H63.2901C63.2401 22.5721 63.2901 22.96 63.3701 23.0246C63.8201 23.0246 64.9301 22.9492 66.1101 22.9492C67.0401 22.9492 68.3001 23.0139 68.8201 23.0246C68.8329 22.9318 68.8329 22.8374 68.8201 22.7445C68.8516 22.6358 68.8516 22.5192 68.8201 22.4105H68.8101ZM65.0501 15.7089H64.8801C63.9526 15.7427 63.0317 15.5279 62.2001 15.084C61.7205 14.7936 61.328 14.3612 61.0693 13.838C60.8106 13.3149 60.6963 12.7228 60.7401 12.1318C60.7213 11.7365 60.7782 11.3411 60.9073 10.9704C61.0363 10.5997 61.2347 10.2616 61.4901 9.97699C62.0774 9.43333 62.837 9.15537 63.6101 9.20124C63.8699 9.18622 64.1303 9.18622 64.3901 9.20124C64.5469 9.21752 64.7013 9.25368 64.8501 9.30898C64.9263 9.34047 64.9914 9.39691 65.0363 9.47036C65.0811 9.5438 65.1034 9.63056 65.1001 9.7184C65.1501 10.6342 65.1001 13.9419 65.1601 15.5257C65.1645 15.5456 65.1651 15.5662 65.1619 15.5863C65.1587 15.6064 65.1518 15.6255 65.1415 15.6427C65.1312 15.6598 65.1178 15.6745 65.1021 15.6859C65.0864 15.6973 65.0687 15.7051 65.0501 15.7089ZM85.1101 22.1735C84.9286 22.1219 84.7716 21.9989 84.6701 21.8287C84.5619 21.6013 84.5005 21.3514 84.4901 21.096C84.4901 20.6866 84.4901 11.3992 84.4901 10.5696C84.4912 10.2723 84.5385 9.97729 84.6301 9.69685C84.6801 9.59925 84.7487 9.5142 84.8314 9.44733C84.9142 9.38046 85.0092 9.3333 85.1101 9.30898C85.2693 9.2495 85.4334 9.20621 85.6001 9.17969L86.2301 9.07195C86.2521 8.97643 86.2521 8.87656 86.2301 8.78104C86.2406 8.69161 86.2406 8.60112 86.2301 8.51168C85.7201 8.51168 84.6801 8.57633 83.7601 8.57633C82.6001 8.57633 81.5401 8.49013 81.0301 8.49013C80.9821 8.57886 80.952 8.67747 80.9417 8.77955C80.9313 8.88164 80.941 8.98493 80.9701 9.08272L81.5501 9.17969C81.7365 9.21587 81.9203 9.26628 82.1001 9.33053C82.2685 9.4011 82.416 9.51952 82.5269 9.67318C82.6379 9.82685 82.7081 10.01 82.7301 10.2032C82.7301 11.0436 82.7301 13.6941 82.7301 14.9224C82.7301 14.9224 82.6601 15.0624 82.6001 15.0624C82.5401 15.0624 75.9101 15.0624 75.6001 15.0624C75.2901 15.0624 75.2001 15.0624 75.2001 14.8039C75.2001 14.1251 75.2001 13.554 75.2001 13.0692C75.2001 11.8086 75.2001 11.0113 75.2001 10.3756C75.1842 10.1037 75.236 9.83222 75.3501 9.58911C75.4638 9.42189 75.6315 9.30658 75.8201 9.26588C76.0301 9.21201 76.3701 9.14737 76.7201 9.08272H76.8501C76.9328 8.98782 76.9853 8.86709 77.0001 8.73794C77.0058 8.64466 77.0058 8.55109 77.0001 8.45781C76.4301 8.45781 75.7701 8.52246 74.4301 8.52246C73.2501 8.52246 72.1601 8.45781 71.6401 8.45781C71.5609 8.6354 71.5397 8.83666 71.5801 9.02885H71.7901C72.1279 9.07396 72.4622 9.14599 72.7901 9.24433C73.0052 9.32877 73.1908 9.48281 73.3215 9.68534C73.4522 9.88786 73.5216 10.129 73.5201 10.3756C73.5201 10.7958 73.5201 19.5984 73.5201 20.3957C73.4601 21.4085 73.2101 21.9903 72.6301 22.1735C72.4301 22.2273 71.7801 22.3351 71.5601 22.3674C71.493 22.5731 71.493 22.7974 71.5601 23.0031C72.0001 23.0031 73.1701 22.9277 74.4601 22.9277C75.7501 22.9277 76.6701 22.9923 77.1501 23.0031C77.2401 23.0031 77.3101 22.3997 77.2001 22.3782C75.9401 22.1735 75.5901 22.0442 75.3801 21.6779C75.2692 21.3954 75.218 21.09 75.2301 20.7836C75.2301 20.5358 75.2301 19.7062 75.2301 18.8119V16.2799C75.2301 16.2799 75.2301 16.1291 75.3101 16.1291H82.6301C82.6901 16.1291 82.7601 16.2261 82.7601 16.3015C82.7601 17.7776 82.7601 20.3526 82.7601 21.0422C82.7601 21.7317 82.5901 22.0011 82.2001 22.1196C82.1301 22.1196 81.6601 22.2812 81.4601 22.3135C81.2847 22.3482 81.1078 22.3734 80.9301 22.389C80.8581 22.5975 80.8581 22.8269 80.9301 23.0354C81.4901 23.0354 82.5801 22.96 83.6901 22.96C84.8001 22.96 85.6901 23.0139 86.4001 23.0354C86.4422 22.9487 86.4661 22.8531 86.4701 22.7553C86.4933 22.6453 86.4933 22.5312 86.4701 22.4213C86.0086 22.3889 85.5522 22.2985 85.1101 22.1519V22.1735ZM100.55 15.5257C99.7667 14.8771 98.8082 14.5215 97.8201 14.513L95.1301 14.5884C95.1192 14.5941 95.1072 14.5971 95.0951 14.5971C95.083 14.5971 95.071 14.5941 95.0601 14.5884C95.0517 14.5641 95.0517 14.5373 95.0601 14.513C95.0601 12.4551 95.0601 11.4315 95.0601 10.4403C95.0414 10.1589 95.0896 9.87713 95.2001 9.62143C95.322 9.43934 95.5049 9.31564 95.7101 9.27666L96.1701 9.17969C96.3501 9.17969 96.5401 9.11504 96.7701 9.09349C96.7907 8.99052 96.7907 8.88401 96.7701 8.78104C96.781 8.68443 96.781 8.58675 96.7701 8.49013C96.1901 8.49013 95.3901 8.57633 94.4101 8.57633H91.4101C90.945 8.58736 90.4806 8.52936 90.0301 8.40394L89.6001 8.28542C89.5501 8.28542 89.4901 8.35007 89.4901 8.37162C89.4901 9.23356 89.2101 11.1622 89.0401 12.1426C89.0401 12.1426 89.1701 12.2611 89.2901 12.3042H89.4101C89.5768 11.8086 89.7368 11.3669 89.8901 10.979C90.0053 10.649 90.1493 10.3315 90.3201 10.0309C90.4001 9.86896 90.5171 9.73174 90.6601 9.63221C90.8008 9.53309 90.9625 9.4738 91.1301 9.45982H92.1301H93.0301H93.3201C93.367 9.47842 93.4085 9.51021 93.4401 9.5519C93.4718 9.59358 93.4925 9.64363 93.5001 9.69685C93.5001 11.1729 93.5001 13.6833 93.5001 15.655C93.5001 18.1654 93.5001 20.2556 93.4401 21.0422C93.3801 21.8287 93.2401 22.1196 92.7601 22.2381C92.6501 22.2381 91.6901 22.4536 91.3101 22.4859C91.2438 22.6955 91.2438 22.9228 91.3101 23.1324C92.6901 23.1324 95.3101 23.197 96.3101 23.197C96.6901 23.197 97.0501 23.197 97.4001 23.197H97.5901C98.1221 23.0835 98.6369 22.8913 99.1201 22.626C99.889 22.2657 100.543 21.67 101 20.9129C101.451 20.1708 101.684 19.2999 101.67 18.4132C101.692 17.8696 101.604 17.3273 101.41 16.8246C101.217 16.3219 100.923 15.8712 100.55 15.5042V15.5257ZM97.8801 22.2273C97.6215 22.2945 97.3561 22.3271 97.0901 22.3243C96.7738 22.3197 96.4588 22.2799 96.1501 22.2058C95.9122 22.1534 95.6852 22.0549 95.4801 21.9149C95.3501 21.8164 95.2466 21.6826 95.1801 21.527C95.1214 21.3759 95.0843 21.2161 95.0701 21.0529C95.0701 20.5573 95.0701 19.5661 95.0701 18.5102C95.0701 17.4543 95.0701 16.3554 95.0701 15.5796C95.0636 15.544 95.0636 15.5074 95.0701 15.4719C95.0701 15.4719 95.0701 15.418 95.1401 15.418H95.6101H96.2801C96.5499 15.4006 96.8204 15.4006 97.0901 15.418C99.1601 15.5904 100.09 16.8725 100.09 19.0166C100 20.8806 99.3501 22.0226 97.8801 22.2058V22.2273Z" fill="#231F20"/>
</svg>
