<svg width="157" height="60" viewBox="0 0 157 60" fill="none" xmlns="http://www.w3.org/2000/svg">
<path d="M155.503 0.905174C155.234 0.616769 154.915 0.38837 154.564 0.233053C154.212 0.0777371 153.836 -0.0014465 153.457 3.57674e-05C153.079 -0.00192924 152.705 0.0770899 152.356 0.232489C152.007 0.387887 151.69 0.616558 151.424 0.905174C151.153 1.19288 150.938 1.53607 150.791 1.91462C150.645 2.29317 150.57 2.69945 150.571 3.10963C150.567 3.52016 150.641 3.92718 150.788 4.30608C150.935 4.68498 151.151 5.02789 151.424 5.31408C151.688 5.60734 152.004 5.84003 152.353 5.9981C152.703 6.15618 153.078 6.23636 153.457 6.23381C153.838 6.23665 154.215 6.15666 154.567 5.99863C154.918 5.84059 155.237 5.60777 155.503 5.31408C155.77 5.02663 155.982 4.68527 156.127 4.30952C156.271 3.93376 156.346 3.53099 156.346 3.12422C156.346 2.71746 156.271 2.31469 156.127 1.93893C155.982 1.56318 155.77 1.22182 155.503 0.934373V0.905174ZM155.096 4.87611C154.882 5.10712 154.627 5.29038 154.347 5.41541C154.067 5.54043 153.767 5.60478 153.464 5.60478C153.16 5.60478 152.86 5.54043 152.58 5.41541C152.3 5.29038 152.045 5.10713 151.831 4.87611C151.616 4.64509 151.446 4.37083 151.33 4.06899C151.214 3.76715 151.155 3.44363 151.155 3.11693C151.155 2.79021 151.214 2.4667 151.33 2.16486C151.446 1.86302 151.616 1.58876 151.831 1.35774C152.045 1.12601 152.299 0.942115 152.58 0.816635C152.86 0.691156 153.16 0.626561 153.464 0.626561C153.767 0.626561 154.068 0.691156 154.348 0.816635C154.628 0.942115 154.882 1.12601 155.096 1.35774C155.312 1.58836 155.482 1.86249 155.599 2.16438C155.715 2.46628 155.775 2.78999 155.775 3.11693C155.775 3.44386 155.715 3.76757 155.599 4.06947C155.482 4.37136 155.312 4.64549 155.096 4.87611ZM154.134 3.4162C154.242 3.36409 154.338 3.28968 154.419 3.19722C154.586 3.00833 154.678 2.75714 154.676 2.49647C154.677 2.29995 154.625 2.10734 154.527 1.9417C154.434 1.7706 154.291 1.63723 154.121 1.56213C153.912 1.48371 153.691 1.44903 153.47 1.45994H152.034V4.84691H152.806V3.5038H153.186C153.222 3.49593 153.258 3.49593 153.294 3.5038C153.347 3.54407 153.392 3.5934 153.43 3.64979L153.687 4.05856L154.121 4.78851H155.056L154.378 3.62059C154.304 3.52084 154.223 3.42805 154.134 3.34321V3.4162ZM153.836 2.65706C153.825 2.6792 153.81 2.69848 153.791 2.7136C153.772 2.72871 153.751 2.73931 153.728 2.74465C153.621 2.76866 153.51 2.76866 153.403 2.74465H152.806V2.16069H153.484C153.597 2.15051 153.71 2.17587 153.809 2.23368C153.823 2.2658 153.83 2.30064 153.83 2.33588C153.83 2.37112 153.823 2.40596 153.809 2.43807C153.83 2.48316 153.84 2.53365 153.836 2.58406V2.65706Z" fill="white"/>
<path d="M150.304 10.6398C151.127 11.0077 152.01 11.1971 152.901 11.1978L152.915 11.2267C153.022 11.2369 153.122 11.2883 153.196 11.3718C153.271 11.4546 153.315 11.5638 153.321 11.6794V30.9795C153.321 31.1035 153.276 31.2223 153.194 31.3102C153.113 31.3976 153.003 31.447 152.888 31.447C151.096 31.4663 149.383 32.2413 148.116 33.6058C146.85 34.971 146.13 36.8164 146.113 38.7466C146.113 38.8705 146.067 38.9893 145.986 39.0773C145.904 39.1646 145.794 39.2141 145.679 39.2141H9.20079C9.15031 39.2141 9.10073 39.2044 9.05411 39.1865C8.99453 39.1634 8.93979 39.1261 8.89418 39.0773C8.81286 38.9893 8.76718 38.8705 8.76718 38.7466C8.76698 37.7866 8.59095 36.8357 8.24914 35.9489C7.90735 35.0621 7.40649 34.2563 6.77529 33.5782C6.14143 32.8815 5.38436 32.3286 4.54883 31.953C3.7133 31.5767 2.81627 31.3847 1.91074 31.3886C1.79574 31.3886 1.68546 31.3391 1.60414 31.2518C1.52282 31.1638 1.47714 31.045 1.47714 30.9211V11.6794C1.48066 11.558 1.5279 11.4431 1.60883 11.3583C1.68977 11.2742 1.79806 11.2267 1.91074 11.2267C2.8134 11.2363 3.7087 11.0514 4.54407 10.6828C5.37944 10.3142 6.13803 9.7697 6.77529 9.08071C7.39752 8.393 7.88775 7.58072 8.21793 6.68881C8.5481 5.79691 8.71173 4.84336 8.69942 3.88339C8.69942 3.75946 8.74511 3.64067 8.82643 3.5527C8.90775 3.46537 9.01803 3.41593 9.13303 3.41593H145.665C145.78 3.41593 145.891 3.46537 145.972 3.5527C146.053 3.64067 146.099 3.75946 146.099 3.88339C146.101 4.84465 146.279 5.79627 146.623 6.68303C146.967 7.5698 147.471 8.37502 148.104 9.05181C148.734 9.73181 149.481 10.2712 150.304 10.6398Z" fill="#646464"/>
<path fill-rule="evenodd" clip-rule="evenodd" d="M153.636 9.77034C153.869 9.87308 154.08 10.0259 154.256 10.2192C154.438 10.4093 154.583 10.6366 154.683 10.887C154.783 11.1374 154.836 11.4065 154.839 11.6794V30.907C154.837 31.4528 154.637 31.9761 154.283 32.3665C153.923 32.7512 153.436 32.9663 152.928 32.965C151.517 32.9688 150.165 33.575 149.167 34.6499C148.169 35.7254 147.607 37.1824 147.603 38.703C147.605 38.9752 147.556 39.2449 147.458 39.496C147.36 39.747 147.216 39.9737 147.034 40.1625C146.858 40.3571 146.647 40.5105 146.414 40.6133C146.181 40.716 145.931 40.7667 145.679 40.7616H9.13303C8.62991 40.7616 8.14739 40.5458 7.79162 40.1625C7.43586 39.7791 7.23599 39.2597 7.23599 38.7177C7.23355 37.9652 7.09347 37.2209 6.82377 36.5268C6.55406 35.8327 6.16001 35.2034 5.66417 34.6737C5.17437 34.1368 4.59016 33.7105 3.94569 33.4196C3.30123 33.1287 2.60944 32.9791 1.91074 32.9797C1.41454 32.9842 0.936603 32.7781 0.579445 32.407C0.222287 32.0358 0.0143276 31.5286 0.000164534 30.9943V11.6794C-0.00185138 11.5156 0.0146688 11.3525 0.0490944 11.1939C0.0716726 11.0899 0.101953 10.9878 0.139769 10.8883C0.23523 10.6378 0.376706 10.4099 0.555719 10.2192C0.735715 10.033 0.948058 9.88721 1.18058 9.78961C1.4131 9.69136 1.66123 9.64449 1.91074 9.65027C2.60898 9.6477 3.2999 9.4968 3.94394 9.20592C4.588 8.91504 5.17256 8.4906 5.66417 7.95636C6.1608 7.42211 6.55421 6.78706 6.82168 6.08779C7.08914 5.38852 7.22536 4.63981 7.22245 3.88339C7.22064 3.61242 7.26883 3.34401 7.3642 3.09294C7.45957 2.84252 7.60023 2.61521 7.77801 2.42321C7.95579 2.23186 8.16713 2.08032 8.39974 1.97758C8.63237 1.87484 8.88162 1.82283 9.13303 1.82476H145.652C145.903 1.82283 146.152 1.87484 146.385 1.97758C146.618 2.08032 146.829 2.23186 147.007 2.42321C147.186 2.61392 147.329 2.84123 147.427 3.0923C147.525 3.34273 147.575 3.61178 147.576 3.88339C147.576 4.63467 147.713 5.37889 147.981 6.07302C148.248 6.76651 148.64 7.39707 149.134 7.92746C150.137 8.99916 151.489 9.6066 152.901 9.62073C153.153 9.61623 153.403 9.66696 153.636 9.77034ZM153.863 31.9138C154.114 31.6422 154.255 31.2749 154.256 30.8922L154.27 11.6794C154.27 11.2922 154.127 10.921 153.873 10.6468C153.619 10.3733 153.274 10.2192 152.915 10.2192C151.372 10.2083 149.895 9.54945 148.796 8.38208C147.698 7.21535 147.066 5.63253 147.034 3.97072C147.034 3.58352 146.891 3.21238 146.637 2.93884C146.383 2.66465 146.038 2.51118 145.679 2.51118H9.13303C8.78415 2.51247 8.44925 2.65887 8.19806 2.91957C7.9542 3.18477 7.81359 3.53986 7.80511 3.91229C7.80374 4.74576 7.64985 5.57088 7.35222 6.3395C7.0546 7.10876 6.61911 7.80674 6.07067 8.39428C4.96275 9.57193 3.46688 10.2282 1.91074 10.2192C1.72822 10.2205 1.54771 10.2609 1.38006 10.3386C1.27273 10.3881 1.17209 10.4529 1.08052 10.53C1.02905 10.573 0.980447 10.6205 0.935135 10.6719C0.693019 10.9429 0.557115 11.3037 0.555719 11.6794V30.8627C0.5536 31.2441 0.689752 31.6107 0.935135 31.8849C1.1897 32.1495 1.53009 32.2959 1.88365 32.294C3.44707 32.3017 4.94422 32.9753 6.04848 34.1677C7.15272 35.3601 7.77445 36.9744 7.77801 38.6593C7.77801 39.0465 7.92076 39.4176 8.17488 39.6912C8.429 39.9654 8.77366 40.1188 9.13303 40.1188H145.692C146.043 40.1137 146.378 39.9615 146.627 39.6957C146.875 39.4273 147.015 39.0664 147.02 38.6882C147.024 37.0013 147.648 35.3845 148.755 34.1914C149.862 32.9984 151.363 32.3267 152.928 32.3229C153.277 32.3216 153.612 32.1752 153.863 31.9138Z" fill="#646464"/>
<path d="M94.2964 49.7692C94.3003 49.9497 94.2685 50.1288 94.2031 50.2951C94.1376 50.4614 94.0401 50.6104 93.917 50.7331C93.6396 50.9803 93.2878 51.11 92.9278 51.0978C92.5637 51.11 92.2078 50.9803 91.9251 50.7331C91.8019 50.6104 91.7044 50.4614 91.639 50.2951C91.5735 50.1288 91.5417 49.9497 91.5457 49.7692H92.2367C92.2306 49.967 92.2934 50.1596 92.4129 50.3093C92.4819 50.378 92.5632 50.43 92.6519 50.4627C92.7405 50.4948 92.8344 50.5077 92.9278 50.4993L92.9724 50.5006C92.991 50.5006 93.0096 50.4993 93.0281 50.4974L93.0833 50.4897L93.1347 50.4781C93.1554 50.4724 93.1759 50.4659 93.1961 50.4582C93.2821 50.4255 93.3613 50.3754 93.4291 50.3093C93.4914 50.2373 93.5393 50.1519 93.5696 50.0588C93.5999 49.9664 93.6121 49.8675 93.6053 49.7692H94.2964Z" fill="#646464"/>
<path d="M94.066 51.711H94.8519V57.04H94.0118V53.1564L91.7218 57.04H90.8817V51.711H91.7218V55.6087L94.066 51.711Z" fill="#646464"/>
<path d="M5.04086 57.0393H4.16009V50.6451H0.880933V57.0393H0.000164534V49.8713H5.04086V57.0393Z" fill="#646464"/>
<path fill-rule="evenodd" clip-rule="evenodd" d="M6.57202 52.8643C6.36966 53.3189 6.27205 53.8197 6.28747 54.3238L6.34167 54.3822C6.30473 55.1059 6.52796 55.8174 6.96498 56.3677C7.16586 56.6174 7.4163 56.8158 7.69775 56.9468C7.97922 57.0785 8.2845 57.1401 8.59101 57.1273C9.00517 57.1343 9.41312 57.0181 9.76989 56.7915C10.1166 56.5596 10.3942 56.2251 10.5693 55.8276C10.7591 55.3685 10.8516 54.8702 10.8404 54.3681C10.8702 53.613 10.6273 52.8752 10.1628 52.3095C10.0319 52.1515 9.88148 52.0141 9.71626 51.9017C9.62237 51.8375 9.52368 51.7816 9.42105 51.7341C9.13782 51.6031 8.8314 51.5402 8.52326 51.5505C8.11173 51.5447 7.70735 51.6661 7.35794 51.9004C7.01257 52.1303 6.73886 52.4655 6.57202 52.8643ZM7.52054 55.9008C7.23517 55.4783 7.09613 54.9621 7.12758 54.4407C7.10986 53.9212 7.24762 53.4094 7.52054 52.9811C7.58151 52.8899 7.653 52.8077 7.73302 52.7365C7.80268 52.6748 7.87881 52.6215 7.9601 52.5779C8.13476 52.4835 8.32802 52.4366 8.52326 52.4404C8.72284 52.4327 8.92112 52.4783 9.10069 52.5727C9.28026 52.6665 9.43559 52.8071 9.55308 52.9811C9.83639 53.4043 9.97521 53.9199 9.94603 54.4407C9.95789 54.9576 9.82573 55.4661 9.56663 55.9008C9.53798 55.9432 9.50707 55.9837 9.47411 56.0222L9.43033 56.0704L9.37559 56.1243C9.31462 56.1808 9.24849 56.2309 9.17809 56.2733L9.11424 56.3092C8.93468 56.4036 8.73639 56.4486 8.53681 56.4409C8.33912 56.4486 8.14272 56.4036 7.96531 56.3092C7.7879 56.2148 7.63505 56.0748 7.52054 55.9008Z" fill="#646464"/>
<path d="M16.938 56.1057C16.7153 56.2977 16.4375 56.401 16.1521 56.3972C15.959 56.4203 15.7637 56.3908 15.5838 56.3118C15.4039 56.2328 15.2453 56.107 15.1222 55.9445C14.8512 55.5168 14.7267 55.0006 14.7699 54.485V54.3097C14.7322 53.794 14.8563 53.2803 15.1222 52.8495C15.2383 52.6845 15.3906 52.5522 15.5656 52.4655C15.7406 52.3788 15.9328 52.3403 16.125 52.3531C16.22 52.3499 16.3149 52.3595 16.4072 52.382C16.458 52.3949 16.508 52.4116 16.5568 52.4321C16.6943 52.4899 16.8194 52.5772 16.9244 52.6889C17.1429 52.9105 17.2739 53.2136 17.2903 53.5359H18.0897C18.092 53.2624 18.0414 52.9914 17.941 52.7397C17.8407 52.4886 17.6929 52.2626 17.5071 52.0757C17.1327 51.7219 16.6501 51.5293 16.1521 51.5357C15.7375 51.5248 15.3285 51.641 14.9732 51.8715C14.6424 52.1046 14.3794 52.4334 14.2144 52.8206C14.0196 53.2778 13.9268 53.778 13.9434 54.2808V54.4265C13.9083 55.1451 14.1206 55.852 14.5396 56.412C14.7404 56.656 14.9895 56.8486 15.2686 56.9751C15.5478 57.101 15.8497 57.1581 16.1521 57.142C16.482 57.1414 16.8071 57.056 17.1006 56.8935C17.392 56.7446 17.6438 56.5186 17.8323 56.2367C18.0016 55.9792 18.1003 55.6761 18.1168 55.3608H17.3174C17.3091 55.4725 17.284 55.5817 17.2433 55.6844C17.2309 55.7159 17.217 55.7467 17.2017 55.7769C17.1363 55.9053 17.0464 56.0171 16.938 56.1057Z" fill="#646464"/>
<path d="M21.0844 52.4559H22.7511L22.6833 51.711H18.6182V52.4559H20.2443V57.04H21.0844V52.4559Z" fill="#646464"/>
<path fill-rule="evenodd" clip-rule="evenodd" d="M26.4367 56.4852C26.4502 56.6746 26.4867 56.8608 26.5451 57.04L27.4123 56.9668C27.2803 56.5943 27.2203 56.1968 27.2362 55.7987V53.3465C27.2418 53.1083 27.2 52.872 27.1135 52.6524C27.027 52.4334 26.8979 52.2369 26.7348 52.0764C26.3532 51.7438 25.8698 51.5768 25.3798 51.6089C25.0394 51.6057 24.7022 51.6802 24.3906 51.8279C24.1434 51.9736 23.9302 52.1785 23.7673 52.4263C23.6043 52.6408 23.5136 52.9086 23.5099 53.186H24.3635C24.3631 53.0691 24.3902 52.9541 24.4424 52.8521C24.4945 52.75 24.57 52.6639 24.6616 52.6016C24.8804 52.427 25.1485 52.3396 25.4205 52.3538C25.562 52.3403 25.7046 52.3583 25.8396 52.4058C25.9058 52.4295 25.9695 52.4597 26.0299 52.4963C26.0927 52.5348 26.1518 52.5798 26.2064 52.6312C26.2444 52.6729 26.2789 52.7178 26.3096 52.7654C26.3524 52.8321 26.3879 52.9041 26.415 52.9805C26.4616 53.1108 26.4828 53.2502 26.4774 53.3901V53.8133H25.6508C25.0674 53.7728 24.4875 53.9366 23.9977 54.2808C23.827 54.4201 23.6865 54.598 23.586 54.8022C23.5655 54.8439 23.5468 54.8863 23.5298 54.9293C23.5154 54.9665 23.5023 55.0038 23.4905 55.0417L23.4774 55.086L23.4597 55.154C23.447 55.208 23.4369 55.2619 23.4294 55.3165C23.4229 55.3647 23.4184 55.4135 23.4159 55.4623C23.4043 55.6928 23.4394 55.9233 23.5188 56.1378C23.5982 56.3522 23.72 56.5455 23.8757 56.7041C24.2137 57.0059 24.6433 57.162 25.0817 57.142C25.337 57.1363 25.5886 57.0753 25.8214 56.9623C26.0542 56.8499 26.2635 56.6874 26.4367 56.4852ZM25.9489 56.1346C25.7175 56.2765 25.4562 56.3516 25.1901 56.3535H25.1495C24.8984 56.367 24.6517 56.2784 24.4584 56.1057C24.4107 56.0639 24.3683 56.0164 24.3318 55.9644L24.3165 55.9413L24.293 55.9028C24.2754 55.8719 24.2597 55.8392 24.2461 55.8058C24.1989 55.6889 24.1788 55.5611 24.1874 55.434C24.1874 54.7919 24.7023 54.4561 25.7457 54.4561H26.4638V55.5509C26.3464 55.7936 26.168 55.9959 25.9489 56.1346Z" fill="#646464"/>
<path fill-rule="evenodd" clip-rule="evenodd" d="M32.2498 56.3978C32.6181 55.8251 32.7993 55.1367 32.7647 54.4413L32.6698 54.354C32.7136 53.6386 32.5321 52.9291 32.1549 52.339C31.9979 52.1117 31.7935 51.9268 31.5581 51.8003C31.3227 51.6731 31.063 51.6076 30.7999 51.6089C30.5261 51.5954 30.2532 51.6513 30.0036 51.7733C29.7539 51.8953 29.5346 52.0789 29.3636 52.3101V51.711H28.5912V59.0986H29.472V56.5288C29.6544 56.7349 29.8759 56.8968 30.1214 57.0027C30.3669 57.108 30.6306 57.1562 30.8947 57.142C31.1594 57.144 31.4207 57.0772 31.6565 56.9475C31.8923 56.8184 32.0957 56.6296 32.2498 56.3978ZM31.5723 52.879C31.83 53.3137 31.9533 53.8249 31.9246 54.3392C31.9543 54.8741 31.8263 55.4058 31.5587 55.8572C31.4497 56.0215 31.3049 56.1538 31.137 56.2424C30.9692 56.3317 30.7836 56.3747 30.5966 56.3683C30.3579 56.3799 30.1211 56.3169 29.9145 56.1879C29.7079 56.0582 29.5402 55.8674 29.4313 55.6382V53.098C29.5373 52.8687 29.7021 52.6761 29.9062 52.5445C30.1103 52.4122 30.3452 52.3461 30.5831 52.3538C30.7754 52.3461 30.9664 52.3904 31.139 52.4822C31.3116 52.574 31.4605 52.7101 31.5723 52.879Z" fill="#646464"/>
<path d="M37.9409 51.711H37.0465L34.7295 55.6093V51.711H33.8758V57.04H34.8243L37.1007 53.1564V57.04H37.9409V51.711Z" fill="#646464"/>
<path d="M42.5209 57.04H43.361V51.711H42.426V54.0175H40.1496V51.711H39.2959V57.04H40.1767V54.7624H42.5209V57.04Z" fill="#646464"/>
<path d="M47.8461 57.04H48.6998L48.6862 51.711H47.8326V54.0175H45.5561V51.711H44.716V57.04H45.5697V54.7624H47.8461V57.04Z" fill="#646464"/>
<path fill-rule="evenodd" clip-rule="evenodd" d="M50.109 52.8643C49.9067 53.3195 49.8091 53.8204 49.8245 54.3244C49.797 55.0462 50.0191 55.7538 50.4478 56.3099C50.6514 56.5596 50.9042 56.7581 51.1879 56.8891C51.4715 57.0207 51.7789 57.0817 52.0874 57.0688C52.5013 57.074 52.9087 56.9578 53.2662 56.733C53.609 56.5006 53.8819 56.166 54.0522 55.7698C54.253 55.3139 54.3505 54.8137 54.3367 54.3097C54.3676 53.5828 54.1453 52.8694 53.7134 52.3095C53.3587 51.9081 52.8875 51.6487 52.3776 51.5742C51.8677 51.5004 51.3495 51.6153 50.9085 51.9011C50.5592 52.1297 50.2809 52.4649 50.109 52.8643ZM51.0575 55.9008C50.777 55.477 50.6428 54.9608 50.6781 54.4413C50.6564 53.9231 50.7894 53.4113 51.0575 52.9811C51.1729 52.8084 51.3259 52.6684 51.5031 52.5747C51.6803 52.4803 51.8763 52.4347 52.0738 52.4411C52.2732 52.4347 52.4711 52.4803 52.6505 52.5747C52.8298 52.6684 52.9853 52.8084 53.1036 52.9811C53.3821 53.4062 53.5161 53.9218 53.483 54.4413C53.501 54.9582 53.3683 55.4687 53.1036 55.9008C53.0631 55.9625 53.0179 56.0196 52.9684 56.0723L52.9236 56.1179L52.882 56.1558C52.8134 56.2155 52.7386 56.2668 52.6589 56.3092C52.4815 56.4036 52.285 56.4492 52.0874 56.4415C51.8878 56.4492 51.6895 56.4036 51.5099 56.3092C51.3304 56.2155 51.175 56.0748 51.0575 55.9008Z" fill="#646464"/>
<path d="M59.9465 51.711L58.2662 55.8424L56.5725 51.711H55.4749V57.04H56.315V53.0832L57.9546 57.04H58.5373L60.1362 53.1712V57.04H60.9763V51.711H59.9465Z" fill="#646464"/>
<path d="M65.1091 51.711L63.9573 55.7114L62.7378 51.711H61.8164L63.5779 56.9815L63.3882 57.5215C63.3318 57.7912 63.1935 58.0327 62.9953 58.208C62.7993 58.3479 62.566 58.4147 62.3313 58.3974H62.0874V59.2007H62.5617C63.2256 59.2007 63.7134 58.748 64.0251 57.8721L66.017 51.711H65.1091Z" fill="#646464"/>
<path d="M71.8707 56.105C71.6399 56.2919 71.3598 56.394 71.0712 56.3972C70.875 56.4267 70.675 56.4023 70.4901 56.3259C70.3052 56.2489 70.1414 56.123 70.0143 55.9593C69.7503 55.5278 69.6264 55.0141 69.662 54.4991V54.3238C69.6304 53.8088 69.754 53.297 70.0143 52.8643C70.132 52.7005 70.2846 52.5695 70.4592 52.4835C70.6338 52.3968 70.8252 52.357 71.017 52.3672C71.1014 52.364 71.1856 52.3717 71.2679 52.3891C71.3295 52.4026 71.3901 52.4218 71.4489 52.4469C71.5864 52.504 71.7115 52.592 71.8165 52.7031L71.8476 52.7326L71.8829 52.7679C71.967 52.8585 72.0375 52.9625 72.0914 53.0761C72.1589 53.2193 72.1991 53.3754 72.2095 53.5353H73.0089C73.0146 53.2611 72.9655 52.9888 72.865 52.7371C72.7645 52.4854 72.6148 52.2594 72.4263 52.0757C72.0519 51.7213 71.5693 51.5293 71.0712 51.5351C70.6571 51.528 70.2491 51.6442 69.8924 51.8709C69.5616 52.104 69.2986 52.4334 69.1336 52.8199C68.9435 53.2784 68.8553 53.7786 68.8761 54.2801V54.4259C68.8331 55.1457 69.0463 55.8559 69.4723 56.4113C69.6698 56.6566 69.9164 56.8492 70.1935 56.9757C70.4706 57.1022 70.7708 57.1587 71.0712 57.1414C71.4053 57.1395 71.7345 57.0547 72.0333 56.8935C72.3186 56.7407 72.5651 56.5147 72.7515 56.2367C72.9208 55.9792 73.0195 55.6754 73.036 55.3602H72.2366C72.225 55.5046 72.1866 55.6446 72.1238 55.773C72.0609 55.9008 71.9749 56.0138 71.8707 56.105Z" fill="#646464"/>
<path fill-rule="evenodd" clip-rule="evenodd" d="M75.1531 56.9738C75.4358 57.0971 75.7395 57.1542 76.0442 57.142C76.4158 57.16 76.785 57.0708 77.1138 56.8833C77.4426 56.6958 77.7189 56.4171 77.9141 56.0761L77.3992 55.6382C77.2478 55.8507 77.0591 56.0299 76.8437 56.1641C76.6113 56.2996 76.3491 56.3651 76.0849 56.3535C75.8912 56.3574 75.6991 56.3163 75.5214 56.2328C75.3438 56.15 75.1848 56.0267 75.055 55.8719C74.7705 55.5201 74.6162 55.068 74.6214 54.6018H77.9683V54.2223C78.0109 53.5186 77.8239 52.8219 77.4399 52.251C77.2543 52.0211 77.0223 51.8394 76.7616 51.7206C76.5009 51.6012 76.2185 51.5485 75.9358 51.5652C75.5449 51.5697 75.1636 51.6962 74.8382 51.93C74.5024 52.1714 74.2314 52.504 74.0523 52.8938C73.8634 53.3529 73.7709 53.8512 73.7813 54.3533V54.5286C73.7643 54.8734 73.8106 55.2189 73.9176 55.5445C74.0245 55.87 74.19 56.1699 74.4046 56.4267C74.6153 56.6643 74.8705 56.8505 75.1531 56.9738ZM75.4152 52.4655C75.5625 52.3981 75.7215 52.3647 75.8816 52.3679C76.0437 52.3647 76.2044 52.4026 76.3503 52.4783C76.4963 52.5547 76.6236 52.6671 76.7217 52.8058C76.953 53.1102 77.0777 53.4929 77.074 53.8865H74.5943C74.626 53.4717 74.7777 53.0787 75.0279 52.7622C75.136 52.635 75.268 52.5336 75.4152 52.4655Z" fill="#646464"/>
<path d="M83.4833 51.711L81.803 55.8424L80.1905 51.711H79.093V57.04H79.9466V53.0832L81.5049 57.04H82.1011L83.7001 53.1712V57.04H84.5402V51.711H83.4833Z" fill="#646464"/>
<path fill-rule="evenodd" clip-rule="evenodd" d="M87.0633 56.9751C87.3461 57.0984 87.65 57.1549 87.9549 57.1414C88.3225 57.1639 88.6892 57.0817 89.0176 56.9019C89.346 56.7227 89.6245 56.4524 89.8248 56.1198L89.2963 55.6819C89.1532 55.897 88.9683 56.0768 88.7543 56.2071C88.5219 56.3433 88.2597 56.4087 87.9955 56.3972C87.7996 56.403 87.6049 56.3625 87.4247 56.2797C87.2446 56.1962 87.0834 56.0723 86.9521 55.915C86.6725 55.5611 86.5231 55.1097 86.5321 54.6448H89.8519V54.2654C89.8944 53.5622 89.7075 52.8649 89.3234 52.2947C89.1373 52.0648 88.9051 51.8837 88.6446 51.7649C88.3841 51.6461 88.1019 51.5929 87.8194 51.6083C87.4284 51.6128 87.0471 51.7399 86.7218 51.9736C86.3979 52.2022 86.1361 52.5194 85.963 52.8931C85.7626 53.349 85.6651 53.8493 85.6784 54.3533V54.528C85.6632 54.8741 85.7117 55.2202 85.821 55.5457C85.9303 55.8713 86.0983 56.1705 86.3153 56.4261C86.5255 56.6643 86.7805 56.8512 87.0633 56.9751ZM87.3801 52.4655C87.4444 52.436 87.511 52.4128 87.579 52.3961C87.6665 52.375 87.7563 52.3653 87.8465 52.3672C88.0086 52.364 88.1692 52.4019 88.3152 52.4783C88.4612 52.5541 88.5884 52.6665 88.6866 52.8058C88.9121 53.1134 89.036 53.4935 89.0389 53.8859H86.5592C86.5909 53.4717 86.7426 53.0781 86.9928 52.7615C87.1008 52.6344 87.2329 52.5329 87.3801 52.4655Z" fill="#646464"/>
<path d="M100.272 57.04H99.459V54.7624H97.1961V57.04H96.3425V51.711H97.1961V54.0175H99.459V51.711H100.272V57.04Z" fill="#646464"/>
<path fill-rule="evenodd" clip-rule="evenodd" d="M101.437 54.3244C101.417 53.8178 101.52 53.315 101.735 52.8643C101.902 52.4661 102.176 52.1303 102.521 51.9011C102.962 51.6153 103.481 51.5004 103.99 51.5742C104.5 51.6487 104.972 51.9081 105.326 52.3095C105.758 52.8694 105.98 53.5828 105.95 54.3097C105.963 54.8137 105.866 55.3139 105.665 55.7698C105.495 56.166 105.222 56.5006 104.879 56.733C104.522 56.9597 104.114 57.0759 103.7 57.0688C103.394 57.083 103.088 57.022 102.806 56.8903C102.525 56.7587 102.274 56.5603 102.074 56.3099C101.634 55.7602 101.406 55.0494 101.437 54.3244ZM102.291 54.4413C102.263 54.9595 102.397 55.4732 102.67 55.9008C102.788 56.0748 102.943 56.2155 103.123 56.3092C103.302 56.4036 103.501 56.4492 103.7 56.4415C103.898 56.4505 104.095 56.4055 104.273 56.3111C104.45 56.2168 104.603 56.0761 104.717 55.9008C104.981 55.4687 105.114 54.9582 105.096 54.4413C105.129 53.9218 104.995 53.4062 104.717 52.9811C104.599 52.8071 104.444 52.6671 104.264 52.5727C104.085 52.4783 103.886 52.4334 103.687 52.4411C103.491 52.4327 103.296 52.4783 103.121 52.5727C102.946 52.6671 102.795 52.8077 102.684 52.9811C102.411 53.41 102.273 53.9218 102.291 54.4413Z" fill="#646464"/>
<path d="M109.852 55.8424L111.546 51.711H112.603V57.04H111.749V53.1712L110.15 57.04H109.568L107.928 53.0832V57.04H107.047V51.711H108.145L109.852 55.8424Z" fill="#646464"/>
<path d="M115.57 55.7114L116.722 51.711H117.63L115.638 57.8721C115.564 58.2362 115.38 58.5637 115.116 58.8039C114.851 59.044 114.52 59.1833 114.175 59.2007H113.7V58.3974H113.931C114.165 58.4147 114.399 58.3479 114.595 58.208C114.793 58.0327 114.931 57.7912 114.988 57.5215L115.177 56.9379L113.416 51.6673H114.337L115.57 55.7114Z" fill="#646464"/>
<path fill-rule="evenodd" clip-rule="evenodd" d="M124.879 54.4413C124.914 55.1367 124.733 55.8251 124.364 56.3978C124.21 56.6296 124.007 56.8184 123.771 56.9475C123.535 57.0772 123.274 57.144 123.009 57.142C122.757 57.1459 122.506 57.0932 122.273 56.9873C122.04 56.882 121.829 56.726 121.654 56.5288V59.0986H120.814V51.711H121.587V52.3101C121.758 52.0789 121.977 51.8953 122.227 51.7733C122.476 51.6513 122.749 51.5954 123.023 51.6089C123.286 51.6089 123.545 51.675 123.78 51.8015C124.016 51.9287 124.22 52.1123 124.378 52.339C124.755 52.9291 124.937 53.6386 124.893 54.354L124.879 54.4413ZM124.039 54.3392C124.068 53.8249 123.945 53.3137 123.687 52.879C123.575 52.7101 123.426 52.574 123.254 52.4822C123.081 52.3904 122.89 52.3461 122.698 52.3538C122.46 52.3461 122.225 52.4122 122.021 52.5445C121.817 52.6761 121.652 52.8687 121.546 53.098V55.6382C121.655 55.8674 121.823 56.0582 122.029 56.1879C122.236 56.3169 122.472 56.3799 122.711 56.3683C122.898 56.3747 123.084 56.3317 123.252 56.2424C123.419 56.1538 123.564 56.0215 123.673 55.8572C123.941 55.4058 124.069 54.8741 124.039 54.3392Z" fill="#646464"/>
<path fill-rule="evenodd" clip-rule="evenodd" d="M128.009 57.142C127.705 57.1542 127.401 57.0971 127.118 56.9738C126.836 56.8505 126.581 56.6643 126.37 56.4267C126.155 56.1699 125.99 55.87 125.883 55.5445C125.776 55.2189 125.73 54.8734 125.747 54.5286V54.3533C125.733 53.8493 125.831 53.349 126.031 52.8938C126.201 52.4976 126.474 52.1631 126.817 51.93C127.136 51.6943 127.514 51.5672 127.901 51.5652C128.184 51.5485 128.466 51.6012 128.727 51.7206C128.988 51.8394 129.22 52.0211 129.405 52.251C129.794 52.8199 129.986 53.5173 129.947 54.2223V54.6018H126.587C126.581 55.068 126.736 55.5201 127.02 55.8719C127.151 56.0286 127.313 56.1532 127.493 56.236C127.673 56.3195 127.868 56.3593 128.064 56.3535C128.328 56.3638 128.59 56.2983 128.822 56.1641C129.031 56.0254 129.215 55.8475 129.364 55.6382L129.879 56.0761C129.684 56.4171 129.408 56.6958 129.079 56.8833C128.75 57.0708 128.381 57.16 128.009 57.142ZM127.901 52.3679C127.741 52.3647 127.582 52.3981 127.435 52.4655C127.287 52.5336 127.155 52.635 127.047 52.7622C126.797 53.0787 126.645 53.4717 126.614 53.8865H129.093C129.094 53.4961 128.975 53.116 128.755 52.8058C128.654 52.6665 128.524 52.5547 128.376 52.4783C128.228 52.4026 128.065 52.3647 127.901 52.3679Z" fill="#646464"/>
<path d="M130.99 51.711H131.844V56.2951H134.148V51.711H135.001V56.2951H135.503L135.421 58.6311H134.663V57.04H130.99V51.711Z" fill="#646464"/>
<path fill-rule="evenodd" clip-rule="evenodd" d="M138.524 57.1414C138.22 57.1549 137.916 57.0984 137.633 56.9751C137.35 56.8518 137.095 56.6643 136.885 56.4261C136.668 56.1705 136.5 55.8713 136.391 55.5457C136.281 55.2202 136.233 54.8741 136.248 54.5286V54.3533C136.235 53.8493 136.332 53.349 136.533 52.8931C136.707 52.5002 136.979 52.1669 137.318 51.93C137.644 51.6962 138.025 51.5691 138.416 51.5646C138.698 51.5511 138.98 51.6057 139.24 51.7245C139.5 51.8433 139.733 52.0231 139.92 52.251C140.304 52.8212 140.491 53.5186 140.449 54.2217V54.6012H137.102C137.093 55.0661 137.242 55.5175 137.522 55.8713C137.653 56.0286 137.814 56.1525 137.994 56.236C138.174 56.3189 138.369 56.3593 138.565 56.3535C138.829 56.3651 139.091 56.2996 139.324 56.1635C139.535 56.0286 139.719 55.8501 139.866 55.6382L140.381 56.0761C140.19 56.4177 139.916 56.6977 139.589 56.8852C139.262 57.0733 138.894 57.162 138.524 57.1414ZM138.416 52.3679C138.256 52.364 138.097 52.3974 137.95 52.4655C137.802 52.5336 137.67 52.6344 137.562 52.7622C137.307 53.0749 137.155 53.4704 137.129 53.8859H139.568C139.565 53.4935 139.441 53.1134 139.215 52.8058C139.121 52.6723 139.001 52.5637 138.862 52.488C138.724 52.4122 138.571 52.3711 138.416 52.3679Z" fill="#646464"/>
<path d="M145.476 57.04H144.636V52.47H142.359V57.04H141.505V51.711H145.476V57.04Z" fill="#646464"/>
<path d="M150.516 52.4559H148.85V57.04H148.01V52.4559H146.343V51.711H150.408L150.516 52.4559Z" fill="#646464"/>
<path d="M153.01 55.7114L154.161 51.711H155.056L153.118 57.8721C152.806 58.748 152.319 59.2007 151.641 59.2007H151.167V58.3974H151.397C151.632 58.4167 151.866 58.3499 152.061 58.208C152.26 58.0307 152.402 57.7906 152.468 57.5215L152.657 56.9815L150.882 51.711H151.763L153.01 55.7114Z" fill="#646464"/>
<path d="M30.7729 27.7388C30.5791 28.1427 30.3475 28.5243 30.0818 28.8775C29.8672 29.2047 29.59 29.4785 29.2688 29.6805C28.8383 29.8659 28.3773 29.9553 27.9138 29.9433C27.1956 29.9433 26.0032 29.9433 25.0276 29.9433C24.5376 29.9344 24.0487 29.8905 23.5641 29.8119L23.1712 29.7389C22.9559 29.637 22.7752 29.4659 22.6539 29.2489C22.5326 29.0319 22.4766 28.7798 22.4937 28.5272C22.4937 27.0672 22.4937 23.6363 22.4937 22.1764C22.4937 22.0742 22.5885 21.9136 22.6427 21.9136H23.0357C23.0357 21.9136 23.0357 21.9136 23.1034 21.9136H25.6915C26.4233 21.9136 27.1143 21.9136 27.4937 21.9866C27.7626 21.99 28.0198 22.105 28.2119 22.3078C28.3532 22.4907 28.455 22.7051 28.51 22.9356C28.6148 23.327 28.6874 23.7276 28.7268 24.1327V24.2495C28.8184 24.3036 28.9205 24.3336 29.0249 24.3371C29.1256 24.3175 29.2221 24.2779 29.3095 24.2203C29.3095 23.4174 29.2417 22.4976 29.2417 21.3004C29.2511 20.3229 29.3235 19.3473 29.4585 18.3806C29.3001 18.2755 29.1158 18.2246 28.93 18.2346C28.93 18.4535 28.8352 18.6871 28.781 18.8915C28.7343 19.0997 28.6755 19.3045 28.6048 19.5047C28.5511 19.7474 28.4443 19.9726 28.2932 20.1617C28.1053 20.3623 27.853 20.4773 27.5886 20.4829C27.155 20.4829 26.491 20.5559 25.7999 20.5559C24.7159 20.5559 23.4422 20.5559 22.6563 20.5559C22.575 20.5559 22.5072 20.4245 22.5072 20.3369C22.5072 18.8769 22.5072 15.3731 22.5072 13.5919C22.5072 13.1394 22.9408 12.8912 23.3067 12.862H25.4747H27.7918C28.1583 12.862 28.5149 12.99 28.8081 13.227C29.0327 13.4626 29.1922 13.7608 29.2688 14.0883C29.2688 14.3219 29.3908 14.5847 29.445 14.8913C29.4992 15.1979 29.5534 15.5775 29.594 16.03C29.7324 16.0624 29.8757 16.0624 30.0141 16.03C30.1018 14.5585 30.2829 13.0951 30.5561 11.6502C30.5561 11.6502 30.4612 11.5334 30.4341 11.5042C29.8108 11.5918 28.2796 11.621 27.155 11.621H21.3148C19.9598 11.621 18.6048 11.5334 17.8459 11.5042C17.8306 11.6302 17.8306 11.7578 17.8459 11.8838C17.8015 12.0008 17.8015 12.1318 17.8459 12.2488L18.7267 12.4094C18.9509 12.4479 19.1727 12.5015 19.3907 12.57C19.5331 12.592 19.6695 12.6463 19.791 12.7294C19.9125 12.8124 20.0162 12.9223 20.0953 13.0518C20.2388 13.4018 20.3171 13.7788 20.3256 14.1613C20.3256 14.4533 20.3256 15.3147 20.3256 16.468C20.3256 17.6214 20.3256 19.0813 20.3256 20.5267C20.3256 24.1473 20.3256 27.6804 20.3256 28.2936C20.3285 28.7199 20.2355 29.1407 20.0546 29.5199C19.9755 29.6596 19.8691 29.779 19.7427 29.8698C19.6163 29.9606 19.473 30.0205 19.3229 30.0455C18.712 30.194 18.0914 30.2917 17.4665 30.3375H17.1007C17.0667 30.4911 17.0667 30.6511 17.1007 30.8047C17.0812 30.9254 17.0812 31.0489 17.1007 31.1696C18.2118 31.1696 19.5533 31.082 21.2877 31.082C24.3501 31.082 26.4775 31.2134 28.9572 31.2134C30.4341 31.2134 30.6103 31.0528 30.7864 30.7025C31.343 29.2935 31.7608 27.8255 32.0331 26.3226C31.8898 26.1951 31.7238 26.1007 31.5452 26.0452C31.3171 26.6247 31.0592 27.1901 30.7729 27.7388ZM52.0332 26.162C51.6969 26.7904 51.3306 27.3995 50.9357 27.987C50.6266 28.4632 50.2623 28.895 49.8516 29.2717C49.4602 29.6467 48.9979 29.9257 48.4966 30.0893C47.8893 30.2803 47.2593 30.3737 46.6267 30.3667C45.7693 30.3747 44.9156 30.2468 44.0928 29.9871C40.3529 28.9213 38.4965 25.1985 38.4965 20.9063C38.4965 16.614 39.96 13.7671 42.5616 12.6284C43.4683 12.1887 44.4536 11.9694 45.4478 11.986C46.1101 11.9847 46.7715 12.0384 47.4261 12.1466C47.9995 12.243 48.5565 12.43 49.0793 12.7014C49.5889 12.9251 50.0105 13.3328 50.2717 13.8547C50.6048 14.6983 50.8018 15.5969 50.8544 16.5118C50.9297 16.5342 51.0093 16.5342 51.0847 16.5118H51.4506C51.5506 14.8895 51.7452 13.2755 52.0332 11.6794C50.1037 11.348 48.1584 11.1335 46.2066 11.037C44.9076 11.0218 43.6128 11.1986 42.3583 11.5626C41.7253 11.7826 41.1129 12.0661 40.5291 12.4094C39.1054 13.2446 37.9236 14.4875 37.1144 16.0008C36.3002 17.6022 35.8803 19.4016 35.8949 21.2274C35.8266 22.6599 36.0319 24.0921 36.498 25.4356C36.9642 26.7791 37.6813 28.0052 38.6049 29.0381C39.9325 30.341 41.5866 31.194 43.3611 31.4908C45.6853 31.8779 48.0614 31.6729 50.2988 30.8923C51.3666 29.6864 52.1355 28.2103 52.5346 26.6C52.4939 26.4394 52.2365 26.2788 52.0332 26.162ZM74.4182 30.5419C74.4282 30.4938 74.4282 30.444 74.4182 30.3959C73.6991 30.3949 72.993 30.1883 72.3722 29.7973C72.072 29.5208 71.8315 29.177 71.6675 28.7899C71.532 28.4979 71.383 28.1622 71.2204 27.7388C70.1906 25.0963 66.9114 15.0373 66.3287 13.227C66.1366 12.6891 65.9781 12.138 65.8545 11.5772C65.7596 11.5772 65.4615 11.5772 64.8789 11.5772H63.9574C63.9208 11.7994 63.871 12.0188 63.8084 12.2342C63.7135 12.57 63.6051 12.935 63.4832 13.2854C63.1038 14.4825 62.0062 17.782 60.8544 21.0814C60.0414 23.432 59.2149 25.7825 58.5915 27.3884C58.3207 28.2688 57.8557 29.0653 57.2365 29.7097C56.591 30.1468 55.8444 30.3795 55.082 30.3813C55.0305 30.5254 55.0074 30.6796 55.0143 30.8339C54.9977 30.9646 54.9977 31.0972 55.0143 31.228C55.5969 31.228 56.4777 31.1258 58.0089 31.1258C59.5401 31.1258 61.1661 31.228 61.7894 31.228C61.8881 30.9592 61.9162 30.6662 61.8707 30.3813L61.2203 30.2791L60.5699 30.1331C60.3498 30.0843 60.139 29.9954 59.9466 29.8703C59.7738 29.798 59.6316 29.6601 59.5467 29.4826C59.4618 29.3051 59.4402 29.1003 59.4859 28.9067C59.9022 27.1494 60.4366 25.427 61.0848 23.7531C61.0848 23.6509 61.2609 23.4466 61.3694 23.4466H66.803C66.9656 23.4466 67.0605 23.6363 67.0876 23.6947C67.3586 24.4685 67.738 25.5927 68.0903 26.6146C68.4426 27.6366 68.6729 28.5125 68.8355 29.1549C68.8958 29.314 68.8958 29.4922 68.8355 29.6513C68.7412 29.7832 68.6266 29.8968 68.4968 29.9871C68.2583 30.0759 68.0136 30.1443 67.7651 30.1915C67.5076 30.1915 67.2095 30.2937 66.8979 30.3375C66.8621 30.466 66.8621 30.6031 66.8979 30.7317C66.8789 30.8769 66.8789 31.0244 66.8979 31.1696C67.5889 31.1696 69.3098 31.082 70.6919 31.082C72.074 31.082 73.5239 31.155 74.2963 31.1842C74.3741 30.9701 74.4154 30.7426 74.4182 30.5127V30.5419ZM66.4913 21.899H65.6648H61.952C61.8707 21.899 61.8436 21.7968 61.8436 21.68C62.2637 20.2201 63.1986 17.4754 63.7677 15.6943L64.12 14.6285C64.12 14.6014 64.13 14.5754 64.1478 14.5562C64.1656 14.5371 64.1897 14.5263 64.2149 14.5263C64.2401 14.5263 64.2642 14.5371 64.282 14.5562C64.2998 14.5754 64.3098 14.6014 64.3098 14.6285C64.3911 14.8475 64.4859 15.1541 64.5943 15.4753V15.6213L65.2989 17.855C65.7054 19.1689 66.139 20.5559 66.4236 21.5486C66.4295 21.5775 66.4295 21.6074 66.4236 21.6362C66.4549 21.67 66.4776 21.712 66.4895 21.758C66.5014 21.8041 66.502 21.8526 66.4913 21.899ZM93.2395 30.3667L92.3723 30.2499L91.7761 30.1185C91.4638 30.0607 91.1832 29.8782 90.9902 29.6075C90.7931 29.2133 90.695 28.7704 90.7056 28.3228C90.7056 27.9432 90.7056 26.6292 90.7056 25.1985C90.7056 23.7677 90.7056 22.483 90.7056 21.6508C90.7056 20.0595 90.7056 18.4681 90.7056 17.125C90.7056 15.7819 90.7056 14.5263 90.7056 14.0007C90.6988 13.6339 90.7931 13.2732 90.9766 12.9642C91.1794 12.7155 91.4496 12.5418 91.749 12.4678C91.9929 12.4678 92.8601 12.3072 93.104 12.2488C93.3479 12.1904 93.1989 11.9422 93.1853 11.767C93.1718 11.5918 93.1853 11.4896 93.0769 11.4896C92.3588 11.4896 90.8953 11.5772 90.0552 11.5772H85.9902C82.0877 11.5772 79.8112 13.5627 79.6622 16.468C79.6557 16.5506 79.6557 16.6336 79.6622 16.7162C79.6224 17.942 80.009 19.1395 80.7462 20.0741C81.2532 20.6948 81.8767 21.1924 82.5755 21.534C83.1235 21.7507 83.6996 21.8738 84.2828 21.899H84.1067C83.0136 22.1446 82.0107 22.728 81.2205 23.5779C79.3904 25.6136 77.8185 27.9012 76.5456 30.3813C76.0597 31.2914 75.5165 32.1646 74.9196 32.9946C74.5809 33.5884 74.1037 34.0761 73.5354 34.4092C72.9672 34.7422 72.3278 34.9088 71.6811 34.8925C72.6432 36.0896 75.3261 35.8707 76.505 35.2429C77.0689 34.92 77.563 34.4722 77.9549 33.9289C78.2801 33.5201 79.4318 31.4616 79.4318 31.4616C81.356 27.9286 84.4183 22.337 87.1013 22.3662H88.1853C88.2666 22.3662 88.2937 22.3662 88.2937 22.4684C88.2937 24.1911 88.2937 27.3592 88.2937 28.4688C88.2937 29.1695 88.1582 29.5199 87.9143 29.7535C87.742 29.9273 87.5325 30.0527 87.3045 30.1185C86.8587 30.2315 86.4058 30.3096 85.9495 30.3521H85.7598C85.692 30.5857 85.7598 31.1112 85.8682 31.1988C86.478 31.1988 87.982 31.0966 89.581 31.0966C90.8411 31.0966 92.5485 31.1842 93.2531 31.1988C93.2703 31.073 93.2703 30.9451 93.2531 30.8193C93.2958 30.6719 93.2958 30.514 93.2531 30.3667H93.2395ZM88.1446 21.2858H87.9143C86.6574 21.3316 85.4097 21.0406 84.2828 20.4391C83.6329 20.0456 83.1011 19.4597 82.7505 18.7508C82.3999 18.0418 82.2451 17.2396 82.3045 16.4388C82.279 15.9031 82.3561 15.3674 82.531 14.8651C82.7058 14.3628 82.9746 13.9046 83.3208 13.5189C84.1165 12.7823 85.1458 12.4056 86.1934 12.4678C86.5455 12.4474 86.8983 12.4474 87.2503 12.4678C87.4627 12.4898 87.6719 12.5389 87.8736 12.6138C87.9769 12.6564 88.0651 12.7329 88.1259 12.8325C88.1866 12.932 88.2169 13.0495 88.2124 13.1686C88.2801 14.4095 88.2124 18.8915 88.2937 21.0376C88.2997 21.0645 88.3005 21.0924 88.2961 21.1197C88.2918 21.1469 88.2824 21.1729 88.2684 21.1961C88.2545 21.2193 88.2364 21.2392 88.2151 21.2546C88.1938 21.2701 88.1698 21.2807 88.1446 21.2858ZM115.326 30.0455C115.08 29.9757 114.868 29.8089 114.73 29.5783C114.584 29.2701 114.5 28.9315 114.486 28.5855C114.486 28.0308 114.486 15.4461 114.486 14.3219C114.488 13.9191 114.552 13.5194 114.676 13.1394C114.744 13.0071 114.837 12.8919 114.949 12.8012C115.061 12.7106 115.19 12.6467 115.326 12.6138C115.542 12.5332 115.764 12.4745 115.99 12.4386L116.844 12.2926C116.874 12.1632 116.874 12.0278 116.844 11.8984C116.858 11.7772 116.858 11.6546 116.844 11.5334C116.153 11.5334 114.744 11.621 113.497 11.621C111.925 11.621 110.489 11.5042 109.798 11.5042C109.733 11.6245 109.692 11.7581 109.678 11.8964C109.664 12.0347 109.677 12.1747 109.717 12.3072L110.503 12.4386C110.755 12.4876 111.004 12.5559 111.248 12.643C111.476 12.7386 111.676 12.8991 111.826 13.1073C111.976 13.3155 112.072 13.5637 112.101 13.8255C112.101 14.9643 112.101 18.5557 112.101 20.2201C112.101 20.2201 112.007 20.4099 111.925 20.4099C111.844 20.4099 102.86 20.4099 102.44 20.4099C102.02 20.4099 101.898 20.4099 101.898 20.0595C101.898 19.1397 101.898 18.366 101.898 17.709C101.898 16.0008 101.898 14.9205 101.898 14.0591C101.877 13.6907 101.947 13.3228 102.101 12.9934C102.255 12.7668 102.483 12.6105 102.738 12.5554C103.023 12.4824 103.484 12.3948 103.958 12.3072H104.134C104.246 12.1786 104.317 12.015 104.337 11.84C104.345 11.7136 104.345 11.5868 104.337 11.4604C103.565 11.4604 102.671 11.548 100.855 11.548C99.2559 11.548 97.7789 11.4604 97.0743 11.4604C96.9669 11.7011 96.9382 11.9738 96.993 12.2342H97.2775C97.7353 12.2953 98.1882 12.3929 98.6325 12.5262C98.924 12.6406 99.1755 12.8493 99.3526 13.1238C99.5297 13.3982 99.6237 13.7249 99.6217 14.0591C99.6217 14.6285 99.6217 26.5562 99.6217 27.6366C99.5404 29.0089 99.2016 29.7973 98.4157 30.0455C98.1447 30.1185 97.264 30.2645 96.9659 30.3083C96.875 30.587 96.875 30.8909 96.9659 31.1696C97.5621 31.1696 99.1474 31.0674 100.895 31.0674C102.643 31.0674 103.89 31.155 104.54 31.1696C104.662 31.1696 104.757 30.3521 104.608 30.3229C102.901 30.0455 102.427 29.8703 102.142 29.3739C101.992 28.9912 101.922 28.5773 101.939 28.1622C101.939 27.8264 101.939 26.7022 101.939 25.4905V22.0596C101.939 22.0596 101.939 21.8552 102.047 21.8552H111.966C112.047 21.8552 112.142 21.9866 112.142 22.0888C112.142 24.0889 112.142 27.5782 112.142 28.5126C112.142 29.4469 111.912 29.8119 111.383 29.9725C111.288 29.9725 110.652 30.1915 110.381 30.2353C110.143 30.2823 109.903 30.3164 109.662 30.3375C109.565 30.62 109.565 30.9309 109.662 31.2134C110.421 31.2134 111.898 31.1112 113.402 31.1112C114.906 31.1112 116.112 31.1842 117.074 31.2134C117.131 31.0959 117.164 30.9663 117.169 30.8339C117.201 30.6849 117.201 30.5302 117.169 30.3813C116.544 30.3375 115.925 30.215 115.326 30.0163V30.0455ZM136.248 21.0376C135.186 20.1587 133.888 19.6768 132.549 19.6653L128.904 19.7675C128.889 19.7752 128.873 19.7793 128.856 19.7793C128.84 19.7793 128.824 19.7752 128.809 19.7675C128.798 19.7345 128.798 19.6983 128.809 19.6653C128.809 16.8768 128.809 15.4899 128.809 14.1467C128.784 13.7655 128.849 13.3836 128.999 13.0372C129.164 12.7904 129.412 12.6228 129.69 12.57L130.313 12.4386C130.557 12.4386 130.814 12.351 131.126 12.3218C131.154 12.1823 131.154 12.0379 131.126 11.8984C131.141 11.7675 131.141 11.6351 131.126 11.5042C130.34 11.5042 129.256 11.621 127.928 11.621H123.863C123.233 11.636 122.604 11.5574 121.993 11.3874L121.41 11.2268C121.343 11.2268 121.261 11.3144 121.261 11.3436C121.261 12.5116 120.882 15.1249 120.652 16.4534C120.652 16.4534 120.828 16.614 120.99 16.6724H121.153C121.379 16.0008 121.596 15.4023 121.803 14.8767C121.96 14.4295 122.155 13.9994 122.386 13.5919C122.495 13.3726 122.653 13.1866 122.847 13.0518C123.038 12.9175 123.257 12.8371 123.484 12.8182H124.839H126.058H126.451C126.515 12.8434 126.571 12.8865 126.614 12.9429C126.657 12.9994 126.685 13.0672 126.695 13.1394C126.695 15.1395 126.695 18.5411 126.695 21.2128C126.695 24.6145 126.695 27.4468 126.614 28.5126C126.533 29.5783 126.343 29.9725 125.692 30.1331C125.543 30.1331 124.243 30.4251 123.728 30.4689C123.638 30.7528 123.638 31.0609 123.728 31.3448C125.598 31.3448 129.148 31.4324 130.503 31.4324C131.018 31.4324 131.505 31.4324 131.98 31.4324H132.237C132.958 31.2786 133.656 31.0182 134.31 30.6587C135.352 30.1704 136.238 29.3633 136.858 28.3374C137.468 27.3318 137.785 26.1518 137.766 24.9503C137.796 24.2136 137.676 23.4788 137.413 22.7976C137.151 22.1165 136.753 21.5057 136.248 21.0084V21.0376ZM132.63 30.1185C132.28 30.2095 131.92 30.2536 131.56 30.2499C131.131 30.2436 130.704 30.1898 130.286 30.0893C129.964 30.0184 129.656 29.8848 129.378 29.6951C129.202 29.5617 129.062 29.3803 128.972 29.1695C128.892 28.9648 128.842 28.7482 128.822 28.5272C128.822 27.8556 128.822 26.5124 128.822 25.0817C128.822 23.6509 128.822 22.1618 128.822 21.1106C128.814 21.0624 128.814 21.0129 128.822 20.9647C128.822 20.9647 128.822 20.8917 128.917 20.8917H129.554H130.462C130.828 20.8681 131.194 20.8681 131.56 20.8917C134.365 21.1252 135.625 22.8626 135.625 25.7679C135.503 28.2936 134.622 29.8411 132.63 30.0893V30.1185Z" fill="white"/>
</svg>
