<svg id="Layer_1" data-name="Layer 1" xmlns="http://www.w3.org/2000/svg" xmlns:xlink="http://www.w3.org/1999/xlink" viewBox="0 0 115.39 40.55">
  <defs>
    <radialGradient id="radial-gradient" cx="113.25" cy="2.13" r="2.13" gradientUnits="userSpaceOnUse">
      <stop offset="0" stop-color="#b34a2a"/>
      <stop offset="1" stop-color="#891b1b"/>
    </radialGradient>
    <radialGradient id="radial-gradient-2" cx="57.13" cy="14.6" r="41.48" xlink:href="#radial-gradient"/>
  </defs>
  <path d="M3.72,39.07H3.07V34.69H.65v4.38H0V34.16H3.72Z" style="fill: #939598"/>
  <path d="M4.64,37.21a2.15,2.15,0,0,1,.21-1,1.5,1.5,0,0,1,.58-.66,1.59,1.59,0,0,1,.86-.24,1.56,1.56,0,0,1,1.21.52A2,2,0,0,1,8,37.24v0a2.32,2.32,0,0,1-.2,1,1.57,1.57,0,0,1-.59.66,1.66,1.66,0,0,1-.87.23,1.51,1.51,0,0,1-1.2-.52,1.93,1.93,0,0,1-.46-1.36Zm.62.08a1.53,1.53,0,0,0,.29,1,.88.88,0,0,0,.75.37.9.9,0,0,0,.76-.37,1.77,1.77,0,0,0,.28-1,1.55,1.55,0,0,0-.29-1,.9.9,0,0,0-.76-.37.89.89,0,0,0-.74.37A1.66,1.66,0,0,0,5.26,37.29Z" style="fill: #939598"/>
  <path d="M11.92,38.63a.91.91,0,0,0,.58-.2.71.71,0,0,0,.28-.51h.59a1.15,1.15,0,0,1-.21.6,1.41,1.41,0,0,1-.54.45,1.54,1.54,0,0,1-.7.17,1.49,1.49,0,0,1-1.19-.5,2,2,0,0,1-.44-1.36v-.1a2.21,2.21,0,0,1,.2-1,1.55,1.55,0,0,1,.56-.65,1.61,1.61,0,0,1,.87-.23,1.49,1.49,0,0,1,1,.37,1.35,1.35,0,0,1,.43,1h-.59a.86.86,0,0,0-.27-.58.8.8,0,0,0-.59-.23.86.86,0,0,0-.74.34,1.58,1.58,0,0,0-.26,1v.12a1.53,1.53,0,0,0,.26,1A.86.86,0,0,0,11.92,38.63Z" style="fill: #939598"/>
  <path d="M16.79,35.93H15.56v3.14h-.62V35.93h-1.2v-.51h3Z" style="fill: #939598"/>
  <path d="M19.59,39.07a1.49,1.49,0,0,1-.08-.38,1.4,1.4,0,0,1-1,.45,1.31,1.31,0,0,1-.89-.3,1.09,1.09,0,0,1,.09-1.66,2,2,0,0,1,1.22-.32h.61v-.29a.7.7,0,0,0-.2-.52.78.78,0,0,0-.58-.19.87.87,0,0,0-.56.17.47.47,0,0,0-.22.4h-.63a.84.84,0,0,1,.19-.52A1.37,1.37,0,0,1,18,35.5a1.77,1.77,0,0,1,.73-.15,1.45,1.45,0,0,1,1,.32,1.14,1.14,0,0,1,.37.87v1.68a2,2,0,0,0,.13.8v0Zm-1-.47a1.15,1.15,0,0,0,.56-.15,1,1,0,0,0,.38-.4V37.3H19c-.77,0-1.15.23-1.15.67a.54.54,0,0,0,.2.46A.74.74,0,0,0,18.56,38.6Z" style="fill: #939598"/>
  <path d="M24.18,37.29a2.15,2.15,0,0,1-.38,1.34,1.22,1.22,0,0,1-1,.51,1.36,1.36,0,0,1-1.05-.42v1.76H21.1V35.42h.57l0,.41a1.28,1.28,0,0,1,1.06-.48,1.24,1.24,0,0,1,1,.5,2.18,2.18,0,0,1,.38,1.38Zm-.62-.07a1.67,1.67,0,0,0-.26-1,.86.86,0,0,0-.73-.36.92.92,0,0,0-.85.51v1.74a.92.92,0,0,0,.86.5.84.84,0,0,0,.71-.35A1.74,1.74,0,0,0,23.56,37.22Z" style="fill: #939598"/>
  <path d="M27.34,35.42H28v3.65h-.62V36.41l-1.68,2.66H25V35.42h.63v2.67Z" style="fill: #939598"/>
  <path d="M32,39.07h-.62V37.51H29.65v1.56H29V35.42h.63V37h1.68V35.42H32Z" style="fill: #939598"/>
  <path d="M35.94,39.07h-.63V37.51H33.63v1.56H33V35.42h.62V37h1.68V35.42h.63Z" style="fill: #939598"/>
  <path d="M36.77,37.21a2.15,2.15,0,0,1,.21-1,1.52,1.52,0,0,1,.59-.66,1.67,1.67,0,0,1,2.07.28,2,2,0,0,1,.46,1.37v0a2.18,2.18,0,0,1-.21,1,1.55,1.55,0,0,1-.58.66,1.69,1.69,0,0,1-.87.23,1.53,1.53,0,0,1-1.21-.52,2,2,0,0,1-.46-1.36Zm.63.08a1.53,1.53,0,0,0,.28,1,.9.9,0,0,0,.76.37.88.88,0,0,0,.75-.37,1.7,1.7,0,0,0,.28-1,1.55,1.55,0,0,0-.28-1,.91.91,0,0,0-.76-.37.89.89,0,0,0-.75.37A1.66,1.66,0,0,0,37.4,37.29Z" style="fill: #939598"/>
  <path d="M43,38.25l1.24-2.83H45v3.65h-.62V36.42L43.2,39.07h-.43l-1.21-2.71v2.71h-.62V35.42h.81Z" style="fill: #939598"/>
  <path d="M47.2,38.16l.85-2.74h.67l-1.47,4.22c-.23.6-.59.91-1.08.91h-.12l-.23,0V40H46a.79.79,0,0,0,.49-.13.85.85,0,0,0,.29-.47l.14-.37-1.3-3.61h.68Z" style="fill: #939598"/>
  <path d="M52.45,38.63a1,1,0,0,0,.59-.2.74.74,0,0,0,.27-.51h.59a1.15,1.15,0,0,1-.21.6,1.45,1.45,0,0,1-.53.45,1.61,1.61,0,0,1-.71.17,1.46,1.46,0,0,1-1.18-.5,1.94,1.94,0,0,1-.44-1.36v-.1a2.21,2.21,0,0,1,.19-1,1.55,1.55,0,0,1,.56-.65,1.66,1.66,0,0,1,.87-.23,1.49,1.49,0,0,1,1,.37,1.31,1.31,0,0,1,.43,1h-.59A.82.82,0,0,0,53,36.1a.8.8,0,0,0-.59-.23.88.88,0,0,0-.74.34,1.64,1.64,0,0,0-.26,1v.12a1.6,1.6,0,0,0,.26,1A.86.86,0,0,0,52.45,38.63Z" style="fill: #939598"/>
  <path d="M56.12,39.14a1.59,1.59,0,0,1-1.21-.49,1.8,1.8,0,0,1-.46-1.3v-.12a2.34,2.34,0,0,1,.2-1,1.7,1.7,0,0,1,.58-.66,1.41,1.41,0,0,1,.81-.25,1.37,1.37,0,0,1,1.11.47,2.07,2.07,0,0,1,.39,1.35v.26H55.07a1.3,1.3,0,0,0,.32.87,1,1,0,0,0,.76.33,1.08,1.08,0,0,0,.56-.13,1.4,1.4,0,0,0,.41-.36l.38.3A1.54,1.54,0,0,1,56.12,39.14ZM56,35.87a.83.83,0,0,0-.63.27,1.36,1.36,0,0,0-.32.77h1.83v0a1.15,1.15,0,0,0-.26-.74A.76.76,0,0,0,56,35.87Z" style="fill: #939598"/>
  <path d="M60.37,38.25l1.24-2.83h.78v3.65h-.62V36.42l-1.18,2.65h-.44L59,36.36v2.71h-.63V35.42h.81Z" style="fill: #939598"/>
  <path d="M64.91,39.14a1.58,1.58,0,0,1-1.21-.49,1.8,1.8,0,0,1-.47-1.3v-.12a2.19,2.19,0,0,1,.21-1A1.62,1.62,0,0,1,64,35.6a1.41,1.41,0,0,1,.81-.25,1.38,1.38,0,0,1,1.11.47,2.07,2.07,0,0,1,.39,1.35v.26H63.86a1.3,1.3,0,0,0,.31.87,1,1,0,0,0,.77.33,1.08,1.08,0,0,0,.56-.13,1.25,1.25,0,0,0,.4-.36l.39.3A1.54,1.54,0,0,1,64.91,39.14Zm-.08-3.27a.83.83,0,0,0-.63.27,1.36,1.36,0,0,0-.32.77h1.83v0a1.21,1.21,0,0,0-.26-.74A.76.76,0,0,0,64.83,35.87Z" style="fill: #939598"/>
  <path d="M69.42,35.42H70v3.65h-.62V36.41l-1.69,2.66h-.62V35.42h.62v2.67Zm.17-1.33a.87.87,0,0,1-.28.66,1.09,1.09,0,0,1-.73.25,1.12,1.12,0,0,1-.74-.25.87.87,0,0,1-.28-.66h.51a.54.54,0,0,0,.13.37.5.5,0,0,0,.38.13.51.51,0,0,0,.37-.13.49.49,0,0,0,.13-.37Z" style="fill: #939598"/>
  <path d="M74,39.07H73.4V37.51H71.73v1.56H71.1V35.42h.63V37H73.4V35.42H74Z" style="fill: #939598"/>
  <path d="M74.86,37.21a2,2,0,0,1,.22-1,1.5,1.5,0,0,1,.58-.66,1.67,1.67,0,0,1,2.07.28,2,2,0,0,1,.46,1.37v0a2.18,2.18,0,0,1-.21,1,1.55,1.55,0,0,1-.58.66,1.66,1.66,0,0,1-.87.23,1.5,1.5,0,0,1-1.2-.52,1.94,1.94,0,0,1-.47-1.36Zm.63.08a1.6,1.6,0,0,0,.28,1,.9.9,0,0,0,.76.37.87.87,0,0,0,.75-.37,1.7,1.7,0,0,0,.28-1,1.55,1.55,0,0,0-.28-1,.9.9,0,0,0-.76-.37.86.86,0,0,0-.74.37A1.66,1.66,0,0,0,75.49,37.29Z" style="fill: #939598"/>
  <path d="M81.07,38.25l1.25-2.83h.78v3.65h-.63V36.42l-1.18,2.65h-.43l-1.21-2.71v2.71H79V35.42h.81Z" style="fill: #939598"/>
  <path d="M85.29,38.16l.85-2.74h.67l-1.47,4.22a1.16,1.16,0,0,1-1.08.91h-.12l-.23,0V40h.17a.79.79,0,0,0,.49-.13.85.85,0,0,0,.29-.47L85,39l-1.3-3.61h.68Z" style="fill: #939598"/>
  <path d="M92.16,37.29a2.15,2.15,0,0,1-.38,1.34,1.22,1.22,0,0,1-1,.51,1.36,1.36,0,0,1-1-.42v1.76h-.62V35.42h.57l0,.41a1.28,1.28,0,0,1,1.06-.48,1.25,1.25,0,0,1,1,.5,2.18,2.18,0,0,1,.38,1.38Zm-.62-.07a1.67,1.67,0,0,0-.26-1,.86.86,0,0,0-.73-.36.92.92,0,0,0-.85.51v1.74a.92.92,0,0,0,.86.5.84.84,0,0,0,.71-.35A1.74,1.74,0,0,0,91.54,37.22Z" style="fill: #939598"/>
  <path d="M94.47,39.14a1.59,1.59,0,0,1-1.21-.49,1.8,1.8,0,0,1-.46-1.3v-.12a2.19,2.19,0,0,1,.21-1,1.55,1.55,0,0,1,.58-.66,1.35,1.35,0,0,1,.8-.25,1.37,1.37,0,0,1,1.11.47,2.07,2.07,0,0,1,.4,1.35v.26H93.42a1.3,1.3,0,0,0,.32.87,1,1,0,0,0,.77.33,1.1,1.1,0,0,0,.56-.13,1.5,1.5,0,0,0,.4-.36l.38.3A1.54,1.54,0,0,1,94.47,39.14Zm-.08-3.27a.83.83,0,0,0-.63.27,1.36,1.36,0,0,0-.32.77h1.83v0a1.21,1.21,0,0,0-.25-.74A.78.78,0,0,0,94.39,35.87Z" style="fill: #939598"/>
  <path d="M96.67,35.42h.63v3.14H99V35.42h.63v3.14H100l-.06,1.6h-.56V39.07H96.67Z" style="fill: #939598"/>
  <path d="M102.23,39.14a1.58,1.58,0,0,1-1.21-.49,1.8,1.8,0,0,1-.47-1.3v-.12a2.19,2.19,0,0,1,.21-1,1.62,1.62,0,0,1,.58-.66,1.5,1.5,0,0,1,1.92.22,2.07,2.07,0,0,1,.39,1.35v.26h-2.47a1.3,1.3,0,0,0,.31.87,1,1,0,0,0,.77.33,1.08,1.08,0,0,0,.56-.13,1.37,1.37,0,0,0,.4-.36l.38.3A1.51,1.51,0,0,1,102.23,39.14Zm-.08-3.27a.83.83,0,0,0-.63.27,1.3,1.3,0,0,0-.32.77H103v0a1.21,1.21,0,0,0-.26-.74A.76.76,0,0,0,102.15,35.87Z" style="fill: #939598"/>
  <path d="M107.36,39.07h-.62V35.94h-1.68v3.13h-.63V35.42h2.93Z" style="fill: #939598"/>
  <path d="M111.08,35.93h-1.23v3.14h-.62V35.93H108v-.51h3Z" style="fill: #939598"/>
  <path d="M112.92,38.16l.85-2.74h.66L113,39.64c-.23.6-.59.91-1.09.91h-.12l-.23,0V40h.17a.77.77,0,0,0,.49-.13.91.91,0,0,0,.3-.47l.14-.37-1.31-3.61H112Z" style="fill: #939598"/>
  <path d="M114.76.62A2.13,2.13,0,0,0,113.25,0a2.1,2.1,0,0,0-1.5.62,2.11,2.11,0,0,0-.63,1.51,2.08,2.08,0,0,0,.63,1.51,2.07,2.07,0,0,0,1.5.63,2.09,2.09,0,0,0,1.51-.63,2.12,2.12,0,0,0,0-3Zm-.3,2.72A1.7,1.7,0,1,1,112.05.93a1.7,1.7,0,0,1,2.41,0,1.7,1.7,0,0,1,0,2.41Zm-.71-1a.66.66,0,0,0,.21-.15.69.69,0,0,0,.19-.48.7.7,0,0,0-.11-.38.62.62,0,0,0-.3-.26,1.28,1.28,0,0,0-.48-.07H112.2V3.32h.57V2.4h.28a.2.2,0,0,1,.08,0,.43.43,0,0,1,.1.1l.19.28.32.5h.69l-.5-.8A1.54,1.54,0,0,0,113.75,2.29Zm-.22-.52a.12.12,0,0,1-.08.06.59.59,0,0,1-.24,0h-.44V1.48h.5a.43.43,0,0,1,.24.05.17.17,0,0,1,0,.14A.19.19,0,0,1,113.53,1.77Z" style="fill: url(#radial-gradient)"/>
  <path d="M113.84,7h0a1.37,1.37,0,0,0-1-.41,4,4,0,0,1-2.78-1.16,3.91,3.91,0,0,1-1.15-2.77,1.41,1.41,0,0,0-.42-1h0a1.4,1.4,0,0,0-1-.41H6.74a1.4,1.4,0,0,0-1,.41h0a1.4,1.4,0,0,0-.41,1A3.92,3.92,0,0,1,4.18,5.45,3.92,3.92,0,0,1,1.41,6.61,1.4,1.4,0,0,0,.41,7h0A1.38,1.38,0,0,0,0,8V21.23a1.4,1.4,0,0,0,1.41,1.36,3.88,3.88,0,0,1,2.77,1.16,3.92,3.92,0,0,1,1.16,2.77,1.4,1.4,0,0,0,1.4,1.4H107.51a1.36,1.36,0,0,0,1-.41h0a1.37,1.37,0,0,0,.42-1,3.94,3.94,0,0,1,3.93-3.93,1.42,1.42,0,0,0,1-.41h0a1.44,1.44,0,0,0,.41-1V8A1.42,1.42,0,0,0,113.84,7Zm0,14.16a1,1,0,0,1-.29.7,1,1,0,0,1-.69.28,4.37,4.37,0,0,0-4.36,4.36,1,1,0,0,1-.29.69,1,1,0,0,1-.69.29H6.74a1,1,0,0,1-1-1,4.37,4.37,0,0,0-4.35-4.36,1,1,0,0,1-.7-.28,1,1,0,0,1-.28-.7V8a1,1,0,0,1,.28-.69h0A1,1,0,0,1,1.41,7,4.34,4.34,0,0,0,4.48,5.75,4.34,4.34,0,0,0,5.76,2.68,1,1,0,0,1,6.05,2a1,1,0,0,1,.69-.28H107.51a1,1,0,0,1,1,1A4.37,4.37,0,0,0,112.85,7a1,1,0,0,1,1,1Zm-1-13.49a5,5,0,0,1-3.54-1.47,5,5,0,0,1-1.48-3.54.32.32,0,0,0-.32-.32H6.74a.32.32,0,0,0-.32.32A5,5,0,0,1,5,6.22,5,5,0,0,1,1.41,7.69.32.32,0,0,0,1.09,8V21.18a.32.32,0,0,0,.32.32A5,5,0,0,1,5,23a5,5,0,0,1,1.47,3.54.32.32,0,0,0,.32.32H107.51a.32.32,0,0,0,.32-.32,5.05,5.05,0,0,1,5-5,.32.32,0,0,0,.32-.32V8A.33.33,0,0,0,112.85,7.69Z" style="fill: url(#radial-gradient-2)"/>
  <path d="M22.71,19a4.58,4.58,0,0,1-.51.78,1.92,1.92,0,0,1-.6.55,2.53,2.53,0,0,1-1,.18h0c-.53,0-1.41,0-2.13,0a8.19,8.19,0,0,1-1.08-.09h0l-.29-.05a.84.84,0,0,1-.5-.83c0-1,0-3.35,0-4.35,0-.07.07-.18.11-.18h.29s0,0,.05,0h1.91c.54,0,1.05,0,1.33.05a.77.77,0,0,1,.53.22,1.1,1.1,0,0,1,.22.43,4.74,4.74,0,0,1,.16.82v.08a.49.49,0,0,0,.22.06.61.61,0,0,0,.21-.08c0-.55-.05-1.18-.05-2a14.45,14.45,0,0,1,.16-2,.68.68,0,0,0-.39-.1h0c0,.15-.07.31-.11.45a3.49,3.49,0,0,1-.13.42,1.07,1.07,0,0,1-.23.45.76.76,0,0,1-.52.22c-.32,0-.81.05-1.32.05-.8,0-1.74,0-2.32,0-.06,0-.11-.09-.11-.15,0-1,0-3.4,0-4.62,0-.31.32-.48.59-.5l1.6,0,1.71,0h0a1.25,1.25,0,0,1,.75.25,1.25,1.25,0,0,1,.34.59h0c0,.16.09.34.13.55s.08.47.11.78a.73.73,0,0,0,.31,0h0l0,0a22.14,22.14,0,0,1,.4-3s-.07-.08-.09-.1c-.46.06-1.59.08-2.42.08H15.73c-1,0-2-.06-2.56-.08a1,1,0,0,0,0,.26.33.33,0,0,0,0,.25l.65.11a4,4,0,0,1,.49.11.75.75,0,0,1,.52.33A2,2,0,0,1,15,9.7c0,.2,0,.79,0,1.58s0,1.79,0,2.78c0,2.48,0,4.9,0,5.32a1.81,1.81,0,0,1-.2.84.77.77,0,0,1-.54.36,9,9,0,0,1-1.37.2l-.27,0a.69.69,0,0,0,0,.32.73.73,0,0,0,0,.25c.82,0,1.81-.06,3.09-.06,2.26,0,3.83.09,5.66.09,1.09,0,1.22-.11,1.35-.35a15,15,0,0,0,.92-3,1,1,0,0,0-.36-.19A11.65,11.65,0,0,1,22.71,19ZM38.4,17.92a14.36,14.36,0,0,1-.81,1.25,4.67,4.67,0,0,1-.8.88,2.67,2.67,0,0,1-1,.56,4.75,4.75,0,0,1-1.38.19,6.45,6.45,0,0,1-1.87-.26c-2.76-.73-4.13-3.28-4.13-6.22s1.08-4.89,3-5.67a5,5,0,0,1,2.13-.44A9.52,9.52,0,0,1,35,8.32a4.36,4.36,0,0,1,1.22.38,1.75,1.75,0,0,1,.88.79,5.52,5.52,0,0,1,.43,1.82h0a.32.32,0,0,0,.17,0l.27,0h0A26.56,26.56,0,0,1,38.4,8a38.53,38.53,0,0,0-4.3-.44,10.48,10.48,0,0,0-2.84.36,7.84,7.84,0,0,0-1.35.58,6.49,6.49,0,0,0-2.52,2.46,7.32,7.32,0,0,0-.9,3.58,7.18,7.18,0,0,0,2,5.35A6.75,6.75,0,0,0,32,21.57a11.11,11.11,0,0,0,5.12-.41,6.8,6.8,0,0,0,1.65-2.94C38.74,18.11,38.55,18,38.4,17.92Zm16.52,3a.23.23,0,0,0,0-.1,3,3,0,0,1-1.51-.41,2,2,0,0,1-.52-.69c-.1-.2-.21-.43-.33-.72-.76-1.81-3.18-8.7-3.61-9.94a8.82,8.82,0,0,1-.35-1.13c-.07,0-.29,0-.72,0H47.2a3.63,3.63,0,0,1-.11.45c-.07.23-.15.48-.24.72-.28.82-1.09,3.08-1.94,5.34-.6,1.61-1.21,3.22-1.67,4.32a3.93,3.93,0,0,1-1,1.59,3,3,0,0,1-1.59.46.76.76,0,0,0-.05.31,1,1,0,0,0,0,.27c.43,0,1.08-.07,2.21-.07s2.33.07,2.79.07a1.08,1.08,0,0,0,.06-.58l-.48-.07-.48-.1a1.46,1.46,0,0,1-.46-.18.56.56,0,0,1-.34-.66,25.63,25.63,0,0,1,1.18-3.53c0-.07.13-.21.21-.21H49.3c.12,0,.19.13.21.17.2.53.48,1.3.74,2s.43,1.3.55,1.74a.45.45,0,0,1,0,.34,1,1,0,0,1-.25.23,3.53,3.53,0,0,1-.54.14c-.19,0-.41.07-.64.1a.47.47,0,0,0,0,.27,1.08,1.08,0,0,0,0,.3c.51,0,1.78-.06,2.8-.06s2.09.05,2.66.07A1.31,1.31,0,0,0,54.92,20.9ZM49.07,15a.07.07,0,0,1,0,0h0l-.61,0H45.72c-.06,0-.08-.07-.08-.15.31-1,1-2.88,1.42-4.1h0l.26-.73a.07.07,0,0,1,.14,0v0h0c.06.15.13.36.21.58l0,.1h0l.52,1.53c.3.9.62,1.85.83,2.53a.14.14,0,0,1,0,.06A.19.19,0,0,1,49.07,15ZM68.81,20.8l-.64-.08-.44-.09a.93.93,0,0,1-.58-.35,1.76,1.76,0,0,1-.21-.88c0-.26,0-1.16,0-2.14s0-1.86,0-2.43c0-1.09,0-2.18,0-3.1s0-1.78,0-2.14a1.27,1.27,0,0,1,.2-.71,1.08,1.08,0,0,1,.57-.34h0c.18,0,.82-.11,1-.15s.07-.21.06-.33,0-.19-.08-.19c-.53,0-1.61.06-2.23.06l-3,0c-2.88,0-4.56,1.36-4.67,3.35a1,1,0,0,0,0,.17,3.37,3.37,0,0,0,.8,2.3,4,4,0,0,0,1.35,1A4.14,4.14,0,0,0,62.2,15s0,0,0,0h-.13a4.24,4.24,0,0,0-2.13,1.15,22,22,0,0,0-3.45,4.66,15.72,15.72,0,0,1-1.2,1.79A2.73,2.73,0,0,1,52.9,23.9c.71.82,2.69.67,3.56.24a3.34,3.34,0,0,0,1.07-.9c.24-.28,1.09-1.69,1.09-1.69,1.42-2.42,3.68-6.25,5.66-6.23h.8c.06,0,.08,0,.08.07,0,1.18,0,3.35,0,4.11,0,.48-.1.72-.28.88a1.06,1.06,0,0,1-.45.25h0a7,7,0,0,1-1,.16h-.14c-.05.16,0,.52.08.58.45,0,1.56-.07,2.74-.07.93,0,2.19.06,2.71.07a.89.89,0,0,0,0-.26.52.52,0,0,0,0-.31Zm-3.76-6.22h-.17A5.61,5.61,0,0,1,62.2,14a2.88,2.88,0,0,1-1.46-2.74,2.68,2.68,0,0,1,.75-2,3,3,0,0,1,2.12-.72,7.28,7.28,0,0,1,.78,0,2,2,0,0,1,.46.1.39.39,0,0,1,.25.38c.05.85,0,3.92.06,5.39A.14.14,0,0,1,65.05,14.58Zm20.06,6a.75.75,0,0,1-.44-.32,1.65,1.65,0,0,1-.18-.68c0-.38,0-9,0-9.77A2.47,2.47,0,0,1,84.63,9a.73.73,0,0,1,.48-.36,2.7,2.7,0,0,1,.49-.12l.63-.1a.56.56,0,0,0,0-.27,1,1,0,0,0,0-.25c-.51,0-1.55.06-2.47.06-1.16,0-2.22-.08-2.73-.08a.68.68,0,0,0-.06.55l.58.09a4,4,0,0,1,.55.14,1,1,0,0,1,.63.81c0,.78,0,3.24,0,4.38,0,0-.07.13-.13.13s-6.69,0-7,0-.4,0-.4-.24c0-.63,0-1.16,0-1.61,0-1.17,0-1.91,0-2.5a1.42,1.42,0,0,1,.15-.73.77.77,0,0,1,.47-.3c.21-.05.55-.11.9-.17l.13,0A.57.57,0,0,0,77,8.11a2,2,0,0,0,0-.26c-.57,0-1.23.06-2.57.06-1.18,0-2.27-.06-2.79-.06a.81.81,0,0,0-.06.53l.21,0a6.89,6.89,0,0,1,1,.2,1.11,1.11,0,0,1,.73,1.05c0,.39,0,8.56,0,9.3-.06.94-.31,1.48-.89,1.65-.2.05-.85.15-1.07.18a.89.89,0,0,0,0,.59c.44,0,1.61-.07,2.9-.07s2.21.06,2.69.07c.09,0,.16-.56.05-.58-1.26-.19-1.61-.31-1.82-.65a1.92,1.92,0,0,1-.15-.83c0-.23,0-1,0-1.83V15.11s0-.14.08-.14h7.32c.06,0,.13.09.13.16,0,1.37,0,3.76,0,4.4s-.17.89-.56,1c-.07,0-.54.15-.74.18a5.33,5.33,0,0,1-.53.07.86.86,0,0,0,0,.6c.56,0,1.65-.07,2.76-.07s2,.05,2.71.07a.62.62,0,0,0,.07-.26.7.7,0,0,0,0-.31A5.93,5.93,0,0,1,85.11,20.56Zm15.44-6.17a4.54,4.54,0,0,0-2.73-.94l-2.69.07h0a.08.08,0,0,1-.07,0,.1.1,0,0,1,0-.07c0-1.91,0-2.86,0-3.78a1.54,1.54,0,0,1,.14-.76.8.8,0,0,1,.51-.32l.46-.09c.18,0,.37-.06.6-.08a.69.69,0,0,0,0-.29,1.12,1.12,0,0,0,0-.27c-.58,0-1.38.08-2.36.08h-3a5.07,5.07,0,0,1-1.38-.16l-.43-.11c-.05,0-.11.06-.11.08,0,.8-.28,2.59-.45,3.5,0,0,.13.11.25.15h.12q.25-.69.48-1.23a5.17,5.17,0,0,1,.43-.88,1,1,0,0,1,.34-.37,1,1,0,0,1,.47-.16h0l1,0,.9,0h0l.29,0A.28.28,0,0,1,93.5,9c0,1.37,0,3.7,0,5.53,0,2.33,0,4.27-.06,5s-.2,1-.68,1.11c-.11,0-1.07.2-1.45.23a.93.93,0,0,0,0,.6c1.38,0,4,.06,5,.06.38,0,.74,0,1.09,0l.19,0A5.89,5.89,0,0,0,99.12,21,4.28,4.28,0,0,0,101,19.41a4.11,4.11,0,0,0,.67-2.32A3.45,3.45,0,0,0,100.55,14.39Zm-2.67,6.22a3.24,3.24,0,0,1-.79.09,4.61,4.61,0,0,1-.94-.11,2,2,0,0,1-.67-.27.9.9,0,0,1-.3-.36,1.5,1.5,0,0,1-.11-.44h0c0-.46,0-1.38,0-2.36s0-2,0-2.72a.26.26,0,0,1,0-.1s0-.05.07-.05l.47,0h.67a6.77,6.77,0,0,1,.81,0c2.07.16,3,1.35,3,3.34C100,19.38,99.35,20.44,97.88,20.61Z" style="fill: #fff"/>
</svg>
