<svg width="47" height="44" viewBox="0 0 47 44" fill="none" xmlns="http://www.w3.org/2000/svg">
<g clip-path="url(#clip0)">
<path d="M30.227 15.6245H32.626C31.2163 12.4768 30.8432 8.9559 31.5617 5.57845C30.3873 5.69017 29.2052 5.69017 28.0309 5.57845C26.205 5.22148 24.4048 4.74286 22.6417 4.14574C20.6313 3.41232 18.7222 2.47424 16.695 1.9455C15.3704 1.78929 14.0325 1.78929 12.7079 1.9455C13.1641 2.42307 13.4174 2.76419 13.7385 3.03709C14.7832 4.02704 15.4171 5.3802 15.5124 6.82355C15.6835 9.16313 15.2711 11.5088 14.3128 13.646C14.0501 14.2901 13.83 14.951 13.654 15.6245C14.0257 15.6245 14.3467 15.6245 14.6676 15.6245C17.1004 15.6245 19.5331 15.6245 21.9659 15.6245C22.5402 15.6245 23.0302 15.6245 23.0302 16.4091C23.0302 17.1936 22.4558 17.1425 21.9152 17.1425H13.8905C13.333 17.1425 12.8431 17.1425 12.5559 17.8077C12.5174 17.946 12.4456 18.0727 12.3467 18.1761C12.2479 18.2796 12.1253 18.3568 11.9898 18.4007C11.8541 18.4446 11.71 18.4539 11.5699 18.4279C11.4299 18.4017 11.2985 18.3411 11.1875 18.2512C10.5962 17.8418 10.9847 17.4325 11.1875 16.9378C12.2461 14.495 13.1379 11.9819 13.8568 9.41609C14.0805 8.79724 14.1796 8.13959 14.1482 7.4816C14.1167 6.82361 13.9555 6.17857 13.6738 5.58438C13.3921 4.99017 12.9956 4.45876 12.5078 4.02133C12.0199 3.58391 11.4504 3.24928 10.8327 3.03709C9.98798 2.6448 9.83596 1.8261 10.5793 1.33147C11.3421 0.782198 12.2051 0.390879 13.1184 0.180103C14.0319 -0.0306723 14.9775 -0.0567296 15.9009 0.103435C19.246 0.666287 22.1517 2.42307 25.294 3.41232C26.8413 3.8661 28.447 4.08454 30.0581 4.06046C30.9944 3.95897 31.8723 3.55175 32.5584 2.90064C33.5085 1.86833 34.7124 1.10834 36.0477 0.697928C37.3829 0.287511 38.8021 0.241286 40.1607 0.563951C42.0401 1.07876 43.6537 2.29903 44.6714 3.97518C45.4267 5.13796 45.9208 6.45344 46.1192 7.82939C46.3177 9.20532 46.2156 10.6085 45.8202 11.9404C45.156 13.81 44.259 15.5866 43.151 17.2278C42.2049 18.797 40.9547 20.1956 40.0932 21.7988C39.7999 22.3077 39.6701 22.8959 39.7215 23.4823C39.773 24.0687 40.0031 24.6246 40.3803 25.0736C40.6809 25.4037 41.0904 25.6118 41.532 25.6589C41.9736 25.706 42.4171 25.5888 42.7793 25.3294C43.4888 24.9371 44.3674 25.7047 43.9788 26.4211C43.8585 26.5967 43.7031 26.7451 43.5228 26.8567C43.3424 26.9683 43.141 27.0407 42.9313 27.0691C42.2566 27.2564 41.5484 27.286 40.8606 27.156C40.1728 27.026 39.5232 26.7397 38.9613 26.3187C38.9613 28.0243 38.9613 29.4741 38.9613 30.9751C38.8036 33.021 38.084 34.9819 36.8833 36.6377C35.4811 38.7185 33.8424 40.6288 32.2881 42.5903C31.2575 43.9035 29.6358 43.4089 26.3583 43.3066C22.6247 43.2043 20.1075 43.3066 16.7794 43.3066C15.4448 43.3066 13.6878 43.0337 13.8229 41.9592C13.8427 41.8315 13.8886 41.7093 13.9573 41.6003C14.0261 41.4913 14.1165 41.3979 14.2229 41.3257C14.3291 41.2537 14.449 41.2046 14.5749 41.1815C14.7009 41.1585 14.8303 41.1619 14.9549 41.1917C15.4096 41.3934 15.8857 41.5422 16.3739 41.6351C20.9522 41.6351 25.5474 41.6351 30.1257 41.6351C30.368 41.6212 30.6051 41.5582 30.8228 41.4497C31.0405 41.3413 31.2343 41.1897 31.3927 41.004C33.0943 39.048 34.642 36.9608 36.0217 34.7615C36.7843 33.4425 37.2761 31.982 37.4676 30.467C37.6592 28.952 37.5466 27.4136 37.1367 25.9434C36.2331 23.1456 35.0972 20.4297 33.741 17.8247C33.6414 17.5885 33.4648 17.3937 33.2405 17.2728C33.0162 17.1517 32.7576 17.1119 32.5077 17.1596C31.9451 17.1944 31.3809 17.1944 30.8183 17.1596C30.4129 17.1596 29.5006 17.1596 29.6695 16.1021C29.693 15.9695 29.7616 15.8493 29.8633 15.7622C29.965 15.675 30.0936 15.6264 30.227 15.6245ZM38.0321 22.771C37.88 21.6453 38.9106 20.3661 39.4005 19.6156C40.4986 17.9101 41.7995 16.2897 42.8976 14.4988C43.7794 13.3433 44.3462 11.9749 44.5418 10.5297C44.7374 9.08445 44.5549 7.61268 44.0126 6.2607C43.649 5.23712 43.0485 4.31608 42.2609 3.57435C41.4734 2.83263 40.5216 2.2917 39.4849 1.99667C38.7945 1.82848 38.0775 1.80201 37.3767 1.91884C36.6759 2.03566 36.0054 2.29341 35.4051 2.67677C34.8048 3.06014 34.2868 3.56133 33.882 4.1506C33.4771 4.73987 33.1937 5.40522 33.0483 6.10719C32.3585 9.29064 32.8199 12.6183 34.3492 15.4881C35.5318 17.9271 36.7482 20.2638 38.0321 22.771Z" fill="white"/>
<path d="M7.52149 20.0933H14.0763C15.1407 20.0933 15.4279 20.5367 15.1407 21.5601C14.9968 22.1209 14.8896 22.6906 14.8197 23.2657C14.3635 26.2847 13.9074 29.2865 13.4681 32.3225C13.2148 34.1645 12.9952 36.0408 12.7417 37.8999C12.5891 39.3838 12.3578 40.8584 12.0491 42.3174C11.9401 42.5946 11.7612 42.8381 11.53 43.0236C11.2987 43.2092 11.0234 43.3303 10.7314 43.3749C8.53512 43.4943 6.35579 43.4602 4.15957 43.3749C3.26418 43.3749 3.02767 42.6074 2.92631 41.8228C2.53774 38.9574 2.14918 36.0748 1.72683 33.2094C1.16933 29.2524 0.611826 25.3124 0.037429 21.3725C-0.131511 20.315 0.273945 20.0933 1.20311 20.1103C3.33176 20.1273 5.39284 20.0933 7.52149 20.0933ZM10.5118 41.5328L12.3025 28.9965H2.77426L4.66639 41.5328H10.5118ZM13.4681 21.7647C13.3286 21.6993 13.1809 21.6534 13.0289 21.6283H2.41948C1.62547 21.6283 1.72683 22.123 1.79441 22.6176C1.98024 23.8285 2.25055 25.0054 2.35191 26.2164C2.35191 27.0181 2.72358 27.2056 3.45002 27.1886H11.2213C12.6742 27.1886 12.6573 27.1886 12.7586 25.773C12.7987 25.4969 12.8551 25.2235 12.9276 24.9542L13.4681 21.7647Z" fill="white"/>
<path d="M27.7773 16.4263C27.7773 16.6254 27.6989 16.8162 27.5595 16.9569C27.4202 17.0977 27.231 17.1767 27.0339 17.1767H26.4595C26.2697 17.164 26.0915 17.0799 25.9602 16.9409C25.8287 16.802 25.7538 16.6183 25.75 16.4263C25.7477 16.33 25.7643 16.2341 25.7987 16.1443C25.8332 16.0545 25.8849 15.9723 25.9508 15.9026C26.0167 15.8329 26.0954 15.777 26.1828 15.7381C26.2701 15.6992 26.3641 15.6781 26.4595 15.6758H26.9832C27.0845 15.6712 27.1856 15.6871 27.2806 15.7226C27.3757 15.758 27.4628 15.8123 27.5367 15.8823C27.6107 15.9522 27.6701 16.0364 27.7114 16.1297C27.7527 16.2231 27.7751 16.324 27.7773 16.4263Z" fill="white"/>
</g>
<defs>
<clipPath id="clip0">
<rect width="47" height="44" fill="white"/>
</clipPath>
</defs>
</svg>
