<svg id="Layer_1" data-name="Layer 1" xmlns="http://www.w3.org/2000/svg" viewBox="0 0 51.13 51.13">
  <g>
    <path d="M17.6,42.92a11.16,11.16,0,0,1-8-3.06c-4.69-4.69-3.5-13.42.6-17.52a15.57,15.57,0,0,1,5.59-3.53,18.28,18.28,0,0,0,6.51-4.24l1.16-1.17C27.6,9.15,29.69,7,40.15,8.94a.51.51,0,0,1,.41.41c1.91,10.46-.23,12.54-4.49,16.7l-1.18,1.16a17.46,17.46,0,0,0-3,3.88A.51.51,0,1,1,31,30.6a18.48,18.48,0,0,1,3.18-4.11c.41-.42.8-.8,1.18-1.17,4.08-4,6-5.82,4.26-15.44C30,8.16,28.15,10,24.17,14.11L23,15.29a19,19,0,0,1-6.83,4.45,14.86,14.86,0,0,0-5.27,3.32C7.12,26.83,6,34.85,10.3,39.14c3.73,3.74,10.58,3.34,14.63.62a.51.51,0,1,1,.57.84A14.52,14.52,0,0,1,17.6,42.92Z" style="fill: #181716"/>
    <path d="M13,41.07a4.71,4.71,0,0,1-3.43-1.21c-2.9-2.9-.28-10,3.91-14.2a25,25,0,0,1,5.12-3.91A29.18,29.18,0,0,0,24.72,17l1.16-1.18C30,11.64,32.1,9.54,40,8.94a.53.53,0,0,1,.4.14.55.55,0,0,1,.14.4c-.62,7.91-2.72,10-6.92,14.12l-1.18,1.17a29.27,29.27,0,0,0-4.75,6.09l-.41.65a.51.51,0,0,1-.86-.55l.4-.63a30.55,30.55,0,0,1,4.9-6.28l1.18-1.17c4-4,5.94-5.84,6.58-12.88-7,.63-8.92,2.52-12.9,6.55-.37.37-.75.77-1.17,1.18a30.34,30.34,0,0,1-6.28,4.89,23.83,23.83,0,0,0-4.94,3.76C10.08,30.51,8.11,37,10.3,39.14s7.58.36,11.35-2.63a.51.51,0,0,1,.72.08.52.52,0,0,1-.09.72C19.52,39.49,15.88,41.07,13,41.07Z" style="fill: #181716"/>
    <path d="M10.42,40.16a1.11,1.11,0,0,1-.84-.3h0c-1.6-1.6,3.64-8.15,6.8-11.3a60.64,60.64,0,0,1,4.71-4.23,71.73,71.73,0,0,0,5.75-5.2L28,18c4.11-4.12,6.17-6.19,11.82-9a.5.5,0,0,1,.68.68c-2.79,5.64-4.86,7.7-9,11.81l-1.17,1.16a74.56,74.56,0,0,0-5.21,5.74,60.76,60.76,0,0,1-4.23,4.7C18.14,35.83,12.79,40.16,10.42,40.16Zm-.12-1c.64.42,5.24-2.15,9.88-6.78a61.65,61.65,0,0,0,4.17-4.63,75.77,75.77,0,0,1,5.27-5.81l1.18-1.16c3.69-3.67,5.71-5.67,8.09-10.15C34.41,13,32.4,15,28.73,18.68l-1.18,1.17a73.67,73.67,0,0,1-5.82,5.27,58.87,58.87,0,0,0-4.63,4.16C12.47,33.9,9.89,38.5,10.3,39.14Z" style="fill: #181716"/>
    <path d="M40.31,19.85a.52.52,0,0,1-.51-.44C39.61,17.93,35.24,13.2,32,11c-1.71-1.18-2.3-1.11-2.4-1.09A.5.5,0,0,1,29,9.5a.5.5,0,0,1,.37-.61c.71-.17,1.76.24,3.21,1.24,3.31,2.28,8,7.22,8.23,9.15a.5.5,0,0,1-.44.56Z" style="fill: #181716"/>
    <path d="M37.13,24.79h0a.5.5,0,0,1-.47-.54c.06-1-1.58-3.21-4.88-6.52s-5.45-4.93-6.5-4.89a.51.51,0,1,1-.07-1c1.39-.09,3.58,1.46,7.29,5.19s5.26,5.9,5.17,7.29A.51.51,0,0,1,37.13,24.79Z" style="fill: #181716"/>
    <path d="M33.25,28.66h0a.5.5,0,0,1-.47-.54c.06-1-1.58-3.21-4.88-6.51s-5.47-4.94-6.5-4.89a.51.51,0,0,1-.54-.48.5.5,0,0,1,.47-.54c1.38-.09,3.58,1.47,7.29,5.19s5.26,5.9,5.17,7.29A.51.51,0,0,1,33.25,28.66Z" style="fill: #181716"/>
    <path d="M27.3,31.63a.5.5,0,0,1-.4-.19c-1.34-1.62-3.09-3.4-4.28-4.59-1.56-1.57-6.32-6.34-8.1-6.43a.51.51,0,0,1-.48-.54.5.5,0,0,1,.53-.48c1.52.08,4.14,2.09,8.77,6.73,1.21,1.21,3,3,4.35,4.66a.52.52,0,0,1-.39.84Z" style="fill: #181716"/>
    <path d="M21.06,35.39a.5.5,0,0,1-.37-.17c-1.14-1.25-2.35-2.47-3.16-3.29-1.65-1.65-6.64-6.65-8.51-6.75a.51.51,0,1,1,.05-1c1.59.08,4.33,2.19,9.18,7,.82.82,2,2.07,3.19,3.33a.51.51,0,0,1,0,.72A.53.53,0,0,1,21.06,35.39Z" style="fill: #181716"/>
    <path d="M32.57,37.5c-6,0-12-1.22-12-3.54s6.05-3.53,12-3.53,12,1.21,12,3.53S38.54,37.5,32.57,37.5Zm0-6.06c-6.72,0-11,1.5-11,2.52s4.28,2.52,11,2.52,11-1.49,11-2.52S39.28,31.44,32.57,31.44Z" style="fill: #181716"/>
    <path d="M32.57,42.43c-6.63,0-12-3.8-12-8.47a.51.51,0,0,1,1,0c0,4.11,4.93,7.45,11,7.45s11-3.34,11-7.45a.51.51,0,0,1,1,0C44.58,38.63,39.19,42.43,32.57,42.43Z" style="fill: #181716"/>
    <path d="M42.75,34.47h0a202.91,202.91,0,0,0-20.64,0,.5.5,0,0,1-.53-.48.5.5,0,0,1,.48-.53,199.19,199.19,0,0,1,20.77,0,.51.51,0,0,1,0,1Z" style="fill: #181716"/>
  </g>
</svg>
