<svg id="Layer_1" data-name="Layer 1" xmlns="http://www.w3.org/2000/svg" viewBox="0 0 51.13 51.13">
  <g>
    <path d="M29.8,39.4H8.47a3.11,3.11,0,0,1-3.1-3.1V31.11A3.11,3.11,0,0,1,8.47,28h15.1a.51.51,0,1,1,0,1H8.47a2.08,2.08,0,0,0-2.08,2.08V36.3a2.08,2.08,0,0,0,2.08,2.08H29.8a2.09,2.09,0,0,0,2.09-2.08V31.11A2.1,2.1,0,0,0,30,29a.51.51,0,0,1,0-1,3.1,3.1,0,0,1,2.92,3.1V36.3A3.11,3.11,0,0,1,29.8,39.4Z" style="fill: #181716"/>
    <path d="M7.44,29.24A.52.52,0,0,1,7,29a.53.53,0,0,1,.25-.68l14.5-6.81a.52.52,0,0,1,.67.25.5.5,0,0,1-.24.67L7.66,29.19A.42.42,0,0,1,7.44,29.24Z" style="fill: #181716"/>
    <path d="M28.82,39.4a.51.51,0,0,1,0-1c2.33,0,2.61-.25,4-1.49l1-.9c2.19-2,6.74-6,7.84-7.13l.39-.39c1-1,1.17-1.18,1.17-1.71V21.57c0-.77,0-1.74-1.95-1.74h-.74c-10,0-12.5.18-12.9.34a.51.51,0,0,1-.41-.94c.7-.31,4.56-.42,13.31-.41h.74c3,0,3,2,3,2.75v5.19c0,1-.46,1.43-1.48,2.43l-.38.38c-1.12,1.12-5.69,5.21-7.89,7.18l-1,.9C31.94,39,31.43,39.4,28.82,39.4Z" style="fill: #181716"/>
    <path d="M39.51,23.63a.53.53,0,0,1-.4-.19.52.52,0,0,1,.08-.72L43,19.65a.5.5,0,0,1,.71.07.51.51,0,0,1-.08.72l-3.82,3.08A.56.56,0,0,1,39.51,23.63Z" style="fill: #181716"/>
    <path d="M32.46,41.54H3.74c-1.47,0-2-.6-2.11-1.11-.28-1,.55-2.18,1.51-2.82C4.42,36.77,5.61,36,5.61,36a.51.51,0,0,1,.54.86S5,37.63,3.7,38.46C3,39,2.5,39.78,2.61,40.14s.49.38,1.13.38H32.13c2.11,0,3.39,0,4.81-1.54.94-1,3.3-3.42,5.58-5.72,1.77-1.79,3.49-3.52,4.42-4.5,1.79-1.88,1.61-2.46,1.59-2.52s-.35-.26-1-.26h-3.8a.51.51,0,1,1,0-1h3.8c1,0,1.68.3,1.93.88.35.82-.21,2-1.78,3.62-.94,1-2.66,2.72-4.44,4.51-2.27,2.3-4.63,4.68-5.55,5.69C36.06,41.45,34.45,41.54,32.46,41.54Z" style="fill: #181716"/>
    <path d="M29.94,44.16H9.65a4.66,4.66,0,0,1-4.43-2.92.51.51,0,0,1,.92-.43,3.61,3.61,0,0,0,3.51,2.33H29.94a3.31,3.31,0,0,0,3.52-2.3.52.52,0,0,1,.63-.35.51.51,0,0,1,.35.63A4.36,4.36,0,0,1,29.94,44.16Z" style="fill: #181716"/>
    <path d="M28.76,31.11h-.09c-3.66-.7-6.42-2.37-7.2-4.34a2.89,2.89,0,0,1,.36-2.82c2-2.7,6.94-2.06,12.09,1.57a.51.51,0,0,1-.48.89c-2.27-.92-4-.87-4.75.14a3.23,3.23,0,0,0,.47,3.75.51.51,0,0,1,0,.58A.52.52,0,0,1,28.76,31.11Zm-3.07-7.84a3.6,3.6,0,0,0-3,1.27,1.84,1.84,0,0,0-.23,1.85C23,27.82,25,29.12,27.7,29.84a3.94,3.94,0,0,1,.17-3.9,3.18,3.18,0,0,1,2.82-1.22A11.21,11.21,0,0,0,25.69,23.27Z" style="fill: #181716"/>
    <path d="M29.42,31.24a2.44,2.44,0,0,1-.84-.16.5.5,0,0,1-.29-.65.5.5,0,0,1,.65-.3c.6.22,1,0,1.09-.25a.7.7,0,0,0-.31-.93,2.22,2.22,0,0,0-1.78-.4.51.51,0,0,1-.64-.32.5.5,0,0,1,.3-.64,3.15,3.15,0,0,1,2.67.5,1.73,1.73,0,0,1,.67,2.24A1.65,1.65,0,0,1,29.42,31.24Z" style="fill: #181716"/>
    <path d="M38.71,29.77a.48.48,0,0,1-.28-.08l-5.08-3.34a.5.5,0,0,1-.15-.7.52.52,0,0,1,.71-.15l4.74,3.12,1-.95L22.3,17.55a.51.51,0,0,0-.67.14l-1.36,1.87a.5.5,0,0,0,.09.69L24,22.7a.51.51,0,1,1-.57.84l-3.67-2.47A1.53,1.53,0,0,1,19.45,19l1.36-1.87a1.5,1.5,0,0,1,2-.41L40.7,27.13a.5.5,0,0,1,.1.8l-1.74,1.7A.5.5,0,0,1,38.71,29.77Z" style="fill: #181716"/>
    <path d="M19.33,19.83a1.37,1.37,0,0,1-.7-.19L3.72,11a1.4,1.4,0,0,1-.67-.9A1.42,1.42,0,0,1,3.26,9l1-1.44a1.41,1.41,0,0,1,1.87-.42L21,16a1.39,1.39,0,0,1,.66.92,1.43,1.43,0,0,1-.23,1.1.51.51,0,1,1-.83-.59.36.36,0,0,0,.06-.3.34.34,0,0,0-.18-.25L5.6,8.05a.39.39,0,0,0-.51.11L4.1,9.6a.36.36,0,0,0,0,.3.34.34,0,0,0,.18.25l14.91,8.61a.37.37,0,0,0,.5-.1.51.51,0,0,1,.83.59A1.4,1.4,0,0,1,19.33,19.83Z" style="fill: #181716"/>
  </g>
</svg>
