<svg id="Layer_1" data-name="Layer 1" xmlns="http://www.w3.org/2000/svg" viewBox="0 0 51.13 51.13">
  <g>
    <path d="M10.3,37a.51.51,0,0,1-.43-.23C4.3,28,3.32,17.4,6.81,3.49L7,2.87l.57.29a45,45,0,0,1,17.17,14.2.51.51,0,0,1-.81.62A43.83,43.83,0,0,0,7.65,4.35C4.41,17.67,5.4,27.81,10.73,36.21a.5.5,0,0,1-.43.78Z" style="fill: #181716"/>
    <path d="M20.35,21.22a.52.52,0,0,1-.43-.23c-2-3-4.93-5.62-9.25-9.3a.5.5,0,0,1,.65-.77c4.39,3.73,7.42,6.41,9.46,9.52a.51.51,0,0,1-.15.7A.48.48,0,0,1,20.35,21.22Z" style="fill: #181716"/>
    <path d="M13.71,45.9l-1.56,0-.49,0v-.49c0-14.12,5.66-31,32.64-31.09h.58l-.08.58C43.33,26.55,37.31,45.9,13.71,45.9Zm-1-1c23.29.59,29.46-18,31-29.57C18.39,15.63,12.81,31.41,12.68,44.87Z" style="fill: #181716"/>
    <g>
      <path d="M15.73,42l.11-.67c.08-.49.16-1,.26-1.45a.51.51,0,1,1,1,.2c-.05.24-.1.48-.14.73l.73-.12a.51.51,0,1,1,.17,1c-.47.08-1,.16-1.45.22Z" style="fill: #181716"/>
      <path d="M17.32,37.61a.4.4,0,0,1-.15,0,.5.5,0,0,1-.34-.63c.3-1,.64-1.93,1-2.83a.52.52,0,0,1,.66-.28.52.52,0,0,1,.28.67,25.29,25.29,0,0,0-1,2.74A.53.53,0,0,1,17.32,37.61Zm2.29-5.45a.57.57,0,0,1-.25-.06.52.52,0,0,1-.19-.7,24.92,24.92,0,0,1,1.63-2.54.51.51,0,0,1,.82.6,23.61,23.61,0,0,0-1.57,2.44A.49.49,0,0,1,19.61,32.16ZM23.1,27.4a.54.54,0,0,1-.35-.14.52.52,0,0,1,0-.72,23.94,23.94,0,0,1,2.21-2.06.52.52,0,0,1,.72.07.51.51,0,0,1-.07.72,22,22,0,0,0-2.12,2A.49.49,0,0,1,23.1,27.4Zm4.57-3.75a.51.51,0,0,1-.28-.93A28,28,0,0,1,30,21.25a.51.51,0,0,1,.68.24.52.52,0,0,1-.24.68,23.81,23.81,0,0,0-2.53,1.41A.54.54,0,0,1,27.67,23.65ZM33,21.06a.51.51,0,0,1-.17-1c.91-.33,1.88-.64,2.86-.9a.49.49,0,0,1,.62.36.51.51,0,0,1-.36.62c-1,.25-1.88.55-2.77.88A.57.57,0,0,1,33,21.06Z" style="fill: #181716"/>
      <path d="M39.75,20.66a.36.36,0,0,1-.14,0,.51.51,0,0,1-.35-.63l.18-.63-.65.12a.51.51,0,0,1-.19-1l1.45-.25.76-.11-.19.74c-.11.46-.24.93-.38,1.41A.5.5,0,0,1,39.75,20.66Z" style="fill: #181716"/>
      <path d="M20.66,41.06a.5.5,0,0,1-.49-.38.49.49,0,0,1,.35-.62,28.15,28.15,0,0,0,2.73-.9.51.51,0,1,1,.37.94,27.6,27.6,0,0,1-2.83.94Zm5.44-2.14a.49.49,0,0,1-.45-.27.5.5,0,0,1,.22-.68,25.38,25.38,0,0,0,2.45-1.49.51.51,0,0,1,.58.83,23.87,23.87,0,0,1-2.56,1.55A.53.53,0,0,1,26.1,38.92Zm4.81-3.32a.51.51,0,0,1-.34-.89,24.3,24.3,0,0,0,2-2,.51.51,0,1,1,.76.68,28,28,0,0,1-2.11,2.11A.55.55,0,0,1,30.91,35.6Zm3.9-4.36a.49.49,0,0,1-.3-.1.51.51,0,0,1-.11-.71c.54-.76,1.06-1.58,1.55-2.42a.51.51,0,1,1,.88.5A27.59,27.59,0,0,1,35.22,31,.5.5,0,0,1,34.81,31.24Zm2.92-5.08a.41.41,0,0,1-.21-.05.49.49,0,0,1-.25-.67c.39-.85.76-1.75,1.1-2.67a.51.51,0,0,1,.65-.31.51.51,0,0,1,.3.66c-.35.94-.73,1.87-1.13,2.74A.5.5,0,0,1,37.73,26.16Z" style="fill: #181716"/>
    </g>
    <path d="M24.33,48A37.43,37.43,0,0,1,12,45.84a.51.51,0,1,1,.35-1C17.93,47,29.24,49,36.29,43.52c6.9-5.35,11.59-18.7,7.54-28.54a.51.51,0,1,1,.94-.39C49,24.85,44.1,38.75,36.91,44.32,33.34,47.09,28.76,48,24.33,48Z" style="fill: #181716"/>
    <path d="M22.22,35.87a.51.51,0,0,1-.35-.87L33.44,23.83a.51.51,0,1,1,.7.73L22.57,35.73A.5.5,0,0,1,22.22,35.87Z" style="fill: #181716"/>
  </g>
</svg>
