<svg id="Layer_1" data-name="Layer 1" xmlns="http://www.w3.org/2000/svg" viewBox="0 0 51.13 51.13">
  <g>
    <path d="M22.68,14.63h-7.8V6.82h7.8Zm-6.79-1h5.77V7.84H15.89Z" style="fill: #181716"/>
    <path d="M29.47,14.63H21.66V6.82h7.81Zm-6.79-1h5.77V7.84H22.68Z" style="fill: #181716"/>
    <path d="M36.26,14.63H28.45V6.82h7.81Zm-6.79-1h5.77V7.84H29.47Z" style="fill: #181716"/>
    <path d="M22.68,21.42h-7.8V13.61h7.8Zm-6.79-1h5.77V14.63H15.89Z" style="fill: #181716"/>
    <path d="M29.47,21.42H21.66V13.61h7.81Zm-6.79-1h5.77V14.63H22.68Z" style="fill: #181716"/>
    <path d="M36.26,21.42H28.45V13.61h7.81Zm-6.79-1h5.77V14.63H29.47Z" style="fill: #181716"/>
    <path d="M25.57,30.87a3.51,3.51,0,0,1-2.48-1.49c-.59-.63-1.15-1.23-1.89-1.23a2.69,2.69,0,0,0-1.75.91,4.75,4.75,0,0,1-3.31,1.45,3.58,3.58,0,0,1-3.6-3.78V20.4H38.6v6.33A3.58,3.58,0,0,1,35,30.51a4.73,4.73,0,0,1-3.3-1.45,2.73,2.73,0,0,0-1.75-.91c-.75,0-1.3.6-1.89,1.23A3.53,3.53,0,0,1,25.57,30.87ZM21.2,27.13a3.69,3.69,0,0,1,2.63,1.56c.58.63,1.09,1.17,1.74,1.17s1.15-.54,1.73-1.17a3.7,3.7,0,0,1,2.64-1.56,3.62,3.62,0,0,1,2.41,1.16A3.74,3.74,0,0,0,35,29.5a2.6,2.6,0,0,0,2.59-2.77V21.42h-24v5.31a2.6,2.6,0,0,0,2.59,2.77,3.78,3.78,0,0,0,2.65-1.21A3.6,3.6,0,0,1,21.2,27.13Z" style="fill: #181716"/>
    <path d="M33.5,44.31h-16a2.64,2.64,0,0,1-2.64-2.64V29.92h1V41.67a1.64,1.64,0,0,0,1.63,1.63h16a1.63,1.63,0,0,0,1.62-1.63V29.92h1V41.67A2.64,2.64,0,0,1,33.5,44.31Z" style="fill: #181716"/>
    <polygon points="31.81 39.9 19.53 39.9 19.53 27.97 20.55 27.97 20.55 38.88 30.79 38.88 30.79 28.1 31.81 28.1 31.81 39.9" style="fill: #181716"/>
  </g>
</svg>
