<svg id="Layer_1" data-name="Layer 1" xmlns="http://www.w3.org/2000/svg" viewBox="0 0 51.13 51.13">
  <g>
    <path d="M34.55,42.81a.51.51,0,0,1-.2-1c4.63-2,8.26-8.57,9.15-13.81H7.64c.88,5.24,4.52,11.83,9.15,13.81a.51.51,0,0,1,.26.67.5.5,0,0,1-.66.27c-5.13-2.2-9.11-9.6-9.85-15.2a.53.53,0,0,1,.12-.4A.52.52,0,0,1,7,27H44.09a.49.49,0,0,1,.38.17.49.49,0,0,1,.12.4c-.74,5.6-4.72,13-9.84,15.2A.48.48,0,0,1,34.55,42.81Z" style="fill: #181716"/>
    <path d="M33.84,45.33H17.3a1.45,1.45,0,0,1-1.45-1.44v-.55a1.45,1.45,0,0,1,1.45-1.45H33.84a1.44,1.44,0,0,1,1.44,1.45v.55A1.44,1.44,0,0,1,33.84,45.33ZM17.3,42.91a.43.43,0,0,0-.43.43v.55a.43.43,0,0,0,.43.43H33.84a.44.44,0,0,0,.43-.43v-.55a.43.43,0,0,0-.43-.43Z" style="fill: #181716"/>
    <path d="M8.1,26.91h-1a2.34,2.34,0,0,1,1.4-2.19,2.57,2.57,0,0,1,.11-.48,2.63,2.63,0,0,1-.14-.83,2.23,2.23,0,0,1,2.36-2.32,2,2,0,0,1,.84-.36,2.2,2.2,0,0,1,2.22-2,2.2,2.2,0,0,1,.74-.55,2.14,2.14,0,0,1,2.71-1.35,2,2,0,0,1,1.82-.26,2,2,0,0,1,1.08-.06,2.06,2.06,0,0,1,2.1-.34h.33a2,2,0,0,1,2,0,1.92,1.92,0,0,1,1.45,0,1.8,1.8,0,0,1,1-.13,2.12,2.12,0,0,1,2.77.68,2.1,2.1,0,0,1,1.38-.54v1a1.07,1.07,0,0,0-.79.37l-.12.14-.19,0a1.08,1.08,0,0,0-.3.08l-.49.24-.2-.51A1.1,1.1,0,0,0,27.52,17l-.2.15-.23-.06a.9.9,0,0,0-.76.11l-.25.15-.26-.15a1,1,0,0,0-1,0l-.29.16-.26-.19a1,1,0,0,0-1.22,0l-.18.13-.22-.05a1,1,0,0,0-.3,0l-.17,0L22,17.16a1,1,0,0,0-1.26.27l-.24.28-.34-.14a1,1,0,0,0-.81,0l-.22.11-.22-.11a1.09,1.09,0,0,0-1.16.21l-.28.28-.34-.2a1.1,1.1,0,0,0-1.61.82l-.07.28-.29.09a1.18,1.18,0,0,0-.64.49l-.18.29L14,19.78l-.2,0a1.25,1.25,0,0,0-1.14,1.33l0,.59-.58.06-.07-.5,0,.48a1,1,0,0,0-.69.29l-.2.18-.27-.06a1.19,1.19,0,0,0-1.37,1.29A1.51,1.51,0,0,0,9.6,24l.1.21-.1.22a1.5,1.5,0,0,0-.14.61l0,.46-.46.08A1.27,1.27,0,0,0,8.1,26.91Z" style="fill: #181716"/>
    <path d="M43.91,27.51h-1a1.44,1.44,0,0,0-.21-.77l-.17-.27.17-.27a1.46,1.46,0,0,0,.21-.77,1.25,1.25,0,0,0-1-1.3l-.26,0-.12-.23a1.2,1.2,0,0,0-.61-.57l-.39-.15.08-.4a2.45,2.45,0,0,0,0-.27,1.34,1.34,0,0,0-.73-1.23l-.15-.06L39.63,21a1.19,1.19,0,0,0-.73-.56l-.12,0-.1-.08a1.22,1.22,0,0,0-.26-.18l-.12-.05L38.22,20a1.09,1.09,0,0,0-.86-.46h-.25l-.25-.17a1,1,0,0,0-1.38-.19l-.4.29-.3-.41a1.06,1.06,0,0,0-1.08-.45l-.23-1a2,2,0,0,1,1.84.51,2,2,0,0,1,2.13.38,2.05,2.05,0,0,1,1.52.78,1.6,1.6,0,0,1,.29.19,2.19,2.19,0,0,1,1.18.88,2.37,2.37,0,0,1,1.18,2.08v.06a2.26,2.26,0,0,1,.64.63,2.31,2.31,0,0,1,1.66,2.27,2.62,2.62,0,0,1-.22,1A2.58,2.58,0,0,1,43.91,27.51Z" style="fill: #181716"/>
    <path d="M36.33,24.8l-1-.16a1.07,1.07,0,0,0-.19-.81,1.1,1.1,0,0,0-.72-.44,1.14,1.14,0,0,0-.6.08l-.42.18-.22-.4a1.12,1.12,0,0,0-.79-.56l-.26,0L32,22.43a1.21,1.21,0,0,0-.14-.2l-.12-.14V21.9a1.09,1.09,0,0,0-.92-1.08A1.11,1.11,0,0,0,30,21l-.27.2-.28-.16a1,1,0,0,0-1,0l-.31.15-.26-.23a1.06,1.06,0,0,0-.57-.28,1,1,0,0,0-.85.23l-.36.28-.32-.32a1.06,1.06,0,0,0-.6-.31,1.1,1.1,0,0,0-1.14.58l-.12.23-.25,0a1.08,1.08,0,0,0-.9.9l-1-.15a2.12,2.12,0,0,1,1.5-1.7,2.12,2.12,0,0,1,2.08-.91,2.17,2.17,0,0,1,.84.33,2.13,2.13,0,0,1,1.29-.21,2.09,2.09,0,0,1,.85.34,2,2,0,0,1,.92-.06,1.66,1.66,0,0,1,.42.12,2,2,0,0,1,1.32-.22,2.07,2.07,0,0,1,1.77,1.9l0,0a2.13,2.13,0,0,1,1.09.67,2.11,2.11,0,0,1,2.51,2.39Z" style="fill: #181716"/>
    <path d="M31.87,20.89l-.78-.66L40.67,9a.76.76,0,0,0,.17-.56.71.71,0,0,0-.27-.52L39.48,7a.76.76,0,0,0-.59-.16.74.74,0,0,0-.52.32L29.21,20.69l-.84-.57L37.53,6.58a1.78,1.78,0,0,1,2.6-.37l1.09.91a1.73,1.73,0,0,1,.64,1.21,1.79,1.79,0,0,1-.42,1.31Z" style="fill: #181716"/>
  </g>
</svg>
