<svg id="Layer_1" data-name="Layer 1" xmlns="http://www.w3.org/2000/svg" viewBox="0 0 51.13 51.13">
  <path d="M23.91,35.31h.63A4.05,4.05,0,0,0,27.41,34l.35-.35a1.4,1.4,0,0,0,.35-.62,1.19,1.19,0,0,0,.7,0l.28-.07a4.32,4.32,0,0,0,2.52-1.4L32.1,31a4.44,4.44,0,0,0,1.19-3.55l-.07-.7a1.32,1.32,0,0,0-.14-.56,3.9,3.9,0,0,0,2.1-1.11l.35-.42a5,5,0,0,0,1.26-4l-.07-.56a1.89,1.89,0,0,0-.7-1.18,1.86,1.86,0,0,0-1.33-.28l-.42.07a3.76,3.76,0,0,0,.56-2.3l-.35-4v-.14a1990328647665.12,1990328647665.12,0,0,1-.14-.14l-.07-.07L34.2,12s-.07,0-.07-.06h-4.2a4,4,0,0,0-2.31.76l.07-.42a1.74,1.74,0,0,0-.35-1.32,2,2,0,0,0-1.26-.63h-.56a5.13,5.13,0,0,0-3.92,1.61l-.35.41a3.84,3.84,0,0,0-1,2.16,2,2,0,0,0-.63-.14h-.7a4.55,4.55,0,0,0-3.43,1.47l-.28.62A4.21,4.21,0,0,0,14,19.09v.28a2.1,2.1,0,0,0,.07.69,1.65,1.65,0,0,0-.63.42l-.35.35a3.89,3.89,0,0,0-1.05,2.92v.63A2.56,2.56,0,0,0,13,26.26a3.23,3.23,0,0,0-1.68,3l.07,1.46a2.46,2.46,0,0,0,.91,1.88,2.64,2.64,0,0,0,1.89.7h.14a.89.89,0,0,0,.42-.07,3,3,0,0,0,.84,2.36,2.64,2.64,0,0,0,1.89.7h.14l1.47-.07A3.35,3.35,0,0,0,22,34.27,2.17,2.17,0,0,0,23.91,35.31ZM15.44,31.9a1.5,1.5,0,0,1-1.19.56A2,2,0,0,1,13,32a1.48,1.48,0,0,1-.56-1.18l-.07-1.46a2.5,2.5,0,0,1,.56-1.61,2.28,2.28,0,0,1,1.54-.69h.28l.91-.07A.53.53,0,1,0,15.58,26l-1,.07A1.48,1.48,0,0,1,13,24.52v-.63a3,3,0,0,1,.84-2.23l.35-.34a.64.64,0,0,1,.77-.14l.21.14a6.71,6.71,0,0,1,3.5,4.8v.21a.53.53,0,0,0,1.05-.07V26A7.59,7.59,0,0,0,16,20.62a.53.53,0,0,0-.28-.14l-.21-.14-.07-.07a.73.73,0,0,1-.35-.62v-.28a3.55,3.55,0,0,1,.91-2l.49-.56a3.21,3.21,0,0,1,2.66-1.11h.7a.62.62,0,0,1,.63.62A1.65,1.65,0,0,0,21,17.42l.07.07L24,20.2a.55.55,0,0,0,.77,0,.54.54,0,0,0,0-.76l-3-2.72a.61.61,0,0,1-.21-.42l-.07-1.11a2.62,2.62,0,0,1,.7-1.88l.35-.42a4.32,4.32,0,0,1,3.15-1.32h.56a.64.64,0,0,1,.49.21.64.64,0,0,1,.14.48l-.42,2.79v.07l-.21,1.39a.49.49,0,0,0,1,.14l.21-1.46A2.83,2.83,0,0,1,30.14,13h2.8Zm5.67,0,.07.91v.28A2.16,2.16,0,0,1,19,35.38l-1.47.07A2.15,2.15,0,0,1,16.28,35a1.74,1.74,0,0,1-.14-2.44L33.71,13.66l.21,2.78a2.6,2.6,0,0,1-2,2.79l-1.4.35a.53.53,0,0,0-.42.62.55.55,0,0,0,.63.42l1.4-.35L35,19.58a.58.58,0,0,1,.49.07c.14.13.28.27.28.41l.07.56a3.83,3.83,0,0,1-1.05,3.2l-.35.42a2.61,2.61,0,0,1-1.82.84l-1.12.07A1.3,1.3,0,0,1,31,25L28,22.29a.54.54,0,0,0-.77.77l3,2.71a1.63,1.63,0,0,0,1.26.42.68.68,0,0,1,.7.56l.07.7a3.32,3.32,0,0,1-.91,2.71l-.49.56a3.36,3.36,0,0,1-2,1l-.28.14a.67.67,0,0,1-.7-.28l-.21-.27a7.53,7.53,0,0,0-5.88-3.49h-.21a.54.54,0,0,0-.56.49.48.48,0,0,0,.49.49h.21a6.57,6.57,0,0,1,5,3v.07l.14.21a.63.63,0,0,1-.07.77l-.35.35a2.86,2.86,0,0,1-2.1,1h-.63a1.67,1.67,0,0,1-1.68-1.46l-.07-1a.49.49,0,0,0-.56-.48A.62.62,0,0,0,21.11,31.9ZM39.24,12.26c-.77-1.39-1.54-2.71-1.47-3.2V8.85a.07.07,0,0,0-.07-.07l-.07-.07V8.64h-.07l-.07-.07a.07.07,0,0,1-.07-.07h-.28a.07.07,0,0,0-.07.07L37,8.64h-.07c-.28.21-1.89,0-3.22-.14-5-.55-14.35-1.74-21.49,6.06a15.87,15.87,0,0,0-4.41,13,15,15,0,0,0,4.2,9l.14.14c1.75,1.6,7,6.41,13.79,6.41h.56c4.2-.21,8.19-2.3,11.83-6.27C47.5,26.82,42.11,17.35,39.24,12.26ZM8.86,27.38A15,15,0,0,1,13,15.26a19,19,0,0,1,14.7-6.13,44,44,0,0,1,5.81.49,17.89,17.89,0,0,0,3,.21,17.1,17.1,0,0,0,.49,3c1,5,2.87,13.44-3.92,20.82a15.1,15.1,0,0,1-20.51,2.09C11,34.34,9.28,31.14,8.86,27.38Zm28.7,8.7c-3.43,3.76-7.21,5.71-11.13,5.92A16.87,16.87,0,0,1,17,39.15a16.45,16.45,0,0,0,4.27.69h.56a16.36,16.36,0,0,0,12.11-5.5c7.14-7.8,5.18-16.85,4.13-21.73,0-.14-.07-.28-.07-.42.14.21.21.42.35.63C41.27,18,46.24,26.68,37.56,36.08Z" style="fill: #181716"/>
</svg>
