<svg id="Layer_1" data-name="Layer 1" xmlns="http://www.w3.org/2000/svg" viewBox="0 0 51.13 51.13">
  <g>
    <path d="M25.57,33.53c-3,0-6.17-3-6.17-8,0-4.82,2.12-13.8,6.17-13.8s6.17,9,6.17,13.8C31.74,30.52,28.6,33.53,25.57,33.53Zm0-20.82c-2.85,0-5.16,7.73-5.16,12.78,0,4.85,3,7,5.16,7s5.15-2.18,5.15-7C30.72,20.44,28.41,12.71,25.57,12.71Z" style="fill: #181716"/>
    <path d="M25.57,33.53c-5.44,0-11.07-3-11.07-8,0-5.55,2.95-13.8,11.07-13.8,8.74,0,11.07,8.67,11.07,13.8S31,33.53,25.57,33.53Zm0-20.82c-7.38,0-10.06,7.64-10.06,12.78,0,4.85,5.88,7,10.06,7s10-2.18,10-7C35.62,24.18,35.34,12.71,25.57,12.71Z" style="fill: #181716"/>
    <path d="M30.93,14.3a.52.52,0,0,1-.29-.09.51.51,0,0,1-.12-.71L32.3,11H29.52a.51.51,0,0,1-.51-.51V8.81H26.74a.48.48,0,0,1-.4-.2l-.77-1-.77,1a.51.51,0,0,1-.4.2H22.12v1.71a.5.5,0,0,1-.5.51H18.84l1.77,2.47a.5.5,0,0,1-.11.71.51.51,0,0,1-.71-.12l-2.36-3.27a.51.51,0,0,1,0-.53.5.5,0,0,1,.45-.28h3.26V8.3a.51.51,0,0,1,.51-.51h2.53l1-1.32a.51.51,0,0,1,.41-.2h0a.49.49,0,0,1,.4.2l1,1.32h2.53A.51.51,0,0,1,30,8.3V10h3.26a.51.51,0,0,1,.41.81l-2.35,3.27A.51.51,0,0,1,30.93,14.3Z" style="fill: #181716"/>
    <path d="M27.47,36.9H23.65a1.14,1.14,0,0,1-1.15-1.15V33a.5.5,0,0,1,.51-.5.5.5,0,0,1,.5.5v2.73a.13.13,0,0,0,.14.13h3.82a.13.13,0,0,0,.13-.13V33a.51.51,0,0,1,1,0v2.73A1.15,1.15,0,0,1,27.47,36.9Z" style="fill: #181716"/>
    <path d="M27.42,44.87H23.81a.51.51,0,0,1-.51-.51v-8a.51.51,0,0,1,.51-.51h3.61a.5.5,0,0,1,.5.51v8A.5.5,0,0,1,27.42,44.87Zm-3.1-1h2.59v-7H24.32Z" style="fill: #181716"/>
  </g>
</svg>
