<svg id="Layer_1" data-name="Layer 1" xmlns="http://www.w3.org/2000/svg" viewBox="0 0 51.13 51.13">
  <g>
    <path d="M34.22,11.3H16.92a2.2,2.2,0,0,1-2.2-2.2V8.82a2.2,2.2,0,0,1,2.2-2.2h17.3a2.21,2.21,0,0,1,2.2,2.2V9.1A2.21,2.21,0,0,1,34.22,11.3ZM16.92,7.64a1.18,1.18,0,0,0-1.19,1.18V9.1a1.18,1.18,0,0,0,1.19,1.18h17.3A1.18,1.18,0,0,0,35.4,9.1V8.82a1.18,1.18,0,0,0-1.18-1.18Z" style="fill: #181716"/>
    <path d="M25.57,17.18a2.5,2.5,0,0,1-2-1,5.31,5.31,0,0,0-.81-.7c-1.07-.73-1.56-1-3,.26a3.06,3.06,0,0,1-4.2.17c-.45-.41-1.71-2,1-5.47a.51.51,0,0,1,.71-.09.52.52,0,0,1,.09.72c-1.71,2.19-1.69,3.55-1.1,4.09.29.27,1.36,1,2.86-.2,1.83-1.51,2.8-1.32,4.27-.32a5.3,5.3,0,0,1,1,.83,1.51,1.51,0,0,0,1.3.65,1.48,1.48,0,0,0,1.29-.65,5.67,5.67,0,0,1,1-.83c1.48-1,2.45-1.19,4.27.32,1.51,1.24,2.57.47,2.86.2.6-.54.62-1.9-1.1-4.09a.51.51,0,1,1,.81-.63c2.69,3.45,1.43,5.06,1,5.47a3.06,3.06,0,0,1-4.2-.17c-1.49-1.23-2-1-3.05-.26a5.2,5.2,0,0,0-.8.7A2.51,2.51,0,0,1,25.57,17.18Z" style="fill: #181716"/>
    <path d="M34.94,44.51H16.2a2.44,2.44,0,0,1-2.71-2.71v-18c0-2,1.12-4.74,3.26-7.89a.51.51,0,0,1,.71-.13.5.5,0,0,1,.13.7c-2,2.94-3.09,5.54-3.09,7.32v18c0,1.19.51,1.7,1.7,1.7H34.94c1.19,0,1.69-.51,1.69-1.7v-18c0-1.78-1.09-4.38-3.09-7.32a.51.51,0,0,1,.85-.57c2.13,3.15,3.26,5.88,3.26,7.89v18A2.44,2.44,0,0,1,34.94,44.51Z" style="fill: #181716"/>
    <path d="M28.74,24.83H14a.51.51,0,0,1,0-1H28.74a.51.51,0,0,1,0,1Z" style="fill: #181716"/>
    <path d="M37.14,24.83H33.29a.51.51,0,0,1,0-1h3.85a.51.51,0,0,1,0,1Z" style="fill: #181716"/>
    <path d="M31.86,24.32a.62.62,0,0,1-.18.44.6.6,0,0,1-.44.19h-.48a.69.69,0,0,1-.41-.2.64.64,0,0,1-.18-.43.67.67,0,0,1,0-.24.63.63,0,0,1,.13-.2.67.67,0,0,1,.19-.14.59.59,0,0,1,.23,0h.44a.73.73,0,0,1,.25,0,.74.74,0,0,1,.21.13.8.8,0,0,1,.15.21A.7.7,0,0,1,31.86,24.32Z" style="fill: #181716"/>
  </g>
</svg>
