<svg id="Layer_1" data-name="Layer 1" xmlns="http://www.w3.org/2000/svg" viewBox="0 0 51.13 51.13">
  <path d="M31.19,21.22l16.52-10L43.82,4.84l-16.45,10-.93-1.48a3.47,3.47,0,0,0-4.75-1.16l-2.11,1.24a3.41,3.41,0,0,0-1.79-1.32,2.83,2.83,0,0,0-2.26.39l-1.48.93a3.08,3.08,0,0,0-1.4,1.86,1.29,1.29,0,0,0-.08.54A3,3,0,0,0,9.76,16L8.28,17a3.1,3.1,0,0,0-1.09,4.12l-2.1,1.24A3.44,3.44,0,0,0,3.92,27l5.69,9.24a3.47,3.47,0,0,0,2.1,1.55,3.53,3.53,0,0,0,2.65-.39l2.1-1.24a3.43,3.43,0,0,0,1.8,1.32,2.07,2.07,0,0,0,.7.08h.39v3.8a.87.87,0,0,1-.86.86H18.1a.87.87,0,0,1-.86-.86v-.7a2,2,0,0,0-4,0v3.57a.87.87,0,0,1-.86.86h-.46a.87.87,0,0,1-.86-.86v-5a.55.55,0,0,0-1.09,0v5a2.05,2.05,0,0,0,2,2h.47a2.06,2.06,0,0,0,2-2V40.7a.86.86,0,0,1,1.71,0v.7a2.06,2.06,0,0,0,2,2h.39a2.05,2.05,0,0,0,2-2V37.21h.08l1.48-.93a3.16,3.16,0,0,0,1.41-1.86,1.49,1.49,0,0,0,.07-.55,3.24,3.24,0,0,0,2.81-.15l1.48-.93A3.1,3.1,0,0,0,29,28.67l2.11-1.24a3.53,3.53,0,0,0,1.55-2.1,3.43,3.43,0,0,0-.39-2.63Zm-3.27-5.36L43.43,6.39l2.73,4.43L30.65,20.21Zm-1.25,9.55a.58.58,0,0,0-.39.08c-.15.08-.23.16-.23.31a.57.57,0,0,0,.08.39l1.79,2.95a2.06,2.06,0,0,1-.62,2.72l-1.56.93a1.73,1.73,0,0,1-1.48.23A2.18,2.18,0,0,1,23,32.09a.52.52,0,0,0-.7-.16c-.16.08-.23.16-.23.31a.64.64,0,0,0,.07.39,1.69,1.69,0,0,1,.24,1.48,2.43,2.43,0,0,1-.86,1.24L20,36.28l-.08.08h-.07c-.08,0-.16.07-.24.07a1.71,1.71,0,0,1-1.09.08,2.38,2.38,0,0,1-1.25-.85L12.49,27.9c-.08-.16-.16-.24-.31-.24a.57.57,0,0,0-.39.08c-.16.08-.24.16-.24.31a.57.57,0,0,0,.08.39l4.29,7-2.18,1.24a2.59,2.59,0,0,1-1.87.31,2.36,2.36,0,0,1-1.48-1.09L4.77,26.58a2.47,2.47,0,0,1,.78-3.34L7.66,22l1.4,2.25c.08.15.16.23.31.23a.57.57,0,0,0,.39-.08c.16-.07.24-.15.24-.31a.58.58,0,0,0-.08-.39l-1.87-3a1.73,1.73,0,0,1-.24-1.48A2.43,2.43,0,0,1,8.67,18L10.15,17a2,2,0,0,1,1.48-.23,2.34,2.34,0,0,1,1.25.85l6.78,11.1c.08.16.16.23.31.23a.64.64,0,0,0,.39-.07.52.52,0,0,0,.16-.7l-6.78-11.1a1.7,1.7,0,0,1-.24-1.48,2.43,2.43,0,0,1,.86-1.24l1.48-.93a2,2,0,0,1,1.48-.23,2.34,2.34,0,0,1,1.25.85l4.83,7.84a.51.51,0,0,0,.7.15.49.49,0,0,0,.16-.69L20,14.31l2.11-1.24a2.33,2.33,0,0,1,1.24-.39,2.57,2.57,0,0,1,2.11,1.17l5.69,9.23A2.18,2.18,0,0,1,31.35,25a2.43,2.43,0,0,1-1.09,1.4l-2,1.4L27,25.65C27,25.49,26.83,25.41,26.67,25.41Z" style="fill: #fff"/>
</svg>
