<svg id="Layer_1" data-name="Layer 1" xmlns="http://www.w3.org/2000/svg" viewBox="0 0 51.13 51.13">
  <g>
    <path d="M31.51,20.46h2a13.59,13.59,0,0,1-.89-8.39,16.15,16.15,0,0,1-3,0,34.68,34.68,0,0,1-4.5-1.2c-1.68-.61-3.28-1.4-5-1.84a14.27,14.27,0,0,0-3.33,0,11.79,11.79,0,0,0,.86.91,4.82,4.82,0,0,1,1.48,3.17,11.77,11.77,0,0,1-1,5.7,13.3,13.3,0,0,0-.55,1.65h6.94c.48,0,.89,0,.89.65s-.48.62-.93.62h-6.7c-.47,0-.88,0-1.12.55a.71.71,0,0,1-.47.5.82.82,0,0,1-.35,0,.63.63,0,0,1-.32-.15c-.49-.34-.17-.68,0-1.09a49.43,49.43,0,0,0,2.23-6.29,4,4,0,0,0,.24-1.61,4.05,4.05,0,0,0-1.37-2.89,4,4,0,0,0-1.4-.83c-.7-.32-.83-1-.21-1.42a5.81,5.81,0,0,1,2.12-1,5.9,5.9,0,0,1,2.33-.07c2.79.47,5.22,1.94,7.84,2.77a13.42,13.42,0,0,0,4,.54,3.66,3.66,0,0,0,2.09-1,6.55,6.55,0,0,1,6.35-1.95,6.39,6.39,0,0,1,3.77,2.85,8,8,0,0,1,1,6.65,20.15,20.15,0,0,1-2.23,4.42c-.79,1.31-1.84,2.48-2.56,3.82a2.43,2.43,0,0,0-.31,1.4A2.47,2.47,0,0,0,40,28.35a1.51,1.51,0,0,0,2,.21.72.72,0,0,1,1,.92,1.31,1.31,0,0,1-.38.36,1.43,1.43,0,0,1-.5.18,3.81,3.81,0,0,1-3.31-.63v3.89A9.19,9.19,0,0,1,37.07,38c-1.17,1.74-2.54,3.33-3.84,5-.86,1.1-2.21.69-4.95.6-3.12-.09-5.22,0-8,0-1.11,0-2.58-.23-2.47-1.13a1.21,1.21,0,0,1,.11-.3.8.8,0,0,1,.23-.22.59.59,0,0,1,.29-.13,1.16,1.16,0,0,1,.32,0,4.9,4.9,0,0,0,1.18.37H31.43A1.47,1.47,0,0,0,32,42a1.72,1.72,0,0,0,.48-.37,41.88,41.88,0,0,0,3.86-5.22,9.53,9.53,0,0,0,.93-7.36,43.31,43.31,0,0,0-2.83-6.78.94.94,0,0,0-.42-.46.87.87,0,0,0-.61-.1,11.06,11.06,0,0,1-1.41,0c-.34,0-1.1,0-1-.88a.5.5,0,0,1,.16-.29A.46.46,0,0,1,31.51,20.46Zm6.52,6c-.13-.94.74-2,1.14-2.64.92-1.42,2-2.78,2.93-4.27A7.06,7.06,0,0,0,43,12.64a5.75,5.75,0,0,0-1.47-2.25,5.5,5.5,0,0,0-2.31-1.31,4.37,4.37,0,0,0-3.41.56,4.29,4.29,0,0,0-1.27,1.24,4.39,4.39,0,0,0-.7,1.63A11.44,11.44,0,0,0,35,20.34C35.94,22.38,37,24.33,38,26.43Z" style="fill: #fff"/>
    <path d="M12.55,24.19H18c.89,0,1.13.37.89,1.23a11.12,11.12,0,0,0-.27,1.42c-.38,2.52-.76,5-1.12,7.57-.22,1.53-.4,3.1-.61,4.65a35.38,35.38,0,0,1-.58,3.69,1.41,1.41,0,0,1-.43.59,1.45,1.45,0,0,1-.67.3c-1.84.1-3.66.07-5.49,0-.75,0-1-.64-1-1.3-.32-2.39-.65-4.8-1-7.19-.47-3.31-.93-6.6-1.41-9.89-.14-.88.19-1.07,1-1.05C9.05,24.22,10.77,24.19,12.55,24.19Zm2.5,17.91,1.49-10.47h-8L10.16,42.1Zm2.47-16.51a1.23,1.23,0,0,0-.37-.12H8.29c-.67,0-.58.42-.53.83.16,1,.39,2,.47,3,0,.66.31.82.92.81h6.49c1.21,0,1.2,0,1.28-1.19,0-.23.08-.45.14-.68Z" style="fill: #fff"/>
    <path d="M29.47,21.13a.63.63,0,0,1-.19.44.58.58,0,0,1-.43.18h-.48a.65.65,0,0,1-.42-.19.69.69,0,0,1-.18-.43,1,1,0,0,1,0-.24.86.86,0,0,1,.13-.2.85.85,0,0,1,.19-.14.69.69,0,0,1,.24-.05h.43a.69.69,0,0,1,.25,0,1,1,0,0,1,.22.13.6.6,0,0,1,.14.21A.71.71,0,0,1,29.47,21.13Z" style="fill: #fff"/>
  </g>
</svg>
